aaram-medium.ufo
<glyph name="exclam" format="1">
  <advance width="183"/>
  <unicode hex="0021"/>
  <outline>
    <contour>
      <point x="78" y="73" type="curve" smooth="yes"/>
      <point x="91" y="73"/>
      <point x="104" y="86"/>
      <point x="104" y="99" type="curve"/>
      <point x="104" y="698" type="line"/>
      <point x="104" y="711"/>
      <point x="91" y="724"/>
      <point x="78" y="724" type="curve" smooth="yes"/>
      <point x="62" y="724"/>
      <point x="52" y="711"/>
      <point x="52" y="698" type="curve"/>
      <point x="52" y="99" type="line"/>
      <point x="52" y="86"/>
      <point x="62" y="73"/>
    </contour>
    <contour>
      <point x="78" y="64" type="curve" smooth="yes"/>
      <point x="62" y="64"/>
      <point x="52" y="51"/>
      <point x="52" y="38" type="curve"/>
      <point x="52" y="25" type="line"/>
      <point x="52" y="12"/>
      <point x="62" y="-1"/>
      <point x="78" y="-1" type="curve" smooth="yes"/>
      <point x="91" y="-1"/>
      <point x="104" y="12"/>
      <point x="104" y="25" type="curve"/>
      <point x="104" y="38" type="line"/>
      <point x="104" y="51"/>
      <point x="91" y="64"/>
    </contour>
  </outline>
</glyph>
<glyph name="quotedbl" format="1">
  <advance width="159"/>
  <unicode hex="0022"/>
  <outline>
    <contour>
      <point x="71" y="680" type="line"/>
      <point x="69" y="737" type="line"/>
      <point x="69" y="753"/>
      <point x="57" y="766"/>
      <point x="40" y="766" type="curve" smooth="yes"/>
      <point x="24" y="766"/>
      <point x="12" y="752"/>
      <point x="12" y="736" type="curve"/>
      <point x="14" y="685" type="line"/>
      <point x="13" y="685" type="line"/>
      <point x="15" y="630" type="line"/>
      <point x="15" y="614"/>
      <point x="27" y="601"/>
      <point x="44" y="601" type="curve" smooth="yes"/>
      <point x="59" y="601"/>
      <point x="72" y="615"/>
      <point x="72" y="630" type="curve"/>
      <point x="70" y="680" type="line"/>
    </contour>
    <contour>
      <point x="143" y="684" type="line"/>
      <point x="141" y="739" type="line"/>
      <point x="141" y="755"/>
      <point x="129" y="768"/>
      <point x="112" y="768" type="curve" smooth="yes"/>
      <point x="96" y="768"/>
      <point x="84" y="754"/>
      <point x="84" y="738" type="curve"/>
      <point x="86" y="687" type="line"/>
      <point x="85" y="687" type="line"/>
      <point x="87" y="632" type="line"/>
      <point x="87" y="616"/>
      <point x="99" y="603"/>
      <point x="116" y="603" type="curve" smooth="yes"/>
      <point x="132" y="603"/>
      <point x="144" y="617"/>
      <point x="144" y="632" type="curve"/>
      <point x="142" y="684" type="line"/>
    </contour>
  </outline>
</glyph>
<glyph name="numbersign" format="1">
  <advance width="627"/>
  <unicode hex="0023"/>
  <outline>
    <contour>
      <point x="593" y="446" type="line"/>
      <point x="451" y="477" type="line"/>
      <point x="456" y="504"/>
      <point x="462" y="523"/>
      <point x="467" y="548" type="curve"/>
      <point x="473" y="567"/>
      <point x="476" y="584"/>
      <point x="476" y="600" type="curve" smooth="yes"/>
      <point x="476" y="639"/>
      <point x="457" y="664"/>
      <point x="422" y="676" type="curve"/>
      <point x="416" y="676" type="line"/>
      <point x="415" y="676"/>
      <point x="414" y="677"/>
      <point x="413" y="677" type="curve" smooth="yes"/>
      <point x="401" y="677"/>
      <point x="391" y="669"/>
      <point x="387" y="659" type="curve"/>
      <point x="386" y="652"/>
      <point x="386" y="643"/>
      <point x="390" y="634" type="curve" smooth="yes"/>
      <point x="393" y="629"/>
      <point x="398" y="626"/>
      <point x="403" y="623" type="curve" smooth="yes"/>
      <point x="414" y="620"/>
      <point x="421" y="614"/>
      <point x="422" y="605" type="curve" smooth="yes"/>
      <point x="424" y="593"/>
      <point x="419" y="579"/>
      <point x="415" y="566" type="curve"/>
      <point x="410" y="542"/>
      <point x="403" y="512"/>
      <point x="398" y="487" type="curve"/>
      <point x="359" y="495"/>
      <point x="321" y="506"/>
      <point x="283" y="513" type="curve"/>
      <point x="291" y="549" type="line"/>
      <point x="291" y="548" type="line"/>
      <point x="297" y="567"/>
      <point x="300" y="584"/>
      <point x="300" y="600" type="curve" smooth="yes"/>
      <point x="300" y="639"/>
      <point x="282" y="664"/>
      <point x="247" y="676" type="curve" smooth="yes"/>
      <point x="245" y="676"/>
      <point x="242" y="677"/>
      <point x="241" y="677" type="curve" smooth="yes"/>
      <point x="226" y="677"/>
      <point x="215" y="669"/>
      <point x="212" y="658" type="curve"/>
      <point x="213" y="659" type="line"/>
      <point x="210" y="652"/>
      <point x="212" y="642"/>
      <point x="214" y="634" type="curve" smooth="yes"/>
      <point x="217" y="629"/>
      <point x="222" y="626"/>
      <point x="228" y="623" type="curve" smooth="yes"/>
      <point x="240" y="620"/>
      <point x="246" y="614"/>
      <point x="247" y="605" type="curve" smooth="yes"/>
      <point x="249" y="595"/>
      <point x="244" y="580"/>
      <point x="239" y="566" type="curve"/>
      <point x="237" y="553"/>
      <point x="232" y="539"/>
      <point x="229" y="525" type="curve"/>
      <point x="153" y="541" type="line"/>
      <point x="154" y="541" type="line"/>
      <point x="137" y="546"/>
      <point x="119" y="549"/>
      <point x="103" y="549" type="curve" smooth="yes"/>
      <point x="65" y="549"/>
      <point x="39" y="532"/>
      <point x="26" y="497" type="curve"/>
      <point x="25" y="489"/>
      <point x="25" y="481"/>
      <point x="29" y="474" type="curve"/>
      <point x="29" y="475" type="line"/>
      <point x="32" y="469"/>
      <point x="37" y="464"/>
      <point x="45" y="461" type="curve"/>
      <point x="44" y="462" type="line"/>
      <point x="48" y="460"/>
      <point x="50" y="460"/>
      <point x="53" y="460" type="curve" smooth="yes"/>
      <point x="64" y="460"/>
      <point x="75" y="468"/>
      <point x="79" y="478" type="curve" smooth="yes"/>
      <point x="83" y="491"/>
      <point x="91" y="496"/>
      <point x="102" y="496" type="curve" smooth="yes"/>
      <point x="111" y="496"/>
      <point x="125" y="492"/>
      <point x="137" y="488" type="curve"/>
      <point x="163" y="483"/>
      <point x="192" y="476"/>
      <point x="218" y="471" type="curve"/>
      <point x="193" y="352" type="line"/>
      <point x="132" y="365" type="line"/>
      <point x="133" y="365" type="line"/>
      <point x="115" y="371"/>
      <point x="98" y="374"/>
      <point x="82" y="374" type="curve" smooth="yes"/>
      <point x="44" y="374"/>
      <point x="18" y="356"/>
      <point x="6" y="320" type="curve" smooth="yes"/>
      <point x="3" y="313"/>
      <point x="5" y="307"/>
      <point x="8" y="300" type="curve" smooth="yes"/>
      <point x="12" y="292"/>
      <point x="17" y="289"/>
      <point x="23" y="286" type="curve" smooth="yes"/>
      <point x="26" y="284"/>
      <point x="30" y="284"/>
      <point x="32" y="284" type="curve" smooth="yes"/>
      <point x="44" y="284"/>
      <point x="55" y="292"/>
      <point x="59" y="303" type="curve" smooth="yes"/>
      <point x="62" y="316"/>
      <point x="69" y="320"/>
      <point x="81" y="320" type="curve" smooth="yes"/>
      <point x="91" y="320"/>
      <point x="104" y="317"/>
      <point x="115" y="313" type="curve"/>
      <point x="136" y="309"/>
      <point x="161" y="303"/>
      <point x="182" y="298" type="curve"/>
      <point x="144" y="124" type="line"/>
      <point x="141" y="116"/>
      <point x="142" y="111"/>
      <point x="146" y="104" type="curve"/>
      <point x="146" y="105" type="line"/>
      <point x="149" y="98"/>
      <point x="155" y="94"/>
      <point x="161" y="92" type="curve" smooth="yes"/>
      <point x="165" y="90"/>
      <point x="167" y="90"/>
      <point x="171" y="90" type="curve" smooth="yes"/>
      <point x="183" y="90"/>
      <point x="193" y="97"/>
      <point x="196" y="108" type="curve"/>
      <point x="235" y="287" type="line"/>
      <point x="274" y="280"/>
      <point x="312" y="270"/>
      <point x="350" y="262" type="curve"/>
      <point x="340" y="214"/>
      <point x="329" y="171"/>
      <point x="320" y="124" type="curve"/>
      <point x="320" y="125" type="line"/>
      <point x="315" y="111"/>
      <point x="323" y="96"/>
      <point x="337" y="91" type="curve"/>
      <point x="336" y="92" type="line"/>
      <point x="340" y="90"/>
      <point x="344" y="90"/>
      <point x="346" y="90" type="curve" smooth="yes"/>
      <point x="357" y="90"/>
      <point x="367" y="97"/>
      <point x="371" y="107" type="curve"/>
      <point x="381" y="154"/>
      <point x="394" y="205"/>
      <point x="403" y="251" type="curve"/>
      <point x="557" y="218" type="line"/>
      <point x="559" y="217"/>
      <point x="562" y="217"/>
      <point x="565" y="217" type="curve" smooth="yes"/>
      <point x="576" y="217"/>
      <point x="587" y="225"/>
      <point x="590" y="236" type="curve" smooth="yes"/>
      <point x="595" y="250"/>
      <point x="588" y="266"/>
      <point x="572" y="270" type="curve"/>
      <point x="414" y="304" type="line"/>
      <point x="439" y="424" type="line"/>
      <point x="487" y="414"/>
      <point x="531" y="403"/>
      <point x="579" y="394" type="curve"/>
      <point x="577" y="395" type="line"/>
      <point x="581" y="393"/>
      <point x="583" y="393"/>
      <point x="586" y="393" type="curve" smooth="yes"/>
      <point x="597" y="393"/>
      <point x="608" y="400"/>
      <point x="612" y="411" type="curve" smooth="yes"/>
      <point x="617" y="425"/>
      <point x="609" y="440"/>
      <point x="594" y="446" type="curve"/>
    </contour>
    <contour>
      <point x="387" y="434" type="line"/>
      <point x="379" y="395"/>
      <point x="368" y="355"/>
      <point x="361" y="316" type="curve"/>
      <point x="322" y="323"/>
      <point x="284" y="333"/>
      <point x="246" y="341" type="curve"/>
      <point x="253" y="381"/>
      <point x="264" y="421"/>
      <point x="272" y="460" type="curve"/>
    </contour>
  </outline>
</glyph>
<glyph name="dollar" format="1">
  <advance width="336"/>
  <unicode hex="0024"/>
  <outline>
    <contour>
      <point x="294" y="536" type="line"/>
      <point x="294" y="601" type="line"/>
      <point x="294" y="651"/>
      <point x="268" y="694"/>
      <point x="225" y="714" type="curve"/>
      <point x="225" y="777" type="line"/>
      <point x="225" y="793"/>
      <point x="213" y="804"/>
      <point x="197" y="804" type="curve" smooth="yes"/>
      <point x="181" y="804"/>
      <point x="170" y="793"/>
      <point x="170" y="777" type="curve"/>
      <point x="170" y="728" type="line"/>
      <point x="168" y="728" type="line"/>
      <point x="167" y="728" type="line"/>
      <point x="164" y="728" type="line"/>
      <point x="164" y="777" type="line"/>
      <point x="164" y="793"/>
      <point x="152" y="804"/>
      <point x="136" y="804" type="curve" smooth="yes"/>
      <point x="122" y="804"/>
      <point x="108" y="793"/>
      <point x="108" y="777" type="curve"/>
      <point x="108" y="714" type="line"/>
      <point x="66" y="693"/>
      <point x="40" y="651"/>
      <point x="40" y="601" type="curve"/>
      <point x="40" y="446" type="line"/>
      <point x="42" y="419"/>
      <point x="50" y="395"/>
      <point x="65" y="377" type="curve"/>
      <point x="78" y="362" type="line"/>
      <point x="85" y="356"/>
      <point x="100" y="347"/>
      <point x="108" y="343" type="curve"/>
      <point x="108" y="88" type="line"/>
      <point x="99" y="99"/>
      <point x="96" y="114"/>
      <point x="96" y="130" type="curve"/>
      <point x="96" y="174" type="line"/>
      <point x="40" y="174" type="line"/>
      <point x="40" y="130" type="line"/>
      <point x="40" y="80"/>
      <point x="66" y="39"/>
      <point x="108" y="17" type="curve"/>
      <point x="108" y="-45" type="line"/>
      <point x="108" y="-62"/>
      <point x="122" y="-73"/>
      <point x="136" y="-73" type="curve" smooth="yes"/>
      <point x="152" y="-73"/>
      <point x="164" y="-62"/>
      <point x="164" y="-45" type="curve"/>
      <point x="164" y="3" type="line"/>
      <point x="168" y="2"/>
      <point x="163" y="3"/>
      <point x="167" y="3" type="curve"/>
      <point x="170" y="3" type="line"/>
      <point x="170" y="-45" type="line"/>
      <point x="170" y="-62"/>
      <point x="181" y="-73"/>
      <point x="197" y="-73" type="curve" smooth="yes"/>
      <point x="213" y="-73"/>
      <point x="225" y="-62"/>
      <point x="225" y="-45" type="curve"/>
      <point x="225" y="17" type="line"/>
      <point x="268" y="38"/>
      <point x="294" y="80"/>
      <point x="294" y="130" type="curve"/>
      <point x="294" y="276" type="line"/>
      <point x="294" y="305"/>
      <point x="284" y="331"/>
      <point x="270" y="353" type="curve"/>
      <point x="255" y="369" type="line"/>
      <point x="245" y="378"/>
      <point x="235" y="384"/>
      <point x="225" y="388" type="curve"/>
      <point x="225" y="644" type="line"/>
      <point x="234" y="632"/>
      <point x="238" y="619"/>
      <point x="238" y="601" type="curve"/>
      <point x="238" y="536" type="line"/>
    </contour>
    <contour>
      <point x="96" y="601" type="line"/>
      <point x="96" y="617"/>
      <point x="100" y="631"/>
      <point x="108" y="643" type="curve"/>
      <point x="108" y="407" type="line"/>
      <point x="101" y="411"/>
      <point x="98" y="416"/>
      <point x="96" y="424" type="curve"/>
    </contour>
    <contour>
      <point x="96" y="423" type="line"/>
      <point x="96" y="424" type="line"/>
      <point x="95" y="425"/>
      <point x="95" y="426"/>
      <point x="95" y="427" type="curve"/>
    </contour>
    <contour>
      <point x="167" y="59" type="curve"/>
      <point x="164" y="59" type="line"/>
      <point x="164" y="337" type="line"/>
      <point x="170" y="337" type="line"/>
      <point x="170" y="59" type="line"/>
      <point x="165" y="58"/>
      <point x="171" y="59"/>
    </contour>
    <contour>
      <point x="225" y="88" type="curve"/>
      <point x="225" y="325" type="line"/>
      <point x="230" y="319"/>
      <point x="234" y="311"/>
      <point x="238" y="304" type="curve"/>
      <point x="238" y="130" type="line"/>
      <point x="238" y="114"/>
      <point x="234" y="99"/>
    </contour>
    <contour>
      <point x="238" y="306" type="line"/>
      <point x="238" y="304" type="line"/>
      <point x="238" y="303"/>
      <point x="238" y="303"/>
      <point x="239" y="303" type="curve"/>
    </contour>
    <contour>
      <point x="164" y="393" type="line"/>
      <point x="164" y="672" type="line"/>
      <point x="168" y="673"/>
      <point x="163" y="672"/>
      <point x="167" y="672" type="curve"/>
      <point x="170" y="672" type="line"/>
      <point x="170" y="393" type="line"/>
    </contour>
    <contour>
      <point x="170" y="681" type="line"/>
      <point x="170" y="672" type="line"/>
      <point x="172" y="672"/>
      <point x="174" y="672"/>
      <point x="177" y="672" type="curve"/>
    </contour>
  </outline>
</glyph>
<glyph name="percent" format="1">
  <advance width="484"/>
  <unicode hex="0025"/>
  <outline>
    <contour>
      <point x="212" y="446" type="curve"/>
      <point x="212" y="570" type="line"/>
      <point x="212" y="626"/>
      <point x="166" y="672"/>
      <point x="108" y="672" type="curve" smooth="yes"/>
      <point x="52" y="672"/>
      <point x="6" y="626"/>
      <point x="6" y="570" type="curve"/>
      <point x="6" y="446" type="line"/>
      <point x="6" y="389"/>
      <point x="52" y="343"/>
      <point x="108" y="343" type="curve" smooth="yes"/>
      <point x="166" y="343"/>
      <point x="212" y="389"/>
    </contour>
    <contour>
      <point x="108" y="396" type="curve" smooth="yes"/>
      <point x="81" y="396"/>
      <point x="59" y="419"/>
      <point x="59" y="446" type="curve"/>
      <point x="59" y="570" type="line"/>
      <point x="59" y="597"/>
      <point x="81" y="620"/>
      <point x="108" y="620" type="curve" smooth="yes"/>
      <point x="136" y="620"/>
      <point x="158" y="597"/>
      <point x="158" y="570" type="curve"/>
      <point x="158" y="446" type="line"/>
      <point x="158" y="419"/>
      <point x="136" y="396"/>
    </contour>
    <contour>
      <point x="366" y="346" type="curve" smooth="yes"/>
      <point x="310" y="346"/>
      <point x="264" y="299"/>
      <point x="264" y="243" type="curve"/>
      <point x="264" y="119" type="line"/>
      <point x="264" y="61"/>
      <point x="310" y="16"/>
      <point x="366" y="16" type="curve" smooth="yes"/>
      <point x="424" y="16"/>
      <point x="470" y="61"/>
      <point x="470" y="119" type="curve"/>
      <point x="470" y="243" type="line"/>
      <point x="470" y="299"/>
      <point x="424" y="346"/>
    </contour>
    <contour>
      <point x="366" y="69" type="curve" smooth="yes"/>
      <point x="339" y="69"/>
      <point x="317" y="92"/>
      <point x="317" y="119" type="curve"/>
      <point x="317" y="243" type="line"/>
      <point x="317" y="270"/>
      <point x="339" y="292"/>
      <point x="366" y="292" type="curve" smooth="yes"/>
      <point x="394" y="292"/>
      <point x="416" y="270"/>
      <point x="416" y="243" type="curve"/>
      <point x="416" y="119" type="line"/>
      <point x="416" y="92"/>
      <point x="394" y="69"/>
    </contour>
    <contour>
      <point x="322" y="725" type="curve" smooth="yes"/>
      <point x="310" y="732"/>
      <point x="294" y="727"/>
      <point x="288" y="713" type="curve" smooth="yes"/>
      <point x="281" y="700"/>
      <point x="287" y="686"/>
      <point x="299" y="679" type="curve" smooth="yes"/>
      <point x="317" y="670"/>
      <point x="324" y="659"/>
      <point x="324" y="644" type="curve" smooth="yes"/>
      <point x="324" y="626"/>
      <point x="316" y="606"/>
      <point x="304" y="583" type="curve"/>
      <point x="103" y="37" type="line"/>
      <point x="104" y="38" type="line"/>
      <point x="100" y="25"/>
      <point x="104" y="11"/>
      <point x="116" y="4" type="curve" smooth="yes"/>
      <point x="129" y="-3"/>
      <point x="144" y="2"/>
      <point x="150" y="16" type="curve"/>
      <point x="353" y="567" type="line"/>
      <point x="352" y="566" type="line"/>
      <point x="365" y="593"/>
      <point x="374" y="620"/>
      <point x="374" y="644" type="curve" smooth="yes"/>
      <point x="374" y="678"/>
      <point x="359" y="705"/>
    </contour>
  </outline>
</glyph>
<glyph name="ampersand" format="1">
  <advance width="383"/>
  <unicode hex="0026"/>
  <outline>
    <contour>
      <point x="377" y="425" type="curve" smooth="yes"/>
      <point x="377" y="438"/>
      <point x="366" y="450"/>
      <point x="351" y="450" type="curve" smooth="yes"/>
      <point x="338" y="450"/>
      <point x="326" y="438"/>
      <point x="326" y="425" type="curve" smooth="yes"/>
      <point x="326" y="389"/>
      <point x="297" y="359"/>
      <point x="261" y="359" type="curve"/>
      <point x="81" y="359" type="line"/>
      <point x="81" y="602" type="line"/>
      <point x="81" y="643"/>
      <point x="116" y="677"/>
      <point x="156" y="677" type="curve" smooth="yes"/>
      <point x="198" y="677"/>
      <point x="231" y="643"/>
      <point x="231" y="602" type="curve"/>
      <point x="231" y="550" type="line"/>
      <point x="231" y="520"/>
      <point x="227" y="497"/>
      <point x="166" y="497" type="curve" smooth="yes"/>
      <point x="150" y="497"/>
      <point x="139" y="486"/>
      <point x="139" y="471" type="curve" smooth="yes"/>
      <point x="139" y="458"/>
      <point x="150" y="447"/>
      <point x="164" y="447" type="curve" smooth="yes"/>
      <point x="274" y="447"/>
      <point x="282" y="489"/>
      <point x="282" y="545" type="curve"/>
      <point x="282" y="602" type="line"/>
      <point x="282" y="671"/>
      <point x="226" y="728"/>
      <point x="156" y="728" type="curve" smooth="yes"/>
      <point x="87" y="728"/>
      <point x="31" y="671"/>
      <point x="31" y="602" type="curve"/>
      <point x="31" y="358" type="line"/>
      <point x="19" y="356"/>
      <point x="10" y="346"/>
      <point x="10" y="334" type="curve" smooth="yes"/>
      <point x="10" y="321"/>
      <point x="17" y="313"/>
      <point x="28" y="310" type="curve"/>
      <point x="31" y="125" type="line"/>
      <point x="31" y="56"/>
      <point x="87" y="-1"/>
      <point x="156" y="-1" type="curve" smooth="yes"/>
      <point x="226" y="-1"/>
      <point x="282" y="56"/>
      <point x="282" y="125" type="curve"/>
      <point x="282" y="311" type="line"/>
      <point x="336" y="320"/>
      <point x="377" y="368"/>
    </contour>
    <contour>
      <point x="156" y="50" type="curve" smooth="yes"/>
      <point x="116" y="50"/>
      <point x="81" y="84"/>
      <point x="81" y="125" type="curve"/>
      <point x="81" y="309" type="line"/>
      <point x="231" y="309" type="line"/>
      <point x="231" y="125" type="line"/>
      <point x="231" y="84"/>
      <point x="198" y="50"/>
    </contour>
  </outline>
</glyph>
<glyph name="quotesingle" format="1">
  <advance width="82"/>
  <unicode hex="0027"/>
  <outline>
    <contour>
      <point x="42" y="601" type="curve" smooth="yes"/>
      <point x="58" y="601"/>
      <point x="71" y="615"/>
      <point x="71" y="630" type="curve"/>
      <point x="69" y="682" type="line"/>
      <point x="70" y="682" type="line"/>
      <point x="68" y="737" type="line"/>
      <point x="68" y="753"/>
      <point x="55" y="766"/>
      <point x="39" y="766" type="curve" smooth="yes"/>
      <point x="23" y="766"/>
      <point x="10" y="752"/>
      <point x="10" y="736" type="curve"/>
      <point x="12" y="685" type="line"/>
      <point x="11" y="685" type="line"/>
      <point x="13" y="630" type="line"/>
      <point x="13" y="614"/>
      <point x="26" y="601"/>
    </contour>
  </outline>
</glyph>
<glyph name="parenleft" format="1">
  <advance width="184"/>
  <unicode hex="0028"/>
  <outline>
    <contour>
      <point x="78" y="0" type="curve"/>
      <point x="159" y="0" type="line"/>
      <point x="173" y="0"/>
      <point x="184" y="12"/>
      <point x="184" y="25" type="curve" smooth="yes"/>
      <point x="184" y="40"/>
      <point x="173" y="52"/>
      <point x="159" y="52" type="curve"/>
      <point x="98" y="52" type="line"/>
      <point x="87" y="105"/>
      <point x="59" y="251"/>
      <point x="59" y="363" type="curve" smooth="yes"/>
      <point x="59" y="487"/>
      <point x="87" y="627"/>
      <point x="99" y="675" type="curve"/>
      <point x="159" y="675" type="line"/>
      <point x="173" y="675"/>
      <point x="184" y="687"/>
      <point x="184" y="701" type="curve" smooth="yes"/>
      <point x="184" y="715"/>
      <point x="173" y="727"/>
      <point x="159" y="727" type="curve"/>
      <point x="78" y="727" type="line"/>
      <point x="67" y="727"/>
      <point x="56" y="718"/>
      <point x="53" y="707" type="curve" smooth="yes"/>
      <point x="49" y="693"/>
      <point x="7" y="519"/>
      <point x="7" y="363" type="curve" smooth="yes"/>
      <point x="7" y="221"/>
      <point x="49" y="36"/>
      <point x="53" y="19" type="curve" smooth="yes"/>
      <point x="56" y="9"/>
      <point x="67" y="0"/>
    </contour>
  </outline>
</glyph>
<glyph name="parenright" format="1">
  <advance width="184"/>
  <unicode hex="0029"/>
  <outline>
    <contour>
      <point x="23" y="0" type="line"/>
      <point x="9" y="0"/>
      <point x="-3" y="12"/>
      <point x="-3" y="25" type="curve" smooth="yes"/>
      <point x="-3" y="40"/>
      <point x="9" y="52"/>
      <point x="23" y="52" type="curve"/>
      <point x="83" y="52" type="line"/>
      <point x="94" y="103"/>
      <point x="123" y="250"/>
      <point x="123" y="363" type="curve" smooth="yes"/>
      <point x="123" y="487"/>
      <point x="95" y="627"/>
      <point x="83" y="675" type="curve"/>
      <point x="23" y="675" type="line"/>
      <point x="9" y="675"/>
      <point x="-3" y="687"/>
      <point x="-3" y="701" type="curve" smooth="yes"/>
      <point x="-3" y="715"/>
      <point x="9" y="727"/>
      <point x="23" y="727" type="curve"/>
      <point x="103" y="727" type="line"/>
      <point x="115" y="727"/>
      <point x="126" y="718"/>
      <point x="129" y="707" type="curve" smooth="yes"/>
      <point x="133" y="693"/>
      <point x="175" y="519"/>
      <point x="175" y="363" type="curve" smooth="yes"/>
      <point x="175" y="221"/>
      <point x="133" y="36"/>
      <point x="129" y="19" type="curve" smooth="yes"/>
      <point x="126" y="9"/>
      <point x="115" y="0"/>
      <point x="103" y="0" type="curve"/>
    </contour>
  </outline>
</glyph>
<glyph name="asterisk" format="1">
  <advance width="564"/>
  <unicode hex="002A"/>
  <outline>
    <contour>
      <point x="479" y="550" type="curve"/>
      <point x="331" y="550" type="line"/>
      <point x="438" y="656" type="line"/>
      <point x="441" y="662"/>
      <point x="442" y="666"/>
      <point x="442" y="672" type="curve" smooth="yes"/>
      <point x="442" y="678"/>
      <point x="440" y="684"/>
      <point x="437" y="689" type="curve"/>
      <point x="432" y="694"/>
      <point x="423" y="698"/>
      <point x="417" y="698" type="curve" smooth="yes"/>
      <point x="411" y="698"/>
      <point x="405" y="695"/>
      <point x="400" y="690" type="curve"/>
      <point x="295" y="585" type="line"/>
      <point x="295" y="733" type="line"/>
      <point x="295" y="748"/>
      <point x="284" y="758"/>
      <point x="270" y="758" type="curve" smooth="yes"/>
      <point x="256" y="758"/>
      <point x="245" y="748"/>
      <point x="245" y="733" type="curve"/>
      <point x="245" y="585" type="line"/>
      <point x="140" y="690" type="line"/>
      <point x="135" y="695"/>
      <point x="129" y="698"/>
      <point x="123" y="698" type="curve" smooth="yes"/>
      <point x="117" y="698"/>
      <point x="110" y="695"/>
      <point x="104" y="690" type="curve"/>
      <point x="100" y="685"/>
      <point x="98" y="678"/>
      <point x="98" y="672" type="curve" smooth="yes"/>
      <point x="98" y="667"/>
      <point x="98" y="662"/>
      <point x="102" y="657" type="curve"/>
      <point x="210" y="550" type="line"/>
      <point x="62" y="550" type="line"/>
      <point x="46" y="550"/>
      <point x="36" y="538"/>
      <point x="36" y="525" type="curve" smooth="yes"/>
      <point x="36" y="512"/>
      <point x="46" y="499"/>
      <point x="62" y="499" type="curve"/>
      <point x="210" y="499" type="line"/>
      <point x="103" y="393" type="line"/>
      <point x="100" y="388"/>
      <point x="98" y="384"/>
      <point x="98" y="377" type="curve" smooth="yes"/>
      <point x="98" y="371"/>
      <point x="101" y="362"/>
      <point x="105" y="358" type="curve" smooth="yes"/>
      <point x="110" y="355"/>
      <point x="116" y="352"/>
      <point x="123" y="352" type="curve" smooth="yes"/>
      <point x="129" y="352"/>
      <point x="135" y="355"/>
      <point x="140" y="359" type="curve"/>
      <point x="245" y="464" type="line"/>
      <point x="245" y="315" type="line"/>
      <point x="245" y="303"/>
      <point x="256" y="291"/>
      <point x="270" y="291" type="curve" smooth="yes"/>
      <point x="284" y="291"/>
      <point x="295" y="303"/>
      <point x="295" y="315" type="curve"/>
      <point x="295" y="464" type="line"/>
      <point x="400" y="359" type="line"/>
      <point x="405" y="355"/>
      <point x="411" y="352"/>
      <point x="417" y="352" type="curve" smooth="yes"/>
      <point x="423" y="352"/>
      <point x="431" y="355"/>
      <point x="436" y="359" type="curve" smooth="yes"/>
      <point x="445" y="369"/>
      <point x="445" y="384"/>
      <point x="436" y="394" type="curve"/>
      <point x="330" y="499" type="line"/>
      <point x="479" y="499" type="line"/>
      <point x="493" y="499"/>
      <point x="504" y="512"/>
      <point x="504" y="525" type="curve" smooth="yes"/>
      <point x="504" y="538"/>
      <point x="493" y="550"/>
    </contour>
  </outline>
</glyph>
<glyph name="plus" format="1">
  <advance width="468"/>
  <unicode hex="002B"/>
  <outline>
    <contour>
      <point x="439" y="407" type="curve"/>
      <point x="255" y="407" type="line"/>
      <point x="255" y="591" type="line"/>
      <point x="255" y="605"/>
      <point x="245" y="617"/>
      <point x="231" y="617" type="curve" smooth="yes"/>
      <point x="217" y="617"/>
      <point x="207" y="605"/>
      <point x="207" y="591" type="curve"/>
      <point x="207" y="407" type="line"/>
      <point x="22" y="407" type="line"/>
      <point x="8" y="407"/>
      <point x="-3" y="396"/>
      <point x="-3" y="383" type="curve" smooth="yes"/>
      <point x="-3" y="369"/>
      <point x="8" y="358"/>
      <point x="22" y="358" type="curve"/>
      <point x="207" y="358" type="line"/>
      <point x="207" y="173" type="line"/>
      <point x="207" y="160"/>
      <point x="217" y="149"/>
      <point x="231" y="149" type="curve" smooth="yes"/>
      <point x="245" y="149"/>
      <point x="255" y="160"/>
      <point x="255" y="173" type="curve"/>
      <point x="255" y="358" type="line"/>
      <point x="439" y="358" type="line"/>
      <point x="453" y="358"/>
      <point x="465" y="369"/>
      <point x="465" y="383" type="curve" smooth="yes"/>
      <point x="465" y="396"/>
      <point x="453" y="407"/>
    </contour>
  </outline>
</glyph>
<glyph name="comma" format="1">
  <advance width="88"/>
  <unicode hex="002C"/>
  <outline>
    <contour>
      <point x="46" y="85" type="curve" smooth="yes"/>
      <point x="25" y="85"/>
      <point x="10" y="70"/>
      <point x="10" y="51" type="curve"/>
      <point x="10" y="32" type="line" smooth="yes"/>
      <point x="10" y="22"/>
      <point x="12" y="15"/>
      <point x="20" y="8" type="curve"/>
      <point x="10" y="-4" type="line" smooth="yes"/>
      <point x="5" y="-12"/>
      <point x="8" y="-26"/>
      <point x="19" y="-33" type="curve"/>
      <point x="21" y="-33"/>
      <point x="27" y="-34"/>
      <point x="28" y="-34" type="curve" smooth="yes"/>
      <point x="34" y="-34"/>
      <point x="41" y="-31"/>
      <point x="46" y="-26" type="curve"/>
      <point x="62" y="3" type="line" smooth="yes"/>
      <point x="72" y="10"/>
      <point x="80" y="22"/>
      <point x="80" y="32" type="curve"/>
      <point x="80" y="51" type="line" smooth="yes"/>
      <point x="80" y="70"/>
      <point x="64" y="85"/>
    </contour>
  </outline>
</glyph>
<glyph name="hyphen" format="1">
  <advance width="283"/>
  <unicode hex="002D"/>
  <outline>
    <contour>
      <point x="241" y="407" type="curve"/>
      <point x="38" y="407" type="line"/>
      <point x="24" y="407"/>
      <point x="14" y="396"/>
      <point x="14" y="383" type="curve" smooth="yes"/>
      <point x="14" y="369"/>
      <point x="24" y="358"/>
      <point x="38" y="358" type="curve"/>
      <point x="241" y="358" type="line"/>
      <point x="255" y="358"/>
      <point x="266" y="369"/>
      <point x="266" y="383" type="curve" smooth="yes"/>
      <point x="266" y="396"/>
      <point x="255" y="407"/>
    </contour>
  </outline>
</glyph>
<glyph name="period" format="1">
  <advance width="139"/>
  <unicode hex="002E"/>
  <outline>
    <contour>
      <point x="69" y="87" type="curve" smooth="yes"/>
      <point x="49" y="87"/>
      <point x="33" y="73"/>
      <point x="33" y="53" type="curve" smooth="yes"/>
      <point x="33" y="33" type="line" smooth="yes"/>
      <point x="33" y="15"/>
      <point x="49" y="0"/>
      <point x="69" y="0" type="curve" smooth="yes"/>
      <point x="87" y="0"/>
      <point x="102" y="15"/>
      <point x="102" y="33" type="curve" smooth="yes"/>
      <point x="102" y="53" type="line" smooth="yes"/>
      <point x="102" y="73"/>
      <point x="87" y="87"/>
    </contour>
  </outline>
</glyph>
<glyph name="slash" format="1">
  <advance width="433"/>
  <unicode hex="002F"/>
  <outline>
    <contour>
      <point x="334" y="622" type="line"/>
      <point x="149" y="77" type="line"/>
      <point x="113" y="-23" type="line"/>
      <point x="107" y="-39"/>
      <point x="91" y="-46"/>
      <point x="75" y="-40" type="curve" smooth="yes"/>
      <point x="60" y="-35"/>
      <point x="52" y="-17"/>
      <point x="57" y="-3" type="curve"/>
      <point x="94" y="96" type="line"/>
      <point x="280" y="642" type="line"/>
      <point x="316" y="742" type="line"/>
      <point x="322" y="757"/>
      <point x="338" y="765"/>
      <point x="354" y="759" type="curve" smooth="yes"/>
      <point x="368" y="753"/>
      <point x="377" y="737"/>
      <point x="371" y="722" type="curve"/>
    </contour>
  </outline>
</glyph>
<glyph name="zero" format="1">
  <advance width="278"/>
  <unicode hex="0030"/>
  <outline>
    <contour>
      <point x="137" y="715" type="curve" smooth="yes"/>
      <point x="69" y="715"/>
      <point x="13" y="659"/>
      <point x="13" y="591" type="curve"/>
      <point x="13" y="121" type="line"/>
      <point x="13" y="52"/>
      <point x="69" y="-4"/>
      <point x="137" y="-4" type="curve" smooth="yes"/>
      <point x="205" y="-4"/>
      <point x="261" y="52"/>
      <point x="261" y="121" type="curve"/>
      <point x="261" y="591" type="line"/>
      <point x="261" y="659"/>
      <point x="205" y="715"/>
    </contour>
    <contour>
      <point x="137" y="665" type="curve" smooth="yes"/>
      <point x="178" y="665"/>
      <point x="211" y="631"/>
      <point x="211" y="591" type="curve"/>
      <point x="211" y="291" type="line"/>
      <point x="204" y="289"/>
      <point x="198" y="289"/>
      <point x="191" y="289" type="curve" smooth="yes"/>
      <point x="167" y="289"/>
      <point x="146" y="301"/>
      <point x="134" y="323" type="curve"/>
      <point x="63" y="461" type="line"/>
      <point x="63" y="591" type="line"/>
      <point x="63" y="631"/>
      <point x="96" y="665"/>
    </contour>
    <contour>
      <point x="137" y="46" type="curve" smooth="yes"/>
      <point x="96" y="46"/>
      <point x="63" y="80"/>
      <point x="63" y="121" type="curve"/>
      <point x="63" y="351" type="line"/>
      <point x="89" y="301" type="line"/>
      <point x="109" y="261"/>
      <point x="150" y="239"/>
      <point x="191" y="239" type="curve" smooth="yes"/>
      <point x="198" y="239"/>
      <point x="205" y="240"/>
      <point x="211" y="241" type="curve"/>
      <point x="211" y="121" type="line"/>
      <point x="211" y="80"/>
      <point x="178" y="46"/>
    </contour>
  </outline>
</glyph>
<glyph name="one" format="1">
  <advance width="126"/>
  <unicode hex="0031"/>
  <outline>
    <contour>
      <point x="110" y="694" type="line"/>
      <point x="107" y="705"/>
      <point x="98" y="714"/>
      <point x="84" y="714" type="curve"/>
      <point x="79" y="714" type="line"/>
      <point x="15" y="714"/>
      <point x="-5" y="714"/>
      <point x="-5" y="649" type="curve" smooth="yes"/>
      <point x="-5" y="635"/>
      <point x="6" y="623"/>
      <point x="19" y="623" type="curve" smooth="yes"/>
      <point x="34" y="623"/>
      <point x="45" y="635"/>
      <point x="45" y="649" type="curve" smooth="yes"/>
      <point x="45" y="668"/>
      <point x="45" y="668"/>
      <point x="52" y="666" type="curve" smooth="yes"/>
      <point x="54" y="666"/>
      <point x="57" y="666"/>
      <point x="60" y="665" type="curve"/>
      <point x="60" y="23" type="line"/>
      <point x="60" y="10"/>
      <point x="71" y="-2"/>
      <point x="84" y="-2" type="curve" smooth="yes"/>
      <point x="99" y="-2"/>
      <point x="110" y="10"/>
      <point x="110" y="23" type="curve"/>
    </contour>
  </outline>
</glyph>
<glyph name="two" format="1">
  <advance width="274"/>
  <unicode hex="0032"/>
  <outline>
    <contour>
      <point x="135" y="714" type="curve" smooth="yes"/>
      <point x="67" y="714"/>
      <point x="12" y="659"/>
      <point x="12" y="590" type="curve"/>
      <point x="12" y="526" type="line"/>
      <point x="61" y="526" type="line"/>
      <point x="61" y="590" type="line"/>
      <point x="61" y="631"/>
      <point x="94" y="664"/>
      <point x="135" y="664" type="curve" smooth="yes"/>
      <point x="175" y="664"/>
      <point x="208" y="631"/>
      <point x="208" y="590" type="curve"/>
      <point x="208" y="381" type="line"/>
      <point x="12" y="381" type="line"/>
      <point x="12" y="123" type="line"/>
      <point x="12" y="55"/>
      <point x="67" y="-1"/>
      <point x="135" y="-1" type="curve" smooth="yes"/>
      <point x="203" y="-1"/>
      <point x="259" y="55"/>
      <point x="259" y="123" type="curve"/>
      <point x="259" y="162" type="line"/>
      <point x="208" y="162" type="line"/>
      <point x="208" y="123" type="line"/>
      <point x="208" y="82"/>
      <point x="175" y="49"/>
      <point x="135" y="49" type="curve" smooth="yes"/>
      <point x="94" y="49"/>
      <point x="61" y="82"/>
      <point x="61" y="123" type="curve"/>
      <point x="61" y="331" type="line"/>
      <point x="259" y="331" type="line"/>
      <point x="259" y="590" type="line"/>
      <point x="259" y="659"/>
      <point x="203" y="714"/>
    </contour>
  </outline>
</glyph>
<glyph name="three" format="1">
  <advance width="333"/>
  <unicode hex="0033"/>
  <outline>
    <contour>
      <point x="242" y="354" type="line"/>
      <point x="239" y="357" type="line"/>
      <point x="241" y="357" type="line"/>
      <point x="256" y="371"/>
      <point x="269" y="389"/>
      <point x="276" y="410" type="curve" smooth="yes"/>
      <point x="277" y="419"/>
      <point x="279" y="428"/>
      <point x="279" y="439" type="curve"/>
      <point x="279" y="587" type="line"/>
      <point x="279" y="655"/>
      <point x="224" y="712"/>
      <point x="155" y="712" type="curve" smooth="yes"/>
      <point x="86" y="712"/>
      <point x="31" y="652"/>
      <point x="30" y="579" type="curve"/>
      <point x="85" y="579" type="line"/>
      <point x="85" y="621"/>
      <point x="117" y="657"/>
      <point x="155" y="657" type="curve" smooth="yes"/>
      <point x="194" y="657"/>
      <point x="224" y="625"/>
      <point x="224" y="587" type="curve"/>
      <point x="224" y="445" type="line"/>
      <point x="224" y="412"/>
      <point x="199" y="386"/>
      <point x="169" y="384" type="curve"/>
      <point x="87" y="384" type="line"/>
      <point x="87" y="329" type="line"/>
      <point x="169" y="329" type="line"/>
      <point x="199" y="327"/>
      <point x="224" y="301"/>
      <point x="224" y="269" type="curve"/>
      <point x="224" y="123" type="line"/>
      <point x="224" y="85"/>
      <point x="194" y="54"/>
      <point x="155" y="54" type="curve" smooth="yes"/>
      <point x="117" y="54"/>
      <point x="85" y="85"/>
      <point x="85" y="123" type="curve"/>
      <point x="85" y="169" type="line"/>
      <point x="30" y="169" type="line"/>
      <point x="30" y="124" type="line"/>
      <point x="30" y="89"/>
      <point x="45" y="58"/>
      <point x="68" y="35" type="curve" smooth="yes"/>
      <point x="92" y="12"/>
      <point x="121" y="-2"/>
      <point x="155" y="-2" type="curve" smooth="yes"/>
      <point x="224" y="-2"/>
      <point x="280" y="54"/>
      <point x="280" y="123" type="curve"/>
      <point x="280" y="269" type="line"/>
      <point x="280" y="303"/>
      <point x="265" y="334"/>
      <point x="241" y="356" type="curve"/>
    </contour>
  </outline>
</glyph>
<glyph name="four" format="1">
  <advance width="264"/>
  <unicode hex="0034"/>
  <outline>
    <contour>
      <point x="220" y="714" type="curve" smooth="yes"/>
      <point x="206" y="714"/>
      <point x="194" y="703"/>
      <point x="194" y="690" type="curve"/>
      <point x="194" y="455" type="line"/>
      <point x="194" y="414"/>
      <point x="161" y="381"/>
      <point x="121" y="381" type="curve" smooth="yes"/>
      <point x="80" y="381"/>
      <point x="47" y="414"/>
      <point x="47" y="455" type="curve"/>
      <point x="47" y="690" type="line"/>
      <point x="47" y="703"/>
      <point x="37" y="714"/>
      <point x="23" y="714" type="curve" smooth="yes"/>
      <point x="9" y="714"/>
      <point x="-2" y="703"/>
      <point x="-2" y="690" type="curve"/>
      <point x="-2" y="455" type="line"/>
      <point x="-2" y="387"/>
      <point x="53" y="331"/>
      <point x="121" y="331" type="curve" smooth="yes"/>
      <point x="149" y="331"/>
      <point x="175" y="340"/>
      <point x="194" y="355" type="curve"/>
      <point x="194" y="23" type="line"/>
      <point x="194" y="10"/>
      <point x="206" y="-1"/>
      <point x="220" y="-1" type="curve" smooth="yes"/>
      <point x="233" y="-1"/>
      <point x="245" y="10"/>
      <point x="245" y="23" type="curve"/>
      <point x="245" y="690" type="line"/>
      <point x="245" y="703"/>
      <point x="233" y="714"/>
    </contour>
  </outline>
</glyph>
<glyph name="five" format="1">
  <advance width="340"/>
  <unicode hex="0035"/>
  <outline>
    <contour>
      <point x="291" y="543" type="line"/>
      <point x="291" y="585" type="line"/>
      <point x="291" y="653"/>
      <point x="236" y="710"/>
      <point x="167" y="710" type="curve" smooth="yes"/>
      <point x="98" y="710"/>
      <point x="43" y="653"/>
      <point x="43" y="585" type="curve"/>
      <point x="43" y="327" type="line"/>
      <point x="236" y="327" type="line"/>
      <point x="236" y="123" type="line"/>
      <point x="236" y="85"/>
      <point x="205" y="54"/>
      <point x="167" y="54" type="curve" smooth="yes"/>
      <point x="128" y="54"/>
      <point x="98" y="85"/>
      <point x="98" y="123" type="curve"/>
      <point x="98" y="190" type="line"/>
      <point x="43" y="190" type="line"/>
      <point x="43" y="123" type="line"/>
      <point x="43" y="54"/>
      <point x="98" y="-1"/>
      <point x="167" y="-1" type="curve" smooth="yes"/>
      <point x="236" y="-1"/>
      <point x="291" y="54"/>
      <point x="291" y="123" type="curve"/>
      <point x="291" y="382" type="line"/>
      <point x="98" y="382" type="line"/>
      <point x="98" y="585" type="line"/>
      <point x="98" y="623"/>
      <point x="128" y="655"/>
      <point x="167" y="655" type="curve" smooth="yes"/>
      <point x="205" y="655"/>
      <point x="236" y="623"/>
      <point x="236" y="585" type="curve"/>
      <point x="236" y="543" type="line"/>
    </contour>
  </outline>
</glyph>
<glyph name="six" format="1">
  <advance width="349"/>
  <unicode hex="0036"/>
  <outline>
    <contour>
      <point x="302" y="522" type="line"/>
      <point x="302" y="587" type="line"/>
      <point x="302" y="655"/>
      <point x="245" y="712"/>
      <point x="177" y="712" type="curve" smooth="yes"/>
      <point x="107" y="712"/>
      <point x="51" y="655"/>
      <point x="51" y="587" type="curve"/>
      <point x="51" y="124" type="line"/>
      <point x="51" y="55"/>
      <point x="107" y="-1"/>
      <point x="177" y="-1" type="curve" smooth="yes"/>
      <point x="245" y="-1"/>
      <point x="302" y="55"/>
      <point x="302" y="124" type="curve"/>
      <point x="302" y="268" type="line"/>
      <point x="302" y="296"/>
      <point x="292" y="322"/>
      <point x="278" y="343" type="curve"/>
      <point x="272" y="350"/>
      <point x="267" y="356"/>
      <point x="262" y="359" type="curve"/>
      <point x="263" y="359" type="line"/>
      <point x="249" y="372"/>
      <point x="232" y="381"/>
      <point x="212" y="382" type="curve"/>
      <point x="145" y="382" type="line"/>
      <point x="129" y="385"/>
      <point x="114" y="397"/>
      <point x="106" y="414" type="curve"/>
      <point x="106" y="587" type="line"/>
      <point x="106" y="625"/>
      <point x="138" y="657"/>
      <point x="177" y="657" type="curve" smooth="yes"/>
      <point x="215" y="657"/>
      <point x="247" y="625"/>
      <point x="247" y="587" type="curve"/>
      <point x="247" y="522" type="line"/>
    </contour>
    <contour>
      <point x="141" y="328" type="curve"/>
      <point x="209" y="328" type="line"/>
      <point x="225" y="325"/>
      <point x="239" y="313"/>
      <point x="247" y="296" type="curve"/>
      <point x="247" y="124" type="line"/>
      <point x="247" y="86"/>
      <point x="215" y="54"/>
      <point x="177" y="54" type="curve" smooth="yes"/>
      <point x="138" y="54"/>
      <point x="106" y="86"/>
      <point x="106" y="124" type="curve"/>
      <point x="106" y="339" type="line"/>
      <point x="117" y="333"/>
      <point x="129" y="329"/>
    </contour>
  </outline>
</glyph>
<glyph name="seven" format="1">
  <advance width="327"/>
  <unicode hex="0037"/>
  <outline>
    <contour>
      <point x="287" y="683" type="curve" smooth="yes"/>
      <point x="287" y="699"/>
      <point x="276" y="711"/>
      <point x="259" y="711" type="curve"/>
      <point x="131" y="711" type="line"/>
      <point x="66" y="711"/>
      <point x="38" y="682"/>
      <point x="38" y="617" type="curve" smooth="yes"/>
      <point x="38" y="601"/>
      <point x="49" y="590"/>
      <point x="65" y="590" type="curve" smooth="yes"/>
      <point x="81" y="590"/>
      <point x="93" y="601"/>
      <point x="93" y="617" type="curve" smooth="yes"/>
      <point x="93" y="648"/>
      <point x="100" y="655"/>
      <point x="131" y="655" type="curve"/>
      <point x="225" y="655" type="line"/>
      <point x="39" y="41" type="line"/>
      <point x="39" y="40"/>
      <point x="38" y="37"/>
      <point x="38" y="35" type="curve" smooth="yes"/>
      <point x="37" y="26"/>
      <point x="33" y="18"/>
      <point x="44" y="7" type="curve" smooth="yes"/>
      <point x="55" y="-4"/>
      <point x="76" y="0"/>
      <point x="86" y="13" type="curve"/>
      <point x="286" y="674" type="line"/>
      <point x="285" y="673" type="line"/>
      <point x="287" y="677"/>
      <point x="287" y="680"/>
    </contour>
  </outline>
</glyph>
<glyph name="eight" format="1">
  <advance width="276"/>
  <unicode hex="0038"/>
  <outline>
    <contour>
      <point x="260" y="552" type="curve"/>
      <point x="260" y="593" type="line"/>
      <point x="260" y="662"/>
      <point x="204" y="718"/>
      <point x="136" y="718" type="curve" smooth="yes"/>
      <point x="68" y="718"/>
      <point x="13" y="662"/>
      <point x="13" y="593" type="curve"/>
      <point x="13" y="552" type="line"/>
      <point x="13" y="510"/>
      <point x="31" y="474"/>
      <point x="62" y="452" type="curve"/>
      <point x="31" y="430"/>
      <point x="13" y="393"/>
      <point x="13" y="351" type="curve"/>
      <point x="13" y="123" type="line"/>
      <point x="13" y="55"/>
      <point x="68" y="-1"/>
      <point x="136" y="-1" type="curve" smooth="yes"/>
      <point x="204" y="-1"/>
      <point x="260" y="55"/>
      <point x="260" y="123" type="curve"/>
      <point x="260" y="351" type="line"/>
      <point x="260" y="393"/>
      <point x="240" y="430"/>
      <point x="209" y="452" type="curve"/>
      <point x="240" y="474"/>
      <point x="260" y="510"/>
    </contour>
    <contour>
      <point x="210" y="123" type="line"/>
      <point x="210" y="83"/>
      <point x="177" y="49"/>
      <point x="136" y="49" type="curve" smooth="yes"/>
      <point x="95" y="49"/>
      <point x="62" y="83"/>
      <point x="62" y="123" type="curve"/>
      <point x="62" y="351" type="line"/>
      <point x="62" y="392"/>
      <point x="95" y="425"/>
      <point x="136" y="425" type="curve" smooth="yes"/>
      <point x="177" y="425"/>
      <point x="210" y="392"/>
      <point x="210" y="351" type="curve"/>
    </contour>
    <contour>
      <point x="210" y="552" type="line"/>
      <point x="210" y="511"/>
      <point x="177" y="478"/>
      <point x="136" y="478" type="curve" smooth="yes"/>
      <point x="95" y="478"/>
      <point x="62" y="511"/>
      <point x="62" y="552" type="curve"/>
      <point x="62" y="596" type="line"/>
      <point x="63" y="635"/>
      <point x="96" y="667"/>
      <point x="136" y="667" type="curve" smooth="yes"/>
      <point x="177" y="667"/>
      <point x="210" y="634"/>
      <point x="210" y="593" type="curve"/>
    </contour>
    <contour>
      <point x="62" y="606" type="line"/>
      <point x="49" y="606" type="line"/>
      <point x="49" y="593" type="line"/>
      <point x="62" y="593" type="line"/>
      <point x="62" y="596" type="line"/>
    </contour>
  </outline>
</glyph>
<glyph name="nine" format="1">
  <advance width="350"/>
  <unicode hex="0039"/>
  <outline>
    <contour>
      <point x="289" y="124" type="curve"/>
      <point x="289" y="587" type="line"/>
      <point x="289" y="655"/>
      <point x="232" y="712"/>
      <point x="164" y="712" type="curve" smooth="yes"/>
      <point x="95" y="712"/>
      <point x="39" y="655"/>
      <point x="39" y="587" type="curve"/>
      <point x="39" y="443" type="line"/>
      <point x="39" y="416"/>
      <point x="49" y="388"/>
      <point x="63" y="368" type="curve"/>
      <point x="70" y="359" type="line"/>
      <point x="72" y="356"/>
      <point x="75" y="354"/>
      <point x="78" y="351" type="curve" smooth="yes"/>
      <point x="93" y="340"/>
      <point x="111" y="330"/>
      <point x="128" y="329" type="curve"/>
      <point x="196" y="329" type="line"/>
      <point x="211" y="326"/>
      <point x="226" y="314"/>
      <point x="233" y="297" type="curve"/>
      <point x="233" y="124" type="line"/>
      <point x="233" y="86"/>
      <point x="202" y="54"/>
      <point x="164" y="54" type="curve" smooth="yes"/>
      <point x="125" y="54"/>
      <point x="94" y="86"/>
      <point x="94" y="124" type="curve"/>
      <point x="94" y="189" type="line"/>
      <point x="39" y="189" type="line"/>
      <point x="39" y="124" type="line"/>
      <point x="39" y="55"/>
      <point x="95" y="-1"/>
      <point x="164" y="-1" type="curve" smooth="yes"/>
      <point x="232" y="-1"/>
      <point x="289" y="55"/>
    </contour>
    <contour>
      <point x="233" y="372" type="line"/>
      <point x="222" y="380"/>
      <point x="213" y="382"/>
      <point x="199" y="383" type="curve"/>
      <point x="131" y="383" type="line"/>
      <point x="115" y="386"/>
      <point x="101" y="398"/>
      <point x="94" y="415" type="curve"/>
      <point x="94" y="587" type="line"/>
      <point x="94" y="625"/>
      <point x="125" y="657"/>
      <point x="164" y="657" type="curve" smooth="yes"/>
      <point x="202" y="657"/>
      <point x="233" y="625"/>
      <point x="233" y="587" type="curve"/>
    </contour>
  </outline>
</glyph>
<glyph name="colon" format="1">
  <advance width="150"/>
  <unicode hex="003A"/>
  <outline>
    <contour>
      <point x="59" y="451" type="curve"/>
      <point x="89" y="451" type="line"/>
      <point x="115" y="451"/>
      <point x="136" y="472"/>
      <point x="136" y="500" type="curve" smooth="yes"/>
      <point x="136" y="526"/>
      <point x="115" y="547"/>
      <point x="89" y="547" type="curve"/>
      <point x="59" y="547" type="line"/>
      <point x="32" y="547"/>
      <point x="11" y="526"/>
      <point x="11" y="500" type="curve" smooth="yes"/>
      <point x="11" y="472"/>
      <point x="32" y="451"/>
    </contour>
    <contour>
      <point x="89" y="315" type="curve"/>
      <point x="59" y="315" type="line"/>
      <point x="32" y="315"/>
      <point x="11" y="293"/>
      <point x="11" y="267" type="curve" smooth="yes"/>
      <point x="11" y="241"/>
      <point x="32" y="219"/>
      <point x="59" y="219" type="curve"/>
      <point x="89" y="219" type="line"/>
      <point x="115" y="219"/>
      <point x="136" y="241"/>
      <point x="136" y="267" type="curve" smooth="yes"/>
      <point x="136" y="293"/>
      <point x="115" y="315"/>
    </contour>
  </outline>
</glyph>
<glyph name="semicolon" format="1">
  <advance width="200"/>
  <unicode hex="003B"/>
  <outline>
    <contour>
      <point x="89" y="381" type="curve"/>
      <point x="118" y="381" type="line"/>
      <point x="144" y="381"/>
      <point x="168" y="403"/>
      <point x="168" y="432" type="curve" smooth="yes"/>
      <point x="168" y="459"/>
      <point x="144" y="482"/>
      <point x="118" y="482" type="curve"/>
      <point x="89" y="482" type="line"/>
      <point x="60" y="482"/>
      <point x="38" y="459"/>
      <point x="38" y="432" type="curve" smooth="yes"/>
      <point x="38" y="403"/>
      <point x="60" y="381"/>
    </contour>
    <contour>
      <point x="118" y="251" type="curve"/>
      <point x="89" y="251" type="line"/>
      <point x="60" y="251"/>
      <point x="38" y="228"/>
      <point x="38" y="201" type="curve" smooth="yes"/>
      <point x="38" y="180"/>
      <point x="52" y="161"/>
      <point x="72" y="154" type="curve"/>
      <point x="58" y="131" type="line"/>
      <point x="49" y="118"/>
      <point x="53" y="99"/>
      <point x="66" y="91" type="curve" smooth="yes"/>
      <point x="71" y="87"/>
      <point x="76" y="86"/>
      <point x="82" y="86" type="curve" smooth="yes"/>
      <point x="91" y="86"/>
      <point x="101" y="91"/>
      <point x="106" y="100" type="curve"/>
      <point x="105" y="99" type="line"/>
      <point x="145" y="160" type="line"/>
      <point x="159" y="169"/>
      <point x="168" y="184"/>
      <point x="168" y="201" type="curve" smooth="yes"/>
      <point x="168" y="228"/>
      <point x="144" y="251"/>
    </contour>
  </outline>
</glyph>
<glyph name="less" format="1">
  <advance width="426"/>
  <unicode hex="003C"/>
  <outline>
    <contour>
      <point x="358" y="1" type="curve" smooth="yes"/>
      <point x="365" y="1"/>
      <point x="371" y="2"/>
      <point x="377" y="7" type="curve" smooth="yes"/>
      <point x="388" y="17"/>
      <point x="389" y="37"/>
      <point x="381" y="48" type="curve"/>
      <point x="106" y="362" type="line"/>
      <point x="381" y="676" type="line"/>
      <point x="389" y="688"/>
      <point x="388" y="707"/>
      <point x="378" y="718" type="curve" smooth="yes"/>
      <point x="366" y="728"/>
      <point x="348" y="726"/>
      <point x="337" y="715" type="curve"/>
      <point x="29" y="362" type="line"/>
      <point x="337" y="10" type="line"/>
      <point x="337" y="11" type="line"/>
      <point x="342" y="4"/>
      <point x="351" y="1"/>
    </contour>
  </outline>
</glyph>
<glyph name="equal" format="1">
  <advance width="420"/>
  <unicode hex="003D"/>
  <outline>
    <contour>
      <point x="17" y="389" type="curve" smooth="yes"/>
      <point x="17" y="378"/>
      <point x="24" y="368"/>
      <point x="33" y="368" type="curve"/>
      <point x="383" y="368" type="line"/>
      <point x="392" y="368"/>
      <point x="399" y="378"/>
      <point x="399" y="389" type="curve" smooth="yes"/>
      <point x="399" y="400"/>
      <point x="392" y="410"/>
      <point x="383" y="410" type="curve"/>
      <point x="33" y="410" type="line"/>
      <point x="24" y="410"/>
      <point x="17" y="400"/>
    </contour>
    <contour>
      <point x="15" y="284" type="curve" smooth="yes"/>
      <point x="15" y="273"/>
      <point x="22" y="263"/>
      <point x="31" y="263" type="curve"/>
      <point x="381" y="263" type="line"/>
      <point x="390" y="263"/>
      <point x="397" y="273"/>
      <point x="397" y="284" type="curve" smooth="yes"/>
      <point x="397" y="293"/>
      <point x="390" y="305"/>
      <point x="381" y="305" type="curve"/>
      <point x="31" y="305" type="line"/>
      <point x="22" y="305"/>
      <point x="15" y="293"/>
    </contour>
  </outline>
</glyph>
<glyph name="greater" format="1">
  <advance width="424"/>
  <unicode hex="003E"/>
  <outline>
    <contour>
      <point x="61" y="-1" type="curve" smooth="yes"/>
      <point x="55" y="-1"/>
      <point x="48" y="1"/>
      <point x="43" y="5" type="curve" smooth="yes"/>
      <point x="32" y="14"/>
      <point x="31" y="35"/>
      <point x="40" y="46" type="curve"/>
      <point x="126" y="146"/>
      <point x="228" y="262"/>
      <point x="316" y="363" type="curve"/>
      <point x="224" y="470"/>
      <point x="132" y="573"/>
      <point x="40" y="680" type="curve"/>
      <point x="32" y="692"/>
      <point x="31" y="710"/>
      <point x="43" y="721" type="curve" smooth="yes"/>
      <point x="55" y="731"/>
      <point x="73" y="730"/>
      <point x="83" y="719" type="curve"/>
      <point x="393" y="363" type="line"/>
      <point x="82" y="8" type="line"/>
      <point x="76" y="2"/>
      <point x="69" y="-1"/>
    </contour>
  </outline>
</glyph>
<glyph name="question" format="1">
  <advance width="260"/>
  <unicode hex="003F"/>
  <outline>
    <contour>
      <point x="260" y="445" type="curve"/>
      <point x="260" y="602" type="line"/>
      <point x="260" y="671"/>
      <point x="203" y="728"/>
      <point x="134" y="728" type="curve" smooth="yes"/>
      <point x="65" y="728"/>
      <point x="9" y="671"/>
      <point x="9" y="602" type="curve"/>
      <point x="9" y="539" type="line"/>
      <point x="59" y="539" type="line"/>
      <point x="59" y="602" type="line"/>
      <point x="59" y="643"/>
      <point x="93" y="677"/>
      <point x="134" y="677" type="curve" smooth="yes"/>
      <point x="175" y="677"/>
      <point x="209" y="643"/>
      <point x="209" y="602" type="curve"/>
      <point x="209" y="426" type="line"/>
      <point x="201" y="406"/>
      <point x="185" y="392"/>
      <point x="168" y="390" type="curve"/>
      <point x="107" y="390" type="line"/>
      <point x="105" y="390"/>
      <point x="104" y="389"/>
      <point x="103" y="389" type="curve"/>
      <point x="98" y="389" type="line"/>
      <point x="80" y="387"/>
      <point x="62" y="378"/>
      <point x="48" y="365" type="curve"/>
      <point x="49" y="365" type="line"/>
      <point x="43" y="360"/>
      <point x="37" y="355"/>
      <point x="33" y="350" type="curve" smooth="yes"/>
      <point x="18" y="329"/>
      <point x="9" y="302"/>
      <point x="9" y="274" type="curve"/>
      <point x="9" y="97" type="line"/>
      <point x="59" y="97" type="line"/>
      <point x="59" y="304" type="line"/>
      <point x="67" y="320"/>
      <point x="83" y="335"/>
      <point x="100" y="338" type="curve"/>
      <point x="162" y="338" type="line"/>
      <point x="164" y="338"/>
      <point x="169" y="338"/>
      <point x="172" y="339" type="curve"/>
      <point x="190" y="341"/>
      <point x="206" y="349"/>
      <point x="221" y="361" type="curve" smooth="yes"/>
      <point x="226" y="366"/>
      <point x="232" y="372"/>
      <point x="236" y="378" type="curve" smooth="yes"/>
      <point x="249" y="396"/>
      <point x="258" y="421"/>
    </contour>
    <contour>
      <point x="34" y="65" type="curve" smooth="yes"/>
      <point x="19" y="65"/>
      <point x="9" y="54"/>
      <point x="9" y="40" type="curve"/>
      <point x="9" y="26" type="line"/>
      <point x="9" y="12"/>
      <point x="19" y="1"/>
      <point x="34" y="1" type="curve" smooth="yes"/>
      <point x="48" y="1"/>
      <point x="59" y="12"/>
      <point x="59" y="26" type="curve"/>
      <point x="59" y="40" type="line"/>
      <point x="59" y="54"/>
      <point x="48" y="65"/>
    </contour>
  </outline>
</glyph>
<glyph name="at" format="1">
  <advance width="283"/>
  <unicode hex="0040"/>
  <outline>
    <contour>
      <point x="139" y="730" type="curve" smooth="yes"/>
      <point x="69" y="730"/>
      <point x="13" y="673"/>
      <point x="13" y="603" type="curve"/>
      <point x="13" y="433" type="line"/>
      <point x="13" y="419"/>
      <point x="24" y="407"/>
      <point x="38" y="407" type="curve" smooth="yes"/>
      <point x="52" y="407"/>
      <point x="63" y="419"/>
      <point x="63" y="433" type="curve"/>
      <point x="63" y="603" type="line"/>
      <point x="63" y="645"/>
      <point x="97" y="679"/>
      <point x="139" y="679" type="curve" smooth="yes"/>
      <point x="181" y="679"/>
      <point x="215" y="645"/>
      <point x="215" y="603" type="curve"/>
      <point x="215" y="124" type="line"/>
      <point x="215" y="82"/>
      <point x="181" y="48"/>
      <point x="139" y="48" type="curve" smooth="yes"/>
      <point x="97" y="48"/>
      <point x="63" y="82"/>
      <point x="63" y="124" type="curve"/>
      <point x="63" y="198" type="line"/>
      <point x="71" y="166"/>
      <point x="99" y="143"/>
      <point x="132" y="143" type="curve" smooth="yes"/>
      <point x="172" y="143"/>
      <point x="204" y="175"/>
      <point x="204" y="215" type="curve"/>
      <point x="204" y="299" type="line"/>
      <point x="203" y="308"/>
      <point x="202" y="313"/>
      <point x="200" y="319" type="curve"/>
      <point x="200" y="318" type="line"/>
      <point x="190" y="363"/>
      <point x="165" y="391"/>
      <point x="121" y="391" type="curve"/>
      <point x="38" y="391" type="line"/>
      <point x="24" y="391"/>
      <point x="13" y="380"/>
      <point x="13" y="365" type="curve"/>
      <point x="13" y="124" type="line"/>
      <point x="13" y="54"/>
      <point x="69" y="-3"/>
      <point x="139" y="-3" type="curve" smooth="yes"/>
      <point x="209" y="-3"/>
      <point x="266" y="54"/>
      <point x="266" y="124" type="curve"/>
      <point x="266" y="603" type="line"/>
      <point x="266" y="673"/>
      <point x="209" y="730"/>
    </contour>
    <contour>
      <point x="63" y="340" type="line"/>
      <point x="75" y="340" type="line"/>
      <point x="70" y="332"/>
      <point x="65" y="323"/>
      <point x="63" y="314" type="curve"/>
    </contour>
    <contour>
      <point x="132" y="184" type="curve" smooth="yes"/>
      <point x="116" y="184"/>
      <point x="101" y="198"/>
      <point x="101" y="215" type="curve"/>
      <point x="101" y="298" type="line"/>
      <point x="101" y="316"/>
      <point x="116" y="329"/>
      <point x="132" y="329" type="curve" smooth="yes"/>
      <point x="150" y="329"/>
      <point x="164" y="316"/>
      <point x="164" y="298" type="curve"/>
      <point x="164" y="215" type="line"/>
      <point x="164" y="198"/>
      <point x="150" y="184"/>
    </contour>
  </outline>
</glyph>
<glyph name="A" format="1">
  <advance width="279"/>
  <unicode hex="0041"/>
  <outline>
    <contour>
      <point x="138" y="733" type="curve" smooth="yes"/>
      <point x="68" y="733"/>
      <point x="12" y="676"/>
      <point x="12" y="606" type="curve"/>
      <point x="12" y="26" type="line"/>
      <point x="12" y="12"/>
      <point x="23" y="1"/>
      <point x="38" y="1" type="curve" smooth="yes"/>
      <point x="51" y="1"/>
      <point x="62" y="12"/>
      <point x="62" y="26" type="curve"/>
      <point x="62" y="342" type="line"/>
      <point x="148" y="342" type="line"/>
      <point x="172" y="342"/>
      <point x="195" y="349"/>
      <point x="213" y="362" type="curve"/>
      <point x="213" y="26" type="line"/>
      <point x="213" y="12"/>
      <point x="224" y="1"/>
      <point x="238" y="1" type="curve" smooth="yes"/>
      <point x="253" y="1"/>
      <point x="263" y="12"/>
      <point x="263" y="26" type="curve"/>
      <point x="263" y="606" type="line"/>
      <point x="263" y="676"/>
      <point x="207" y="733"/>
    </contour>
    <contour>
      <point x="213" y="458" type="line"/>
      <point x="213" y="422"/>
      <point x="184" y="393"/>
      <point x="148" y="393" type="curve"/>
      <point x="62" y="393" type="line"/>
      <point x="62" y="606" type="line"/>
      <point x="62" y="648"/>
      <point x="96" y="682"/>
      <point x="138" y="682" type="curve" smooth="yes"/>
      <point x="179" y="682"/>
      <point x="213" y="648"/>
      <point x="213" y="606" type="curve"/>
    </contour>
  </outline>
</glyph>
<glyph name="B" format="1">
  <advance width="277"/>
  <unicode hex="0042"/>
  <outline>
    <contour>
      <point x="224" y="365" type="line"/>
      <point x="220" y="368" type="line"/>
      <point x="224" y="371" type="line"/>
      <point x="240" y="385"/>
      <point x="253" y="405"/>
      <point x="258" y="424" type="curve" smooth="yes"/>
      <point x="261" y="433"/>
      <point x="263" y="442"/>
      <point x="263" y="453" type="curve"/>
      <point x="263" y="606" type="line"/>
      <point x="263" y="675"/>
      <point x="207" y="732"/>
      <point x="138" y="732" type="curve" smooth="yes"/>
      <point x="68" y="732"/>
      <point x="12" y="676"/>
      <point x="12" y="607" type="curve"/>
      <point x="12" y="26" type="line"/>
      <point x="12" y="12"/>
      <point x="23" y="0"/>
      <point x="37" y="0" type="curve" smooth="yes"/>
      <point x="51" y="0"/>
      <point x="62" y="12"/>
      <point x="62" y="26" type="curve"/>
      <point x="83" y="10"/>
      <point x="109" y="0"/>
      <point x="138" y="0" type="curve" smooth="yes"/>
      <point x="207" y="0"/>
      <point x="263" y="57"/>
      <point x="263" y="127" type="curve"/>
      <point x="263" y="277" type="line"/>
      <point x="263" y="312"/>
      <point x="249" y="342"/>
      <point x="225" y="364" type="curve"/>
    </contour>
    <contour>
      <point x="138" y="681" type="curve" smooth="yes"/>
      <point x="179" y="681"/>
      <point x="213" y="648"/>
      <point x="213" y="606" type="curve"/>
      <point x="213" y="459" type="line"/>
      <point x="213" y="423"/>
      <point x="186" y="395"/>
      <point x="152" y="393" type="curve"/>
      <point x="62" y="393" type="line"/>
      <point x="62" y="606" type="line"/>
      <point x="62" y="648"/>
      <point x="96" y="681"/>
    </contour>
    <contour>
      <point x="213" y="127" type="line"/>
      <point x="213" y="85"/>
      <point x="179" y="51"/>
      <point x="138" y="51" type="curve" smooth="yes"/>
      <point x="96" y="51"/>
      <point x="62" y="85"/>
      <point x="62" y="127" type="curve"/>
      <point x="62" y="342" type="line"/>
      <point x="151" y="342" type="line"/>
      <point x="186" y="340"/>
      <point x="213" y="311"/>
      <point x="213" y="277" type="curve"/>
    </contour>
  </outline>
</glyph>
<glyph name="C" format="1">
  <advance width="350"/>
  <unicode hex="0043"/>
  <outline>
    <contour>
      <point x="304" y="537" type="line"/>
      <point x="304" y="605" type="line"/>
      <point x="304" y="675"/>
      <point x="246" y="733"/>
      <point x="176" y="733" type="curve" smooth="yes"/>
      <point x="106" y="733"/>
      <point x="47" y="675"/>
      <point x="47" y="605" type="curve"/>
      <point x="47" y="128" type="line"/>
      <point x="47" y="58"/>
      <point x="106" y="0"/>
      <point x="176" y="0" type="curve" smooth="yes"/>
      <point x="246" y="0"/>
      <point x="304" y="58"/>
      <point x="304" y="128" type="curve"/>
      <point x="304" y="172" type="line"/>
      <point x="248" y="172" type="line"/>
      <point x="248" y="128" type="line"/>
      <point x="248" y="89"/>
      <point x="216" y="56"/>
      <point x="176" y="56" type="curve" smooth="yes"/>
      <point x="136" y="56"/>
      <point x="104" y="89"/>
      <point x="104" y="128" type="curve"/>
      <point x="104" y="605" type="line"/>
      <point x="104" y="644"/>
      <point x="136" y="677"/>
      <point x="176" y="677" type="curve" smooth="yes"/>
      <point x="216" y="677"/>
      <point x="248" y="644"/>
      <point x="248" y="605" type="curve"/>
      <point x="248" y="537" type="line"/>
    </contour>
  </outline>
</glyph>
<glyph name="D" format="1">
  <advance width="281"/>
  <unicode hex="0044"/>
  <outline>
    <contour>
      <point x="140" y="733" type="curve" smooth="yes"/>
      <point x="110" y="733"/>
      <point x="85" y="723"/>
      <point x="64" y="707" type="curve"/>
      <point x="63" y="721"/>
      <point x="51" y="732"/>
      <point x="39" y="732" type="curve" smooth="yes"/>
      <point x="25" y="732"/>
      <point x="13" y="721"/>
      <point x="13" y="707" type="curve"/>
      <point x="13" y="26" type="line"/>
      <point x="13" y="12"/>
      <point x="25" y="1"/>
      <point x="39" y="1" type="curve" smooth="yes"/>
      <point x="51" y="1"/>
      <point x="63" y="11"/>
      <point x="64" y="25" type="curve"/>
      <point x="85" y="9"/>
      <point x="110" y="0"/>
      <point x="140" y="0" type="curve" smooth="yes"/>
      <point x="209" y="0"/>
      <point x="266" y="57"/>
      <point x="266" y="127" type="curve"/>
      <point x="266" y="606" type="line"/>
      <point x="266" y="676"/>
      <point x="209" y="733"/>
    </contour>
    <contour>
      <point x="215" y="127" type="line"/>
      <point x="215" y="85"/>
      <point x="181" y="51"/>
      <point x="140" y="51" type="curve" smooth="yes"/>
      <point x="98" y="51"/>
      <point x="64" y="85"/>
      <point x="64" y="127" type="curve"/>
      <point x="64" y="606" type="line"/>
      <point x="64" y="648"/>
      <point x="98" y="682"/>
      <point x="140" y="682" type="curve" smooth="yes"/>
      <point x="181" y="682"/>
      <point x="215" y="648"/>
      <point x="215" y="606" type="curve"/>
    </contour>
  </outline>
</glyph>
<glyph name="E" format="1">
  <advance width="277"/>
  <unicode hex="0045"/>
  <outline>
    <contour>
      <point x="265" y="542" type="line"/>
      <point x="265" y="606" type="line"/>
      <point x="265" y="676"/>
      <point x="208" y="733"/>
      <point x="139" y="733" type="curve" smooth="yes"/>
      <point x="69" y="733"/>
      <point x="12" y="676"/>
      <point x="12" y="606" type="curve"/>
      <point x="12" y="127" type="line"/>
      <point x="12" y="57"/>
      <point x="69" y="0"/>
      <point x="139" y="0" type="curve" smooth="yes"/>
      <point x="208" y="0"/>
      <point x="265" y="57"/>
      <point x="265" y="127" type="curve"/>
      <point x="265" y="168" type="line"/>
      <point x="214" y="168" type="line"/>
      <point x="214" y="127" type="line"/>
      <point x="214" y="85"/>
      <point x="180" y="51"/>
      <point x="139" y="51" type="curve" smooth="yes"/>
      <point x="97" y="51"/>
      <point x="63" y="85"/>
      <point x="63" y="127" type="curve"/>
      <point x="63" y="341" type="line"/>
      <point x="149" y="341" type="line"/>
      <point x="213" y="341"/>
      <point x="265" y="394"/>
      <point x="265" y="458" type="curve" smooth="yes"/>
      <point x="265" y="473"/>
      <point x="253" y="484"/>
      <point x="240" y="484" type="curve" smooth="yes"/>
      <point x="225" y="484"/>
      <point x="214" y="473"/>
      <point x="214" y="458" type="curve" smooth="yes"/>
      <point x="214" y="422"/>
      <point x="185" y="393"/>
      <point x="149" y="393" type="curve"/>
      <point x="63" y="393" type="line"/>
      <point x="63" y="606" type="line"/>
      <point x="63" y="648"/>
      <point x="97" y="682"/>
      <point x="139" y="682" type="curve" smooth="yes"/>
      <point x="180" y="682"/>
      <point x="214" y="648"/>
      <point x="214" y="606" type="curve"/>
      <point x="214" y="542" type="line"/>
    </contour>
  </outline>
</glyph>
<glyph name="F" format="1">
  <advance width="264"/>
  <unicode hex="0046"/>
  <outline>
    <contour>
      <point x="265" y="541" type="line"/>
      <point x="265" y="605" type="line"/>
      <point x="265" y="675"/>
      <point x="208" y="732"/>
      <point x="139" y="732" type="curve" smooth="yes"/>
      <point x="69" y="732"/>
      <point x="13" y="676"/>
      <point x="12" y="606" type="curve"/>
      <point x="12" y="24" type="line"/>
      <point x="12" y="10"/>
      <point x="24" y="-2"/>
      <point x="38" y="-2" type="curve" smooth="yes"/>
      <point x="52" y="-2"/>
      <point x="63" y="10"/>
      <point x="63" y="24" type="curve"/>
      <point x="63" y="341" type="line"/>
      <point x="149" y="341" type="line"/>
      <point x="213" y="341"/>
      <point x="265" y="393"/>
      <point x="265" y="457" type="curve" smooth="yes"/>
      <point x="265" y="472"/>
      <point x="253" y="483"/>
      <point x="240" y="483" type="curve" smooth="yes"/>
      <point x="225" y="483"/>
      <point x="214" y="472"/>
      <point x="214" y="457" type="curve" smooth="yes"/>
      <point x="214" y="422"/>
      <point x="185" y="393"/>
      <point x="149" y="393" type="curve"/>
      <point x="63" y="393" type="line"/>
      <point x="63" y="605" type="line"/>
      <point x="63" y="647"/>
      <point x="97" y="681"/>
      <point x="139" y="681" type="curve" smooth="yes"/>
      <point x="180" y="681"/>
      <point x="214" y="647"/>
      <point x="214" y="605" type="curve"/>
      <point x="214" y="541" type="line"/>
    </contour>
  </outline>
</glyph>
<glyph name="G" format="1">
  <advance width="359"/>
  <unicode hex="0047"/>
  <outline>
    <contour>
      <point x="314" y="539" type="line"/>
      <point x="314" y="605" type="line"/>
      <point x="314" y="676"/>
      <point x="256" y="734"/>
      <point x="186" y="734" type="curve" smooth="yes"/>
      <point x="115" y="734"/>
      <point x="57" y="676"/>
      <point x="57" y="605" type="curve"/>
      <point x="57" y="129" type="line"/>
      <point x="57" y="59"/>
      <point x="115" y="1"/>
      <point x="186" y="1" type="curve" smooth="yes"/>
      <point x="256" y="1"/>
      <point x="314" y="59"/>
      <point x="314" y="129" type="curve"/>
      <point x="314" y="369" type="line"/>
      <point x="314" y="384"/>
      <point x="300" y="397"/>
      <point x="286" y="397" type="curve"/>
      <point x="230" y="397" type="line"/>
      <point x="163" y="397"/>
      <point x="138" y="315"/>
      <point x="138" y="252" type="curve" smooth="yes"/>
      <point x="138" y="236"/>
      <point x="151" y="224"/>
      <point x="166" y="224" type="curve" smooth="yes"/>
      <point x="183" y="224"/>
      <point x="194" y="236"/>
      <point x="194" y="252" type="curve" smooth="yes"/>
      <point x="194" y="288"/>
      <point x="199" y="341"/>
      <point x="230" y="341" type="curve"/>
      <point x="258" y="341" type="line"/>
      <point x="258" y="129" type="line"/>
      <point x="258" y="90"/>
      <point x="225" y="57"/>
      <point x="186" y="57" type="curve" smooth="yes"/>
      <point x="146" y="57"/>
      <point x="113" y="90"/>
      <point x="113" y="129" type="curve"/>
      <point x="113" y="605" type="line"/>
      <point x="113" y="645"/>
      <point x="146" y="678"/>
      <point x="186" y="678" type="curve" smooth="yes"/>
      <point x="225" y="678"/>
      <point x="258" y="645"/>
      <point x="258" y="605" type="curve"/>
      <point x="258" y="539" type="line"/>
    </contour>
  </outline>
</glyph>
<glyph name="H" format="1">
  <advance width="380"/>
  <unicode hex="0048"/>
  <outline>
    <contour>
      <point x="286" y="733" type="curve" smooth="yes"/>
      <point x="269" y="733"/>
      <point x="258" y="719"/>
      <point x="258" y="705" type="curve"/>
      <point x="258" y="458" type="line"/>
      <point x="258" y="423"/>
      <point x="229" y="395"/>
      <point x="195" y="395" type="curve"/>
      <point x="113" y="395" type="line"/>
      <point x="113" y="704" type="line"/>
      <point x="113" y="720"/>
      <point x="100" y="732"/>
      <point x="85" y="732" type="curve" smooth="yes"/>
      <point x="71" y="732"/>
      <point x="57" y="720"/>
      <point x="57" y="704" type="curve"/>
      <point x="57" y="28" type="line"/>
      <point x="57" y="14"/>
      <point x="71" y="0"/>
      <point x="85" y="0" type="curve" smooth="yes"/>
      <point x="100" y="0"/>
      <point x="113" y="14"/>
      <point x="113" y="28" type="curve"/>
      <point x="113" y="339" type="line"/>
      <point x="195" y="339" type="line"/>
      <point x="220" y="339"/>
      <point x="239" y="345"/>
      <point x="258" y="356" type="curve"/>
      <point x="258" y="29" type="line"/>
      <point x="258" y="15"/>
      <point x="269" y="1"/>
      <point x="286" y="1" type="curve" smooth="yes"/>
      <point x="300" y="1"/>
      <point x="314" y="15"/>
      <point x="314" y="29" type="curve"/>
      <point x="314" y="705" type="line"/>
      <point x="314" y="719"/>
      <point x="300" y="733"/>
    </contour>
  </outline>
</glyph>
<glyph name="I" format="1">
  <advance width="149"/>
  <unicode hex="0049"/>
  <outline>
    <contour>
      <point x="146" y="67" type="curve" smooth="yes"/>
      <point x="146" y="80"/>
      <point x="135" y="92"/>
      <point x="120" y="92" type="curve" smooth="yes"/>
      <point x="111" y="92"/>
      <point x="103" y="86"/>
      <point x="99" y="79" type="curve"/>
      <point x="99" y="681" type="line"/>
      <point x="117" y="681" type="line"/>
      <point x="132" y="681"/>
      <point x="143" y="693"/>
      <point x="143" y="707" type="curve" smooth="yes"/>
      <point x="143" y="721"/>
      <point x="132" y="732"/>
      <point x="117" y="732" type="curve"/>
      <point x="111" y="732" type="line"/>
      <point x="47" y="732"/>
      <point x="3" y="732"/>
      <point x="3" y="665" type="curve" smooth="yes"/>
      <point x="3" y="651"/>
      <point x="13" y="640"/>
      <point x="27" y="640" type="curve" smooth="yes"/>
      <point x="36" y="640"/>
      <point x="44" y="644"/>
      <point x="49" y="651" type="curve"/>
      <point x="49" y="50" type="line"/>
      <point x="43" y="51"/>
      <point x="44" y="50"/>
      <point x="37" y="50" type="curve"/>
      <point x="31" y="50" type="line"/>
      <point x="16" y="50"/>
      <point x="6" y="39"/>
      <point x="6" y="25" type="curve" smooth="yes"/>
      <point x="6" y="11"/>
      <point x="16" y="0"/>
      <point x="31" y="0" type="curve"/>
      <point x="66" y="0" type="line"/>
      <point x="68" y="-1"/>
      <point x="71" y="-1"/>
      <point x="74" y="-1" type="curve" smooth="yes"/>
      <point x="76" y="-1"/>
      <point x="81" y="0"/>
      <point x="84" y="1" type="curve"/>
      <point x="122" y="4"/>
      <point x="146" y="18"/>
    </contour>
  </outline>
</glyph>
<glyph name="J" format="1">
  <advance width="260"/>
  <unicode hex="004A"/>
  <outline>
    <contour>
      <point x="198" y="734" type="curve"/>
      <point x="192" y="734" type="line"/>
      <point x="126" y="734"/>
      <point x="81" y="734"/>
      <point x="81" y="664" type="curve" smooth="yes"/>
      <point x="81" y="648"/>
      <point x="94" y="637"/>
      <point x="109" y="637" type="curve" smooth="yes"/>
      <point x="115" y="637"/>
      <point x="119" y="638"/>
      <point x="124" y="641" type="curve"/>
      <point x="124" y="129" type="line"/>
      <point x="124" y="90"/>
      <point x="92" y="57"/>
      <point x="52" y="57" type="curve" smooth="yes"/>
      <point x="38" y="57"/>
      <point x="24" y="44"/>
      <point x="24" y="29" type="curve" smooth="yes"/>
      <point x="24" y="13"/>
      <point x="38" y="1"/>
      <point x="52" y="1" type="curve" smooth="yes"/>
      <point x="122" y="1"/>
      <point x="181" y="59"/>
      <point x="181" y="129" type="curve"/>
      <point x="181" y="678" type="line"/>
      <point x="187" y="677"/>
      <point x="185" y="678"/>
      <point x="192" y="678" type="curve"/>
      <point x="198" y="678" type="line"/>
      <point x="213" y="678"/>
      <point x="227" y="689"/>
      <point x="227" y="706" type="curve" smooth="yes"/>
      <point x="227" y="720"/>
      <point x="213" y="734"/>
    </contour>
  </outline>
</glyph>
<glyph name="K" format="1">
  <advance width="395"/>
  <unicode hex="004B"/>
  <outline>
    <contour>
      <point x="343" y="722" type="line"/>
      <point x="328" y="728"/>
      <point x="312" y="731"/>
      <point x="299" y="731" type="curve" smooth="yes"/>
      <point x="248" y="731"/>
      <point x="199" y="698"/>
      <point x="179" y="649" type="curve"/>
      <point x="156" y="599"/>
      <point x="131" y="550"/>
      <point x="108" y="499" type="curve"/>
      <point x="108" y="603" type="line"/>
      <point x="108" y="642"/>
      <point x="107" y="675"/>
      <point x="143" y="675" type="curve" smooth="yes"/>
      <point x="159" y="675"/>
      <point x="170" y="688"/>
      <point x="170" y="703" type="curve" smooth="yes"/>
      <point x="170" y="719"/>
      <point x="159" y="731"/>
      <point x="143" y="731" type="curve" smooth="yes"/>
      <point x="70" y="731"/>
      <point x="52" y="673"/>
      <point x="52" y="603" type="curve"/>
      <point x="52" y="28" type="line"/>
      <point x="52" y="12"/>
      <point x="64" y="0"/>
      <point x="81" y="0" type="curve" smooth="yes"/>
      <point x="96" y="0"/>
      <point x="108" y="12"/>
      <point x="108" y="28" type="curve"/>
      <point x="108" y="275" type="line"/>
      <point x="140" y="199"/>
      <point x="160" y="155"/>
      <point x="191" y="81" type="curve" smooth="yes"/>
      <point x="211" y="33"/>
      <point x="247" y="0"/>
      <point x="291" y="0" type="curve" smooth="yes"/>
      <point x="305" y="0"/>
      <point x="319" y="3"/>
      <point x="335" y="10" type="curve" smooth="yes"/>
      <point x="349" y="16"/>
      <point x="356" y="32"/>
      <point x="350" y="47" type="curve" smooth="yes"/>
      <point x="344" y="61"/>
      <point x="329" y="67"/>
      <point x="313" y="61" type="curve" smooth="yes"/>
      <point x="305" y="58"/>
      <point x="297" y="56"/>
      <point x="290" y="56" type="curve" smooth="yes"/>
      <point x="269" y="56"/>
      <point x="254" y="75"/>
      <point x="242" y="102" type="curve"/>
      <point x="122" y="388" type="line"/>
      <point x="122" y="387" type="line"/>
      <point x="119" y="392" type="line"/>
      <point x="122" y="394"/>
      <point x="121" y="393"/>
      <point x="122" y="396" type="curve"/>
      <point x="230" y="625" type="line"/>
      <point x="241" y="655"/>
      <point x="270" y="675"/>
      <point x="300" y="675" type="curve" smooth="yes"/>
      <point x="308" y="675"/>
      <point x="316" y="674"/>
      <point x="324" y="671" type="curve" smooth="yes"/>
      <point x="338" y="665"/>
      <point x="354" y="671"/>
      <point x="360" y="686" type="curve" smooth="yes"/>
      <point x="366" y="700"/>
      <point x="360" y="716"/>
      <point x="344" y="722" type="curve"/>
    </contour>
  </outline>
</glyph>
<glyph name="L" format="1">
  <advance width="320"/>
  <unicode hex="004C"/>
  <outline>
    <contour>
      <point x="253" y="56" type="curve"/>
      <point x="245" y="56" type="line"/>
      <point x="201" y="56"/>
      <point x="124" y="56"/>
      <point x="124" y="87" type="curve"/>
      <point x="124" y="705" type="line"/>
      <point x="124" y="719"/>
      <point x="112" y="733"/>
      <point x="96" y="733" type="curve" smooth="yes"/>
      <point x="81" y="733"/>
      <point x="68" y="719"/>
      <point x="68" y="705" type="curve"/>
      <point x="68" y="87" type="line"/>
      <point x="68" y="8"/>
      <point x="183" y="0"/>
      <point x="253" y="0" type="curve" smooth="yes"/>
      <point x="269" y="0"/>
      <point x="281" y="12"/>
      <point x="281" y="28" type="curve" smooth="yes"/>
      <point x="281" y="43"/>
      <point x="269" y="56"/>
    </contour>
  </outline>
</glyph>
<glyph name="M" format="1">
  <advance width="579"/>
  <unicode hex="004D"/>
  <outline>
    <contour>
      <point x="384" y="734" type="curve" smooth="yes"/>
      <point x="346" y="734"/>
      <point x="309" y="714"/>
      <point x="285" y="684" type="curve"/>
      <point x="262" y="716"/>
      <point x="228" y="734"/>
      <point x="186" y="734" type="curve" smooth="yes"/>
      <point x="116" y="734"/>
      <point x="57" y="676"/>
      <point x="57" y="605" type="curve"/>
      <point x="57" y="29" type="line"/>
      <point x="57" y="13"/>
      <point x="71" y="1"/>
      <point x="86" y="1" type="curve" smooth="yes"/>
      <point x="100" y="1"/>
      <point x="114" y="13"/>
      <point x="114" y="29" type="curve"/>
      <point x="114" y="605" type="line"/>
      <point x="114" y="645"/>
      <point x="146" y="678"/>
      <point x="186" y="678" type="curve" smooth="yes"/>
      <point x="224" y="678"/>
      <point x="255" y="647"/>
      <point x="257" y="610" type="curve"/>
      <point x="257" y="368" type="line"/>
      <point x="257" y="356"/>
      <point x="264" y="347"/>
      <point x="274" y="342" type="curve" smooth="yes"/>
      <point x="278" y="340"/>
      <point x="281" y="340"/>
      <point x="285" y="340" type="curve" smooth="yes"/>
      <point x="300" y="340"/>
      <point x="313" y="351"/>
      <point x="313" y="367" type="curve"/>
      <point x="313" y="610" type="line"/>
      <point x="315" y="647"/>
      <point x="346" y="678"/>
      <point x="384" y="678" type="curve" smooth="yes"/>
      <point x="424" y="678"/>
      <point x="456" y="645"/>
      <point x="456" y="605" type="curve"/>
      <point x="456" y="29" type="line"/>
      <point x="456" y="13"/>
      <point x="470" y="1"/>
      <point x="485" y="1" type="curve" smooth="yes"/>
      <point x="499" y="1"/>
      <point x="513" y="13"/>
      <point x="513" y="29" type="curve"/>
      <point x="513" y="605" type="line"/>
      <point x="513" y="676"/>
      <point x="455" y="734"/>
    </contour>
  </outline>
</glyph>
<glyph name="N" format="1">
  <advance width="372"/>
  <unicode hex="004E"/>
  <outline>
    <contour>
      <point x="183" y="733" type="curve" smooth="yes"/>
      <point x="112" y="733"/>
      <point x="54" y="675"/>
      <point x="54" y="605" type="curve"/>
      <point x="54" y="28" type="line"/>
      <point x="54" y="12"/>
      <point x="68" y="0"/>
      <point x="82" y="0" type="curve" smooth="yes"/>
      <point x="99" y="0"/>
      <point x="110" y="12"/>
      <point x="110" y="28" type="curve"/>
      <point x="110" y="605" type="line"/>
      <point x="110" y="644"/>
      <point x="143" y="677"/>
      <point x="183" y="677" type="curve" smooth="yes"/>
      <point x="222" y="677"/>
      <point x="255" y="644"/>
      <point x="255" y="605" type="curve"/>
      <point x="255" y="28" type="line"/>
      <point x="255" y="12"/>
      <point x="266" y="0"/>
      <point x="283" y="0" type="curve" smooth="yes"/>
      <point x="298" y="0"/>
      <point x="310" y="12"/>
      <point x="310" y="28" type="curve"/>
      <point x="310" y="605" type="line"/>
      <point x="310" y="675"/>
      <point x="254" y="733"/>
    </contour>
  </outline>
</glyph>
<glyph name="O" format="1">
  <advance width="363"/>
  <unicode hex="004F"/>
  <outline>
    <contour>
      <point x="178" y="734" type="curve" smooth="yes"/>
      <point x="108" y="734"/>
      <point x="49" y="676"/>
      <point x="49" y="605" type="curve"/>
      <point x="49" y="129" type="line"/>
      <point x="49" y="59"/>
      <point x="108" y="1"/>
      <point x="178" y="1" type="curve" smooth="yes"/>
      <point x="248" y="1"/>
      <point x="306" y="59"/>
      <point x="306" y="129" type="curve"/>
      <point x="306" y="605" type="line"/>
      <point x="306" y="676"/>
      <point x="248" y="734"/>
    </contour>
    <contour>
      <point x="250" y="129" type="line"/>
      <point x="250" y="90"/>
      <point x="218" y="57"/>
      <point x="178" y="57" type="curve" smooth="yes"/>
      <point x="138" y="57"/>
      <point x="106" y="90"/>
      <point x="106" y="129" type="curve"/>
      <point x="106" y="605" type="line"/>
      <point x="106" y="645"/>
      <point x="138" y="678"/>
      <point x="178" y="678" type="curve" smooth="yes"/>
      <point x="218" y="678"/>
      <point x="250" y="645"/>
      <point x="250" y="605" type="curve"/>
    </contour>
  </outline>
</glyph>
<glyph name="P" format="1">
  <advance width="364"/>
  <unicode hex="0050"/>
  <outline>
    <contour>
      <point x="312" y="605" type="line"/>
      <point x="312" y="676"/>
      <point x="254" y="732"/>
      <point x="184" y="732" type="curve" smooth="yes"/>
      <point x="112" y="732"/>
      <point x="56" y="677"/>
      <point x="55" y="605" type="curve"/>
      <point x="55" y="28" type="line"/>
      <point x="55" y="12"/>
      <point x="69" y="0"/>
      <point x="83" y="0" type="curve" smooth="yes"/>
      <point x="100" y="0"/>
      <point x="111" y="12"/>
      <point x="111" y="28" type="curve"/>
      <point x="111" y="340" type="line"/>
      <point x="193" y="340" type="line"/>
      <point x="258" y="340"/>
      <point x="309" y="389"/>
      <point x="311" y="453" type="curve"/>
    </contour>
    <contour>
      <point x="193" y="396" type="curve"/>
      <point x="111" y="396" type="line"/>
      <point x="111" y="605" type="line"/>
      <point x="111" y="644"/>
      <point x="144" y="677"/>
      <point x="184" y="677" type="curve" smooth="yes"/>
      <point x="223" y="677"/>
      <point x="256" y="644"/>
      <point x="256" y="605" type="curve"/>
      <point x="256" y="458" type="line"/>
      <point x="256" y="424"/>
      <point x="227" y="396"/>
    </contour>
  </outline>
</glyph>
<glyph name="Q" format="1">
  <advance width="395"/>
  <unicode hex="0051"/>
  <outline>
    <contour>
      <point x="351" y="56" type="curve" smooth="yes"/>
      <point x="315" y="56"/>
      <point x="310" y="89"/>
      <point x="310" y="128" type="curve"/>
      <point x="310" y="605" type="line"/>
      <point x="310" y="675"/>
      <point x="251" y="733"/>
      <point x="181" y="733" type="curve" smooth="yes"/>
      <point x="111" y="733"/>
      <point x="53" y="675"/>
      <point x="53" y="605" type="curve"/>
      <point x="53" y="128" type="line"/>
      <point x="53" y="58"/>
      <point x="111" y="0"/>
      <point x="181" y="0" type="curve" smooth="yes"/>
      <point x="217" y="0"/>
      <point x="250" y="16"/>
      <point x="274" y="40" type="curve"/>
      <point x="290" y="16"/>
      <point x="315" y="0"/>
      <point x="351" y="0" type="curve" smooth="yes"/>
      <point x="366" y="0"/>
      <point x="380" y="14"/>
      <point x="380" y="28" type="curve" smooth="yes"/>
      <point x="380" y="45"/>
      <point x="366" y="56"/>
    </contour>
    <contour>
      <point x="181" y="56" type="curve" smooth="yes"/>
      <point x="141" y="56"/>
      <point x="109" y="89"/>
      <point x="109" y="128" type="curve"/>
      <point x="109" y="605" type="line"/>
      <point x="109" y="644"/>
      <point x="141" y="677"/>
      <point x="181" y="677" type="curve" smooth="yes"/>
      <point x="221" y="677"/>
      <point x="253" y="644"/>
      <point x="253" y="605" type="curve"/>
      <point x="253" y="165" type="line"/>
      <point x="241" y="170"/>
      <point x="228" y="173"/>
      <point x="211" y="173" type="curve" smooth="yes"/>
      <point x="197" y="173"/>
      <point x="183" y="162"/>
      <point x="183" y="145" type="curve" smooth="yes"/>
      <point x="183" y="130"/>
      <point x="197" y="117"/>
      <point x="211" y="117" type="curve" smooth="yes"/>
      <point x="230" y="117"/>
      <point x="240" y="108"/>
      <point x="246" y="96" type="curve"/>
      <point x="235" y="74"/>
      <point x="209" y="56"/>
    </contour>
  </outline>
</glyph>
<glyph name="R" format="1">
  <advance width="277"/>
  <unicode hex="0052"/>
  <outline>
    <contour>
      <point x="266" y="446" type="line"/>
      <point x="266" y="606" type="line"/>
      <point x="266" y="676"/>
      <point x="209" y="732"/>
      <point x="140" y="732" type="curve" smooth="yes"/>
      <point x="70" y="732"/>
      <point x="14" y="677"/>
      <point x="13" y="607" type="curve"/>
      <point x="13" y="26" type="line"/>
      <point x="13" y="11"/>
      <point x="25" y="0"/>
      <point x="39" y="0" type="curve" smooth="yes"/>
      <point x="53" y="0"/>
      <point x="64" y="11"/>
      <point x="64" y="26" type="curve"/>
      <point x="64" y="342" type="line"/>
      <point x="106" y="342" type="line"/>
      <point x="134" y="116" type="line"/>
      <point x="142" y="48"/>
      <point x="174" y="-5"/>
      <point x="244" y="2" type="curve"/>
      <point x="256" y="4"/>
      <point x="268" y="17"/>
      <point x="265" y="30" type="curve" smooth="yes"/>
      <point x="263" y="44"/>
      <point x="252" y="55"/>
      <point x="237" y="52" type="curve"/>
      <point x="199" y="48"/>
      <point x="189" y="82"/>
      <point x="184" y="123" type="curve"/>
      <point x="158" y="342" type="line"/>
      <point x="215" y="344"/>
      <point x="259" y="390"/>
      <point x="264" y="446" type="curve"/>
    </contour>
    <contour>
      <point x="149" y="393" type="curve"/>
      <point x="64" y="393" type="line"/>
      <point x="64" y="606" type="line"/>
      <point x="64" y="648"/>
      <point x="98" y="682"/>
      <point x="140" y="682" type="curve" smooth="yes"/>
      <point x="181" y="682"/>
      <point x="215" y="648"/>
      <point x="215" y="606" type="curve"/>
      <point x="215" y="459" type="line"/>
      <point x="215" y="423"/>
      <point x="186" y="393"/>
    </contour>
  </outline>
</glyph>
<glyph name="S" format="1">
  <advance width="338"/>
  <unicode hex="0053"/>
  <outline>
    <contour>
      <point x="293" y="538" type="line"/>
      <point x="293" y="605" type="line"/>
      <point x="293" y="675"/>
      <point x="235" y="733"/>
      <point x="165" y="733" type="curve" smooth="yes"/>
      <point x="95" y="733"/>
      <point x="36" y="675"/>
      <point x="36" y="605" type="curve"/>
      <point x="36" y="448" type="line"/>
      <point x="38" y="422"/>
      <point x="48" y="397"/>
      <point x="62" y="379" type="curve" smooth="yes"/>
      <point x="65" y="373"/>
      <point x="70" y="367"/>
      <point x="76" y="362" type="curve"/>
      <point x="76" y="361" type="line"/>
      <point x="90" y="348"/>
      <point x="108" y="341"/>
      <point x="128" y="339" type="curve" smooth="yes"/>
      <point x="132" y="338"/>
      <point x="134" y="338"/>
      <point x="138" y="338" type="curve"/>
      <point x="199" y="338" type="line"/>
      <point x="214" y="335"/>
      <point x="229" y="322"/>
      <point x="237" y="305" type="curve"/>
      <point x="237" y="128" type="line"/>
      <point x="237" y="89"/>
      <point x="205" y="56"/>
      <point x="165" y="56" type="curve" smooth="yes"/>
      <point x="125" y="56"/>
      <point x="93" y="89"/>
      <point x="93" y="128" type="curve"/>
      <point x="93" y="173" type="line"/>
      <point x="36" y="173" type="line"/>
      <point x="36" y="128" type="line"/>
      <point x="36" y="58"/>
      <point x="95" y="0"/>
      <point x="165" y="0" type="curve" smooth="yes"/>
      <point x="235" y="0"/>
      <point x="293" y="58"/>
      <point x="293" y="128" type="curve"/>
      <point x="293" y="276" type="line"/>
      <point x="293" y="306"/>
      <point x="284" y="332"/>
      <point x="269" y="353" type="curve"/>
      <point x="263" y="359"/>
      <point x="258" y="366"/>
      <point x="252" y="371" type="curve" smooth="yes"/>
      <point x="239" y="384"/>
      <point x="220" y="392"/>
      <point x="201" y="394" type="curve"/>
      <point x="132" y="394" type="line"/>
      <point x="115" y="396"/>
      <point x="101" y="409"/>
      <point x="93" y="426" type="curve"/>
      <point x="93" y="605" type="line"/>
      <point x="93" y="644"/>
      <point x="125" y="677"/>
      <point x="165" y="677" type="curve" smooth="yes"/>
      <point x="205" y="677"/>
      <point x="237" y="644"/>
      <point x="237" y="605" type="curve"/>
      <point x="237" y="538" type="line"/>
    </contour>
  </outline>
</glyph>
<glyph name="T" format="1">
  <advance width="406"/>
  <unicode hex="0054"/>
  <outline>
    <contour>
      <point x="330" y="732" type="curve"/>
      <point x="165" y="732" type="line"/>
      <point x="99" y="732"/>
      <point x="47" y="680"/>
      <point x="47" y="614" type="curve" smooth="yes"/>
      <point x="47" y="600"/>
      <point x="60" y="586"/>
      <point x="75" y="586" type="curve" smooth="yes"/>
      <point x="91" y="586"/>
      <point x="103" y="600"/>
      <point x="103" y="614" type="curve" smooth="yes"/>
      <point x="103" y="648"/>
      <point x="131" y="677"/>
      <point x="165" y="677" type="curve"/>
      <point x="180" y="677" type="line"/>
      <point x="180" y="29" type="line"/>
      <point x="180" y="13"/>
      <point x="192" y="1"/>
      <point x="207" y="1" type="curve" smooth="yes"/>
      <point x="224" y="1"/>
      <point x="235" y="13"/>
      <point x="235" y="29" type="curve"/>
      <point x="235" y="677" type="line"/>
      <point x="330" y="677" type="line"/>
      <point x="344" y="677"/>
      <point x="358" y="688"/>
      <point x="358" y="705" type="curve" smooth="yes"/>
      <point x="358" y="720"/>
      <point x="344" y="732"/>
    </contour>
  </outline>
</glyph>
<glyph name="U" format="1">
  <advance width="367"/>
  <unicode hex="0055"/>
  <outline>
    <contour>
      <point x="282" y="732" type="curve" smooth="yes"/>
      <point x="266" y="732"/>
      <point x="255" y="720"/>
      <point x="255" y="704" type="curve"/>
      <point x="255" y="128" type="line"/>
      <point x="255" y="90"/>
      <point x="222" y="57"/>
      <point x="183" y="57" type="curve" smooth="yes"/>
      <point x="143" y="57"/>
      <point x="111" y="90"/>
      <point x="111" y="128" type="curve"/>
      <point x="111" y="704" type="line"/>
      <point x="111" y="720"/>
      <point x="99" y="732"/>
      <point x="83" y="732" type="curve" smooth="yes"/>
      <point x="67" y="732"/>
      <point x="55" y="720"/>
      <point x="55" y="704" type="curve"/>
      <point x="55" y="128" type="line"/>
      <point x="55" y="57"/>
      <point x="111" y="1"/>
      <point x="183" y="1" type="curve" smooth="yes"/>
      <point x="254" y="1"/>
      <point x="310" y="57"/>
      <point x="310" y="128" type="curve"/>
      <point x="310" y="704" type="line"/>
      <point x="310" y="720"/>
      <point x="298" y="732"/>
    </contour>
  </outline>
</glyph>
<glyph name="V" format="1">
  <advance width="334"/>
  <unicode hex="0056"/>
  <outline>
    <contour>
      <point x="239" y="730" type="curve" smooth="yes"/>
      <point x="224" y="735"/>
      <point x="208" y="725"/>
      <point x="203" y="711" type="curve" smooth="yes"/>
      <point x="198" y="695"/>
      <point x="208" y="680"/>
      <point x="221" y="676" type="curve" smooth="yes"/>
      <point x="242" y="669"/>
      <point x="249" y="656"/>
      <point x="249" y="641" type="curve" smooth="yes"/>
      <point x="249" y="631"/>
      <point x="245" y="615"/>
      <point x="240" y="598" type="curve"/>
      <point x="163" y="159" type="line"/>
      <point x="92" y="598" type="line"/>
      <point x="87" y="614"/>
      <point x="83" y="630"/>
      <point x="83" y="641" type="curve" smooth="yes"/>
      <point x="83" y="657"/>
      <point x="90" y="670"/>
      <point x="110" y="676" type="curve" smooth="yes"/>
      <point x="125" y="679"/>
      <point x="134" y="696"/>
      <point x="129" y="712" type="curve" smooth="yes"/>
      <point x="124" y="725"/>
      <point x="109" y="734"/>
      <point x="95" y="730" type="curve" smooth="yes"/>
      <point x="48" y="716"/>
      <point x="29" y="681"/>
      <point x="29" y="639" type="curve" smooth="yes"/>
      <point x="29" y="619"/>
      <point x="31" y="600"/>
      <point x="37" y="580" type="curve"/>
      <point x="37" y="581" type="line"/>
      <point x="133" y="25" type="line"/>
      <point x="139" y="9"/>
      <point x="154" y="-2"/>
      <point x="169" y="2" type="curve" smooth="yes"/>
      <point x="179" y="4"/>
      <point x="186" y="10"/>
      <point x="189" y="19" type="curve"/>
      <point x="293" y="580" type="line"/>
      <point x="293" y="579" type="line"/>
      <point x="299" y="599"/>
      <point x="303" y="620"/>
      <point x="303" y="640" type="curve" smooth="yes"/>
      <point x="303" y="681"/>
      <point x="286" y="715"/>
    </contour>
  </outline>
</glyph>
<glyph name="W" format="1">
  <advance width="542"/>
  <unicode hex="0057"/>
  <outline>
    <contour>
      <point x="455" y="732" type="curve" smooth="yes"/>
      <point x="441" y="736"/>
      <point x="426" y="728"/>
      <point x="423" y="714" type="curve" smooth="yes"/>
      <point x="419" y="702"/>
      <point x="429" y="687"/>
      <point x="447" y="680" type="curve"/>
      <point x="464" y="675"/>
      <point x="470" y="661"/>
      <point x="470" y="644" type="curve" smooth="yes"/>
      <point x="470" y="631"/>
      <point x="466" y="615"/>
      <point x="460" y="598" type="curve"/>
      <point x="376" y="123" type="line"/>
      <point x="303" y="349" type="line"/>
      <point x="297" y="367"/>
      <point x="293" y="383"/>
      <point x="293" y="395" type="curve" smooth="yes"/>
      <point x="293" y="414"/>
      <point x="302" y="428"/>
      <point x="324" y="435" type="curve" smooth="yes"/>
      <point x="338" y="439"/>
      <point x="346" y="453"/>
      <point x="342" y="466" type="curve" smooth="yes"/>
      <point x="338" y="481"/>
      <point x="323" y="487"/>
      <point x="310" y="484" type="curve" smooth="yes"/>
      <point x="294" y="480"/>
      <point x="279" y="471"/>
      <point x="269" y="461" type="curve"/>
      <point x="260" y="470"/>
      <point x="243" y="480"/>
      <point x="228" y="485" type="curve"/>
      <point x="214" y="488"/>
      <point x="201" y="482"/>
      <point x="197" y="468" type="curve"/>
      <point x="198" y="469" type="line"/>
      <point x="192" y="456"/>
      <point x="201" y="441"/>
      <point x="214" y="436" type="curve" smooth="yes"/>
      <point x="233" y="429"/>
      <point x="244" y="413"/>
      <point x="244" y="396" type="curve" smooth="yes"/>
      <point x="244" y="385"/>
      <point x="240" y="367"/>
      <point x="234" y="350" type="curve"/>
      <point x="155" y="127" type="line"/>
      <point x="76" y="601" type="line"/>
      <point x="71" y="617"/>
      <point x="67" y="634"/>
      <point x="67" y="646" type="curve" smooth="yes"/>
      <point x="67" y="664"/>
      <point x="75" y="678"/>
      <point x="98" y="685" type="curve" smooth="yes"/>
      <point x="111" y="689"/>
      <point x="119" y="704"/>
      <point x="115" y="716" type="curve" smooth="yes"/>
      <point x="111" y="730"/>
      <point x="97" y="737"/>
      <point x="83" y="734" type="curve"/>
      <point x="36" y="720"/>
      <point x="17" y="685"/>
      <point x="17" y="642" type="curve" smooth="yes"/>
      <point x="17" y="623"/>
      <point x="20" y="604"/>
      <point x="26" y="585" type="curve"/>
      <point x="26" y="586" type="line"/>
      <point x="125" y="18" type="line"/>
      <point x="129" y="5"/>
      <point x="144" y="-1"/>
      <point x="158" y="2" type="curve" smooth="yes"/>
      <point x="164" y="3"/>
      <point x="173" y="13"/>
      <point x="177" y="20" type="curve"/>
      <point x="267" y="288" type="line"/>
      <point x="352" y="18" type="line"/>
      <point x="357" y="8"/>
      <point x="371" y="-2"/>
      <point x="384" y="0" type="curve" smooth="yes"/>
      <point x="393" y="1"/>
      <point x="399" y="9"/>
      <point x="404" y="19" type="curve"/>
      <point x="510" y="583" type="line"/>
      <point x="510" y="582" type="line"/>
      <point x="516" y="602"/>
      <point x="520" y="622"/>
      <point x="520" y="641" type="curve" smooth="yes"/>
      <point x="520" y="683"/>
      <point x="502" y="717"/>
    </contour>
  </outline>
</glyph>
<glyph name="X" format="1">
  <advance width="412"/>
  <unicode hex="0058"/>
  <outline>
    <contour>
      <point x="378" y="39" type="line"/>
      <point x="329" y="136"/>
      <point x="282" y="235"/>
      <point x="233" y="332" type="curve"/>
      <point x="350" y="569" type="line"/>
      <point x="350" y="568" type="line"/>
      <point x="370" y="598"/>
      <point x="383" y="627"/>
      <point x="383" y="655" type="curve" smooth="yes"/>
      <point x="383" y="683"/>
      <point x="370" y="709"/>
      <point x="340" y="729" type="curve" smooth="yes"/>
      <point x="329" y="737"/>
      <point x="312" y="733"/>
      <point x="305" y="722" type="curve" smooth="yes"/>
      <point x="297" y="710"/>
      <point x="300" y="694"/>
      <point x="312" y="686" type="curve" smooth="yes"/>
      <point x="327" y="676"/>
      <point x="332" y="666"/>
      <point x="332" y="654" type="curve" smooth="yes"/>
      <point x="332" y="638"/>
      <point x="322" y="620"/>
      <point x="309" y="601" type="curve"/>
      <point x="204" y="388" type="line"/>
      <point x="99" y="601" type="line"/>
      <point x="86" y="620"/>
      <point x="77" y="638"/>
      <point x="77" y="654" type="curve" smooth="yes"/>
      <point x="77" y="666"/>
      <point x="81" y="676"/>
      <point x="96" y="686" type="curve" smooth="yes"/>
      <point x="108" y="694"/>
      <point x="111" y="710"/>
      <point x="103" y="722" type="curve" smooth="yes"/>
      <point x="96" y="733"/>
      <point x="79" y="737"/>
      <point x="68" y="729" type="curve" smooth="yes"/>
      <point x="38" y="709"/>
      <point x="25" y="683"/>
      <point x="25" y="655" type="curve" smooth="yes"/>
      <point x="25" y="627"/>
      <point x="38" y="598"/>
      <point x="58" y="568" type="curve"/>
      <point x="58" y="569" type="line"/>
      <point x="96" y="491"/>
      <point x="138" y="410"/>
      <point x="177" y="332" type="curve"/>
      <point x="30" y="39" type="line"/>
      <point x="30" y="40" type="line"/>
      <point x="23" y="28"/>
      <point x="25" y="12"/>
      <point x="37" y="4" type="curve" smooth="yes"/>
      <point x="49" y="-4"/>
      <point x="65" y="-2"/>
      <point x="72" y="9" type="curve"/>
      <point x="115" y="97"/>
      <point x="161" y="186"/>
      <point x="204" y="275" type="curve"/>
      <point x="337" y="9" type="line"/>
      <point x="343" y="-2"/>
      <point x="359" y="-4"/>
      <point x="371" y="4" type="curve" smooth="yes"/>
      <point x="383" y="12"/>
      <point x="386" y="28"/>
      <point x="378" y="40" type="curve"/>
    </contour>
  </outline>
</glyph>
<glyph name="Y" format="1">
  <advance width="264"/>
  <unicode hex="0059"/>
  <outline>
    <contour>
      <point x="232" y="734" type="curve" smooth="yes"/>
      <point x="217" y="734"/>
      <point x="206" y="722"/>
      <point x="206" y="708" type="curve"/>
      <point x="206" y="468" type="line"/>
      <point x="206" y="426"/>
      <point x="172" y="393"/>
      <point x="131" y="393" type="curve" smooth="yes"/>
      <point x="90" y="393"/>
      <point x="55" y="426"/>
      <point x="55" y="468" type="curve"/>
      <point x="55" y="708" type="line"/>
      <point x="55" y="723"/>
      <point x="44" y="734"/>
      <point x="30" y="734" type="curve" smooth="yes"/>
      <point x="16" y="734"/>
      <point x="4" y="723"/>
      <point x="4" y="708" type="curve"/>
      <point x="4" y="468" type="line"/>
      <point x="4" y="407"/>
      <point x="49" y="357"/>
      <point x="105" y="343" type="curve"/>
      <point x="105" y="26" type="line"/>
      <point x="105" y="12"/>
      <point x="117" y="0"/>
      <point x="131" y="0" type="curve" smooth="yes"/>
      <point x="145" y="0"/>
      <point x="156" y="12"/>
      <point x="156" y="26" type="curve"/>
      <point x="156" y="343" type="line"/>
      <point x="212" y="357"/>
      <point x="257" y="407"/>
      <point x="257" y="468" type="curve"/>
      <point x="257" y="708" type="line"/>
      <point x="257" y="722"/>
      <point x="246" y="734"/>
    </contour>
  </outline>
</glyph>
<glyph name="Z" format="1">
  <advance width="356"/>
  <unicode hex="005A"/>
  <outline>
    <contour>
      <point x="281" y="126" type="curve" smooth="yes"/>
      <point x="264" y="126"/>
      <point x="253" y="112"/>
      <point x="253" y="96" type="curve" smooth="yes"/>
      <point x="253" y="64"/>
      <point x="245" y="56"/>
      <point x="213" y="56" type="curve"/>
      <point x="111" y="56" type="line"/>
      <point x="177" y="274"/>
      <point x="240" y="478"/>
      <point x="305" y="695" type="curve"/>
      <point x="304" y="694" type="line"/>
      <point x="306" y="698"/>
      <point x="306" y="701"/>
      <point x="306" y="704" type="curve" smooth="yes"/>
      <point x="306" y="720"/>
      <point x="292" y="732"/>
      <point x="278" y="732" type="curve"/>
      <point x="145" y="732" type="line"/>
      <point x="78" y="732"/>
      <point x="49" y="703"/>
      <point x="49" y="636" type="curve" smooth="yes"/>
      <point x="49" y="621"/>
      <point x="63" y="607"/>
      <point x="77" y="607" type="curve" smooth="yes"/>
      <point x="94" y="607"/>
      <point x="106" y="621"/>
      <point x="106" y="636" type="curve" smooth="yes"/>
      <point x="106" y="668"/>
      <point x="113" y="676"/>
      <point x="145" y="676" type="curve"/>
      <point x="242" y="676" type="line"/>
      <point x="50" y="43" type="line"/>
      <point x="49" y="39"/>
      <point x="48" y="35"/>
      <point x="48" y="28" type="curve" smooth="yes"/>
      <point x="48" y="19"/>
      <point x="51" y="14"/>
      <point x="56" y="8" type="curve"/>
      <point x="61" y="4"/>
      <point x="67" y="1"/>
      <point x="72" y="1" type="curve"/>
      <point x="76" y="0" type="line"/>
      <point x="213" y="0" type="line"/>
      <point x="280" y="0"/>
      <point x="309" y="29"/>
      <point x="309" y="96" type="curve" smooth="yes"/>
      <point x="309" y="112"/>
      <point x="295" y="126"/>
    </contour>
  </outline>
</glyph>
<glyph name="bracketleft" format="1">
  <advance width="132"/>
  <unicode hex="005B"/>
  <outline>
    <contour>
      <point x="14" y="0" type="line"/>
      <point x="109" y="0" type="line"/>
      <point x="124" y="0"/>
      <point x="134" y="11"/>
      <point x="134" y="25" type="curve" smooth="yes"/>
      <point x="134" y="40"/>
      <point x="124" y="52"/>
      <point x="109" y="52" type="curve"/>
      <point x="64" y="52" type="line"/>
      <point x="64" y="676" type="line"/>
      <point x="109" y="676" type="line"/>
      <point x="124" y="676"/>
      <point x="134" y="688"/>
      <point x="134" y="701" type="curve" smooth="yes"/>
      <point x="134" y="716"/>
      <point x="124" y="728"/>
      <point x="109" y="728" type="curve"/>
      <point x="14" y="728" type="line"/>
    </contour>
  </outline>
</glyph>
<glyph name="backslash" format="1">
  <advance width="318"/>
  <unicode hex="005C"/>
  <outline>
    <contour>
      <point x="17" y="727" type="line"/>
      <point x="30" y="733"/>
      <point x="46" y="726"/>
      <point x="52" y="710" type="curve"/>
      <point x="89" y="609" type="line"/>
      <point x="277" y="57" type="line"/>
      <point x="288" y="24"/>
      <point x="302" y="-10"/>
      <point x="314" y="-43" type="curve"/>
      <point x="318" y="-56"/>
      <point x="311" y="-72"/>
      <point x="296" y="-78" type="curve" smooth="yes"/>
      <point x="283" y="-84"/>
      <point x="267" y="-77"/>
      <point x="261" y="-61" type="curve"/>
      <point x="225" y="40" type="line"/>
      <point x="37" y="591" type="line"/>
      <point x="25" y="624"/>
      <point x="12" y="659"/>
      <point x="0" y="692" type="curve"/>
      <point x="-4" y="705"/>
      <point x="3" y="721"/>
      <point x="16" y="726" type="curve"/>
    </contour>
  </outline>
</glyph>
<glyph name="bracketright" format="1">
  <advance width="252"/>
  <unicode hex="005D"/>
  <outline>
    <contour>
      <point x="82" y="0" type="line"/>
      <point x="66" y="0"/>
      <point x="53" y="13"/>
      <point x="53" y="28" type="curve" smooth="yes"/>
      <point x="53" y="43"/>
      <point x="66" y="57"/>
      <point x="82" y="57" type="curve"/>
      <point x="123" y="57" type="line"/>
      <point x="123" y="670" type="line"/>
      <point x="82" y="670" type="line"/>
      <point x="66" y="670"/>
      <point x="53" y="683"/>
      <point x="53" y="698" type="curve" smooth="yes"/>
      <point x="53" y="713"/>
      <point x="66" y="726"/>
      <point x="82" y="726" type="curve"/>
      <point x="179" y="726" type="line"/>
      <point x="179" y="0" type="line"/>
    </contour>
  </outline>
</glyph>
<glyph name="asciicircum" format="1">
  <advance width="346"/>
  <unicode hex="005E"/>
  <outline>
    <contour>
      <point x="338" y="553" type="curve" smooth="yes"/>
      <point x="338" y="560"/>
      <point x="334" y="567"/>
      <point x="331" y="571" type="curve"/>
      <point x="331" y="570" type="line"/>
      <point x="168" y="767" type="line"/>
      <point x="11" y="570" type="line"/>
      <point x="12" y="572" type="line"/>
      <point x="6" y="568"/>
      <point x="3" y="559"/>
      <point x="3" y="552" type="curve" smooth="yes"/>
      <point x="3" y="546"/>
      <point x="6" y="540"/>
      <point x="9" y="535" type="curve" smooth="yes"/>
      <point x="15" y="528"/>
      <point x="21" y="525"/>
      <point x="30" y="525" type="curve" smooth="yes"/>
      <point x="36" y="525"/>
      <point x="43" y="528"/>
      <point x="48" y="532" type="curve"/>
      <point x="170" y="688" type="line"/>
      <point x="293" y="533" type="line"/>
      <point x="298" y="528"/>
      <point x="305" y="525"/>
      <point x="311" y="525" type="curve" smooth="yes"/>
      <point x="319" y="525"/>
      <point x="326" y="528"/>
      <point x="331" y="535" type="curve"/>
      <point x="331" y="534" type="line"/>
      <point x="337" y="540"/>
      <point x="338" y="546"/>
    </contour>
  </outline>
</glyph>
<glyph name="underscore" format="1">
  <advance width="716"/>
  <unicode hex="005F"/>
  <outline>
    <contour>
      <point x="689" y="-10" type="curve" smooth="yes"/>
      <point x="689" y="5"/>
      <point x="678" y="16"/>
      <point x="664" y="16" type="curve"/>
      <point x="43" y="16" type="line"/>
      <point x="28" y="16"/>
      <point x="17" y="5"/>
      <point x="17" y="-10" type="curve" smooth="yes"/>
      <point x="17" y="-23"/>
      <point x="28" y="-35"/>
      <point x="43" y="-35" type="curve"/>
      <point x="664" y="-35" type="line"/>
      <point x="678" y="-35"/>
      <point x="689" y="-23"/>
    </contour>
  </outline>
</glyph>
<glyph name="grave" format="1">
  <advance width="257"/>
  <unicode hex="0060"/>
  <outline>
    <contour>
      <point x="45" y="632" type="line"/>
      <point x="52" y="646"/>
      <point x="69" y="650"/>
      <point x="82" y="643" type="curve"/>
      <point x="118" y="623" type="line"/>
      <point x="163" y="599" type="line"/>
      <point x="199" y="580" type="line"/>
      <point x="211" y="573"/>
      <point x="216" y="556"/>
      <point x="210" y="543" type="curve" smooth="yes"/>
      <point x="204" y="530"/>
      <point x="186" y="524"/>
      <point x="173" y="532" type="curve"/>
      <point x="137" y="551" type="line"/>
      <point x="92" y="575" type="line"/>
      <point x="56" y="594" type="line"/>
      <point x="43" y="602"/>
      <point x="39" y="618"/>
      <point x="45" y="631" type="curve"/>
    </contour>
  </outline>
</glyph>
<glyph name="a" format="1">
  <advance width="352"/>
  <unicode hex="0061"/>
  <outline>
    <contour>
      <point x="323" y="48" type="curve" smooth="yes"/>
      <point x="284" y="48"/>
      <point x="252" y="79"/>
      <point x="252" y="118" type="curve"/>
      <point x="252" y="399" type="line"/>
      <point x="252" y="403"/>
      <point x="252" y="404"/>
      <point x="251" y="407" type="curve"/>
      <point x="248" y="471"/>
      <point x="195" y="525"/>
      <point x="132" y="525" type="curve" smooth="yes"/>
      <point x="66" y="525"/>
      <point x="13" y="471"/>
      <point x="13" y="406" type="curve"/>
      <point x="13" y="124" type="line"/>
      <point x="13" y="57"/>
      <point x="66" y="5"/>
      <point x="132" y="5" type="curve" smooth="yes"/>
      <point x="171" y="5"/>
      <point x="204" y="21"/>
      <point x="225" y="50" type="curve"/>
      <point x="247" y="19"/>
      <point x="281" y="-1"/>
      <point x="323" y="-1" type="curve" smooth="yes"/>
      <point x="336" y="-1"/>
      <point x="346" y="10"/>
      <point x="346" y="23" type="curve" smooth="yes"/>
      <point x="346" y="37"/>
      <point x="336" y="48"/>
    </contour>
    <contour>
      <point x="202" y="124" type="line"/>
      <point x="202" y="85"/>
      <point x="170" y="54"/>
      <point x="132" y="54" type="curve" smooth="yes"/>
      <point x="93" y="54"/>
      <point x="61" y="85"/>
      <point x="61" y="124" type="curve"/>
      <point x="61" y="406" type="line"/>
      <point x="61" y="445"/>
      <point x="93" y="476"/>
      <point x="132" y="476" type="curve" smooth="yes"/>
      <point x="170" y="476"/>
      <point x="202" y="445"/>
      <point x="202" y="406" type="curve"/>
    </contour>
  </outline>
</glyph>
<glyph name="b" format="1">
  <advance width="264"/>
  <unicode hex="0062"/>
  <outline>
    <contour>
      <point x="135" y="534" type="curve" smooth="yes"/>
      <point x="108" y="534"/>
      <point x="84" y="525"/>
      <point x="63" y="509" type="curve"/>
      <point x="63" y="645" type="line"/>
      <point x="63" y="685"/>
      <point x="95" y="717"/>
      <point x="135" y="717" type="curve" smooth="yes"/>
      <point x="149" y="717"/>
      <point x="160" y="729"/>
      <point x="160" y="742" type="curve" smooth="yes"/>
      <point x="160" y="756"/>
      <point x="149" y="767"/>
      <point x="135" y="767" type="curve" smooth="yes"/>
      <point x="68" y="767"/>
      <point x="13" y="712"/>
      <point x="13" y="645" type="curve"/>
      <point x="13" y="123" type="line"/>
      <point x="13" y="56"/>
      <point x="68" y="1"/>
      <point x="135" y="1" type="curve" smooth="yes"/>
      <point x="202" y="1"/>
      <point x="257" y="56"/>
      <point x="257" y="123" type="curve"/>
      <point x="257" y="412" type="line"/>
      <point x="257" y="479"/>
      <point x="202" y="534"/>
    </contour>
    <contour>
      <point x="207" y="123" type="line"/>
      <point x="207" y="83"/>
      <point x="175" y="50"/>
      <point x="135" y="50" type="curve" smooth="yes"/>
      <point x="95" y="50"/>
      <point x="63" y="83"/>
      <point x="63" y="123" type="curve"/>
      <point x="63" y="412" type="line"/>
      <point x="63" y="451"/>
      <point x="95" y="484"/>
      <point x="135" y="484" type="curve" smooth="yes"/>
      <point x="175" y="484"/>
      <point x="207" y="451"/>
      <point x="207" y="412" type="curve"/>
    </contour>
  </outline>
</glyph>
<glyph name="c" format="1">
  <advance width="333"/>
  <unicode hex="0063"/>
  <outline>
    <contour>
      <point x="292" y="376" type="line"/>
      <point x="292" y="407" type="line"/>
      <point x="292" y="475"/>
      <point x="238" y="530"/>
      <point x="170" y="530" type="curve" smooth="yes"/>
      <point x="101" y="530"/>
      <point x="47" y="475"/>
      <point x="47" y="407" type="curve"/>
      <point x="47" y="122" type="line"/>
      <point x="47" y="56"/>
      <point x="101" y="0"/>
      <point x="170" y="0" type="curve" smooth="yes"/>
      <point x="238" y="0"/>
      <point x="292" y="56"/>
      <point x="292" y="122" type="curve"/>
      <point x="292" y="154" type="line"/>
      <point x="238" y="154" type="line"/>
      <point x="238" y="122" type="line"/>
      <point x="238" y="85"/>
      <point x="207" y="54"/>
      <point x="170" y="54" type="curve" smooth="yes"/>
      <point x="132" y="54"/>
      <point x="101" y="85"/>
      <point x="101" y="122" type="curve"/>
      <point x="101" y="407" type="line"/>
      <point x="101" y="444"/>
      <point x="132" y="475"/>
      <point x="170" y="475" type="curve" smooth="yes"/>
      <point x="207" y="475"/>
      <point x="238" y="444"/>
      <point x="238" y="407" type="curve"/>
      <point x="238" y="376" type="line"/>
    </contour>
  </outline>
</glyph>
<glyph name="d" format="1">
  <advance width="263"/>
  <unicode hex="0064"/>
  <outline>
    <contour>
      <point x="124" y="766" type="curve" smooth="yes"/>
      <point x="111" y="766"/>
      <point x="100" y="755"/>
      <point x="100" y="741" type="curve" smooth="yes"/>
      <point x="100" y="728"/>
      <point x="111" y="716"/>
      <point x="124" y="716" type="curve" smooth="yes"/>
      <point x="164" y="716"/>
      <point x="196" y="684"/>
      <point x="196" y="644" type="curve"/>
      <point x="196" y="508" type="line"/>
      <point x="176" y="523"/>
      <point x="152" y="532"/>
      <point x="124" y="532" type="curve" smooth="yes"/>
      <point x="57" y="532"/>
      <point x="3" y="477"/>
      <point x="3" y="410" type="curve"/>
      <point x="3" y="121" type="line"/>
      <point x="3" y="54"/>
      <point x="57" y="-1"/>
      <point x="124" y="-1" type="curve" smooth="yes"/>
      <point x="192" y="-1"/>
      <point x="246" y="54"/>
      <point x="246" y="121" type="curve"/>
      <point x="246" y="644" type="line"/>
      <point x="246" y="711"/>
      <point x="192" y="766"/>
    </contour>
    <contour>
      <point x="196" y="121" type="line"/>
      <point x="196" y="81"/>
      <point x="164" y="48"/>
      <point x="124" y="48" type="curve" smooth="yes"/>
      <point x="84" y="48"/>
      <point x="52" y="81"/>
      <point x="52" y="121" type="curve"/>
      <point x="52" y="410" type="line"/>
      <point x="52" y="450"/>
      <point x="84" y="483"/>
      <point x="124" y="483" type="curve" smooth="yes"/>
      <point x="164" y="483"/>
      <point x="196" y="450"/>
      <point x="196" y="410" type="curve"/>
    </contour>
  </outline>
</glyph>
<glyph name="e" format="1">
  <advance width="265"/>
  <unicode hex="0065"/>
  <outline>
    <contour>
      <point x="159" y="230" type="line"/>
      <point x="179" y="230"/>
      <point x="199" y="240"/>
      <point x="215" y="253" type="curve" smooth="yes"/>
      <point x="236" y="273"/>
      <point x="252" y="307"/>
      <point x="252" y="341" type="curve"/>
      <point x="252" y="407" type="line"/>
      <point x="252" y="473"/>
      <point x="199" y="527"/>
      <point x="132" y="527" type="curve" smooth="yes"/>
      <point x="66" y="527"/>
      <point x="12" y="473"/>
      <point x="12" y="407" type="curve"/>
      <point x="12" y="122" type="line"/>
      <point x="12" y="55"/>
      <point x="66" y="1"/>
      <point x="132" y="1" type="curve" smooth="yes"/>
      <point x="199" y="1"/>
      <point x="252" y="55"/>
      <point x="252" y="122" type="curve"/>
      <point x="252" y="154" type="line"/>
      <point x="203" y="154" type="line"/>
      <point x="203" y="122" type="line"/>
      <point x="203" y="82"/>
      <point x="171" y="50"/>
      <point x="132" y="50" type="curve" smooth="yes"/>
      <point x="93" y="50"/>
      <point x="61" y="82"/>
      <point x="61" y="122" type="curve"/>
      <point x="61" y="230" type="line"/>
    </contour>
    <contour>
      <point x="61" y="407" type="line"/>
      <point x="61" y="446"/>
      <point x="93" y="478"/>
      <point x="132" y="478" type="curve" smooth="yes"/>
      <point x="171" y="478"/>
      <point x="203" y="446"/>
      <point x="203" y="407" type="curve"/>
      <point x="203" y="314" type="line"/>
      <point x="195" y="295"/>
      <point x="177" y="280"/>
      <point x="159" y="280" type="curve"/>
      <point x="61" y="280" type="line"/>
    </contour>
  </outline>
</glyph>
<glyph name="f" format="1">
  <advance width="228"/>
  <unicode hex="0066"/>
  <outline>
    <contour>
      <point x="130" y="646" type="line"/>
      <point x="130" y="685"/>
      <point x="162" y="718"/>
      <point x="202" y="718" type="curve" smooth="yes"/>
      <point x="216" y="718"/>
      <point x="226" y="729"/>
      <point x="226" y="742" type="curve" smooth="yes"/>
      <point x="226" y="756"/>
      <point x="216" y="767"/>
      <point x="202" y="767" type="curve" smooth="yes"/>
      <point x="135" y="767"/>
      <point x="80" y="712"/>
      <point x="80" y="646" type="curve"/>
      <point x="80" y="572" type="line"/>
      <point x="21" y="572" type="line"/>
      <point x="7" y="572"/>
      <point x="-3" y="561"/>
      <point x="-3" y="547" type="curve" smooth="yes"/>
      <point x="-3" y="534"/>
      <point x="7" y="522"/>
      <point x="21" y="522" type="curve"/>
      <point x="80" y="522" type="line"/>
      <point x="80" y="25" type="line"/>
      <point x="80" y="12"/>
      <point x="91" y="1"/>
      <point x="105" y="1" type="curve" smooth="yes"/>
      <point x="118" y="1"/>
      <point x="130" y="12"/>
      <point x="130" y="25" type="curve"/>
      <point x="130" y="522" type="line"/>
      <point x="156" y="521"/>
      <point x="174" y="513"/>
      <point x="174" y="485" type="curve" smooth="yes"/>
      <point x="174" y="471"/>
      <point x="185" y="461"/>
      <point x="198" y="461" type="curve" smooth="yes"/>
      <point x="213" y="461"/>
      <point x="224" y="471"/>
      <point x="224" y="485" type="curve" smooth="yes"/>
      <point x="224" y="541"/>
      <point x="183" y="567"/>
      <point x="130" y="571" type="curve"/>
    </contour>
  </outline>
</glyph>
<glyph name="g" format="1">
  <advance width="259"/>
  <unicode hex="0067"/>
  <outline>
    <contour>
      <point x="122" y="527" type="curve" smooth="yes"/>
      <point x="56" y="527"/>
      <point x="3" y="472"/>
      <point x="3" y="406" type="curve"/>
      <point x="3" y="121" type="line"/>
      <point x="3" y="55"/>
      <point x="56" y="1"/>
      <point x="122" y="1" type="curve" smooth="yes"/>
      <point x="149" y="1"/>
      <point x="174" y="10"/>
      <point x="194" y="23" type="curve"/>
      <point x="194" y="-112" type="line"/>
      <point x="194" y="-151"/>
      <point x="161" y="-183"/>
      <point x="122" y="-183" type="curve" smooth="yes"/>
      <point x="109" y="-183"/>
      <point x="98" y="-194"/>
      <point x="98" y="-207" type="curve" smooth="yes"/>
      <point x="98" y="-221"/>
      <point x="109" y="-232"/>
      <point x="122" y="-232" type="curve" smooth="yes"/>
      <point x="189" y="-232"/>
      <point x="242" y="-178"/>
      <point x="242" y="-112" type="curve"/>
      <point x="242" y="406" type="line"/>
      <point x="242" y="472"/>
      <point x="189" y="527"/>
    </contour>
    <contour>
      <point x="194" y="121" type="line"/>
      <point x="194" y="82"/>
      <point x="161" y="50"/>
      <point x="122" y="50" type="curve" smooth="yes"/>
      <point x="83" y="50"/>
      <point x="51" y="82"/>
      <point x="51" y="121" type="curve"/>
      <point x="51" y="406" type="line"/>
      <point x="51" y="446"/>
      <point x="83" y="478"/>
      <point x="122" y="478" type="curve" smooth="yes"/>
      <point x="161" y="478"/>
      <point x="194" y="446"/>
      <point x="194" y="406" type="curve"/>
    </contour>
  </outline>
</glyph>
<glyph name="h" format="1">
  <advance width="262"/>
  <unicode hex="0068"/>
  <outline>
    <contour>
      <point x="255" y="24" type="line"/>
      <point x="255" y="11"/>
      <point x="244" y="0"/>
      <point x="231" y="0" type="curve" smooth="yes"/>
      <point x="217" y="0"/>
      <point x="206" y="11"/>
      <point x="206" y="24" type="curve"/>
      <point x="206" y="416" type="line"/>
      <point x="206" y="455"/>
      <point x="174" y="488"/>
      <point x="134" y="488" type="curve" smooth="yes"/>
      <point x="94" y="488"/>
      <point x="62" y="455"/>
      <point x="62" y="416" type="curve"/>
      <point x="62" y="24" type="line"/>
      <point x="62" y="11"/>
      <point x="51" y="0"/>
      <point x="38" y="0" type="curve" smooth="yes"/>
      <point x="24" y="0"/>
      <point x="13" y="11"/>
      <point x="13" y="24" type="curve"/>
      <point x="13" y="647" type="line"/>
      <point x="13" y="713"/>
      <point x="67" y="768"/>
      <point x="134" y="768" type="curve" smooth="yes"/>
      <point x="148" y="768"/>
      <point x="159" y="757"/>
      <point x="159" y="743" type="curve" smooth="yes"/>
      <point x="159" y="730"/>
      <point x="148" y="719"/>
      <point x="134" y="719" type="curve" smooth="yes"/>
      <point x="94" y="719"/>
      <point x="62" y="686"/>
      <point x="62" y="647" type="curve"/>
      <point x="62" y="513" type="line"/>
      <point x="83" y="528"/>
      <point x="107" y="537"/>
      <point x="134" y="537" type="curve" smooth="yes"/>
      <point x="201" y="537"/>
      <point x="255" y="482"/>
      <point x="255" y="416" type="curve"/>
    </contour>
  </outline>
</glyph>
<glyph name="i" format="1">
  <advance width="123"/>
  <unicode hex="0069"/>
  <outline>
    <contour>
      <point x="11" y="501" type="curve" smooth="yes"/>
      <point x="5" y="501"/>
      <point x="-3" y="481"/>
      <point x="-3" y="477" type="curve" smooth="yes"/>
      <point x="-3" y="471"/>
      <point x="5" y="448"/>
      <point x="11" y="448" type="curve" smooth="yes"/>
      <point x="60" y="448"/>
      <point x="53" y="442"/>
      <point x="53" y="395" type="curve"/>
      <point x="53" y="11" type="line"/>
      <point x="54" y="3"/>
      <point x="72" y="-1"/>
      <point x="78" y="-1" type="curve" smooth="yes"/>
      <point x="83" y="-1"/>
      <point x="102" y="4"/>
      <point x="102" y="11" type="curve"/>
      <point x="102" y="395" type="line"/>
      <point x="102" y="454"/>
      <point x="69" y="501"/>
    </contour>
    <contour>
      <point x="76" y="527" type="curve" smooth="yes"/>
      <point x="89" y="527"/>
      <point x="100" y="538"/>
      <point x="100" y="552" type="curve"/>
      <point x="100" y="564" type="line"/>
      <point x="100" y="578"/>
      <point x="89" y="589"/>
      <point x="76" y="589" type="curve" smooth="yes"/>
      <point x="62" y="589"/>
      <point x="51" y="578"/>
      <point x="51" y="564" type="curve"/>
      <point x="51" y="552" type="line"/>
      <point x="51" y="538"/>
      <point x="62" y="527"/>
    </contour>
  </outline>
</glyph>
<glyph name="j" format="1">
  <advance width="235"/>
  <unicode hex="006A"/>
  <outline>
    <contour>
      <point x="148" y="528" type="curve" smooth="yes"/>
      <point x="133" y="528"/>
      <point x="121" y="516"/>
      <point x="121" y="501" type="curve"/>
      <point x="121" y="-106" type="line"/>
      <point x="121" y="-144"/>
      <point x="91" y="-173"/>
      <point x="54" y="-173" type="curve" smooth="yes"/>
      <point x="38" y="-173"/>
      <point x="27" y="-185"/>
      <point x="27" y="-200" type="curve" smooth="yes"/>
      <point x="27" y="-216"/>
      <point x="38" y="-227"/>
      <point x="54" y="-227" type="curve" smooth="yes"/>
      <point x="121" y="-227"/>
      <point x="175" y="-173"/>
      <point x="175" y="-106" type="curve"/>
      <point x="175" y="501" type="line"/>
      <point x="175" y="516"/>
      <point x="164" y="528"/>
    </contour>
    <contour>
      <point x="148" y="606" type="curve" smooth="yes"/>
      <point x="133" y="606"/>
      <point x="121" y="594"/>
      <point x="121" y="579" type="curve"/>
      <point x="121" y="567" type="line"/>
      <point x="121" y="552"/>
      <point x="133" y="539"/>
      <point x="148" y="539" type="curve" smooth="yes"/>
      <point x="164" y="539"/>
      <point x="175" y="552"/>
      <point x="175" y="567" type="curve"/>
      <point x="175" y="579" type="line"/>
      <point x="175" y="594"/>
      <point x="164" y="606"/>
    </contour>
  </outline>
</glyph>
<glyph name="k" format="1">
  <advance width="280"/>
  <unicode hex="006B"/>
  <outline>
    <contour>
      <point x="277" y="41" type="curve" smooth="yes"/>
      <point x="272" y="53"/>
      <point x="257" y="58"/>
      <point x="244" y="54" type="curve" smooth="yes"/>
      <point x="237" y="51"/>
      <point x="228" y="49"/>
      <point x="218" y="49" type="curve" smooth="yes"/>
      <point x="189" y="49"/>
      <point x="162" y="66"/>
      <point x="151" y="94" type="curve"/>
      <point x="66" y="303" type="line"/>
      <point x="67" y="302" type="line"/>
      <point x="67" y="303"/>
      <point x="66" y="303"/>
      <point x="66" y="304" type="curve"/>
      <point x="71" y="307"/>
      <point x="73" y="312"/>
      <point x="78" y="320" type="curve"/>
      <point x="128" y="443" type="line"/>
      <point x="140" y="468"/>
      <point x="169" y="489"/>
      <point x="195" y="489" type="curve" smooth="yes"/>
      <point x="204" y="489"/>
      <point x="211" y="487"/>
      <point x="220" y="484" type="curve" smooth="yes"/>
      <point x="234" y="478"/>
      <point x="247" y="484"/>
      <point x="252" y="497" type="curve" smooth="yes"/>
      <point x="258" y="509"/>
      <point x="251" y="524"/>
      <point x="240" y="529" type="curve" smooth="yes"/>
      <point x="224" y="536"/>
      <point x="209" y="538"/>
      <point x="194" y="538" type="curve" smooth="yes"/>
      <point x="145" y="538"/>
      <point x="99" y="510"/>
      <point x="81" y="462" type="curve"/>
      <point x="82" y="462" type="line"/>
      <point x="62" y="414" type="line"/>
      <point x="62" y="645" type="line"/>
      <point x="62" y="685"/>
      <point x="95" y="717"/>
      <point x="134" y="717" type="curve" smooth="yes"/>
      <point x="149" y="717"/>
      <point x="160" y="729"/>
      <point x="160" y="742" type="curve" smooth="yes"/>
      <point x="160" y="756"/>
      <point x="149" y="767"/>
      <point x="134" y="767" type="curve" smooth="yes"/>
      <point x="67" y="767"/>
      <point x="14" y="712"/>
      <point x="14" y="645" type="curve"/>
      <point x="14" y="24" type="line"/>
      <point x="14" y="11"/>
      <point x="24" y="0"/>
      <point x="38" y="0" type="curve" smooth="yes"/>
      <point x="52" y="0"/>
      <point x="62" y="11"/>
      <point x="62" y="24" type="curve"/>
      <point x="62" y="181" type="line"/>
      <point x="81" y="135"/>
      <point x="88" y="122"/>
      <point x="106" y="76" type="curve"/>
      <point x="105" y="76" type="line"/>
      <point x="124" y="27"/>
      <point x="169" y="0"/>
      <point x="218" y="0" type="curve" smooth="yes"/>
      <point x="234" y="0"/>
      <point x="248" y="2"/>
      <point x="264" y="9" type="curve" smooth="yes"/>
      <point x="276" y="14"/>
      <point x="282" y="28"/>
    </contour>
  </outline>
</glyph>
<glyph name="l" format="1">
  <advance width="244"/>
  <unicode hex="006C"/>
  <outline>
    <contour>
      <point x="177" y="763" type="curve" smooth="yes"/>
      <point x="108" y="763"/>
      <point x="53" y="708"/>
      <point x="53" y="640" type="curve"/>
      <point x="53" y="27" type="line"/>
      <point x="53" y="12"/>
      <point x="65" y="0"/>
      <point x="80" y="0" type="curve" smooth="yes"/>
      <point x="95" y="0"/>
      <point x="108" y="12"/>
      <point x="108" y="27" type="curve"/>
      <point x="108" y="640" type="line"/>
      <point x="108" y="677"/>
      <point x="139" y="708"/>
      <point x="177" y="708" type="curve" smooth="yes"/>
      <point x="192" y="708"/>
      <point x="204" y="722"/>
      <point x="204" y="736" type="curve" smooth="yes"/>
      <point x="204" y="751"/>
      <point x="192" y="763"/>
    </contour>
  </outline>
</glyph>
<glyph name="m" format="1">
  <advance width="598"/>
  <unicode hex="006D"/>
  <outline>
    <contour>
      <point x="405" y="526" type="curve" smooth="yes"/>
      <point x="365" y="526"/>
      <point x="331" y="509"/>
      <point x="309" y="480" type="curve"/>
      <point x="285" y="509"/>
      <point x="253" y="526"/>
      <point x="214" y="526" type="curve" smooth="yes"/>
      <point x="179" y="526"/>
      <point x="149" y="512"/>
      <point x="126" y="487" type="curve"/>
      <point x="111" y="514"/>
      <point x="88" y="526"/>
      <point x="52" y="526" type="curve" smooth="yes"/>
      <point x="37" y="526"/>
      <point x="25" y="514"/>
      <point x="25" y="499" type="curve" smooth="yes"/>
      <point x="25" y="484"/>
      <point x="37" y="472"/>
      <point x="52" y="472" type="curve" smooth="yes"/>
      <point x="86" y="472"/>
      <point x="92" y="441"/>
      <point x="92" y="405" type="curve"/>
      <point x="92" y="25" type="line"/>
      <point x="92" y="10"/>
      <point x="103" y="-2"/>
      <point x="119" y="-2" type="curve" smooth="yes"/>
      <point x="134" y="-2"/>
      <point x="146" y="10"/>
      <point x="146" y="25" type="curve"/>
      <point x="146" y="405" type="line"/>
      <point x="146" y="441"/>
      <point x="177" y="472"/>
      <point x="214" y="472" type="curve" smooth="yes"/>
      <point x="251" y="472"/>
      <point x="282" y="441"/>
      <point x="282" y="405" type="curve"/>
      <point x="282" y="25" type="line"/>
      <point x="282" y="10"/>
      <point x="293" y="-2"/>
      <point x="309" y="-2" type="curve" smooth="yes"/>
      <point x="326" y="-2"/>
      <point x="337" y="10"/>
      <point x="337" y="25" type="curve"/>
      <point x="337" y="405" type="line"/>
      <point x="337" y="441"/>
      <point x="367" y="472"/>
      <point x="405" y="472" type="curve" smooth="yes"/>
      <point x="442" y="472"/>
      <point x="472" y="441"/>
      <point x="472" y="405" type="curve"/>
      <point x="472" y="25" type="line"/>
      <point x="472" y="10"/>
      <point x="484" y="-2"/>
      <point x="499" y="-2" type="curve" smooth="yes"/>
      <point x="515" y="-2"/>
      <point x="526" y="10"/>
      <point x="526" y="25" type="curve"/>
      <point x="526" y="405" type="line"/>
      <point x="526" y="472"/>
      <point x="472" y="526"/>
    </contour>
  </outline>
</glyph>
<glyph name="n" format="1">
  <advance width="382"/>
  <unicode hex="006E"/>
  <outline>
    <contour>
      <point x="196" y="527" type="curve" smooth="yes"/>
      <point x="160" y="527"/>
      <point x="130" y="514"/>
      <point x="108" y="489" type="curve"/>
      <point x="93" y="514"/>
      <point x="69" y="527"/>
      <point x="34" y="527" type="curve" smooth="yes"/>
      <point x="18" y="527"/>
      <point x="7" y="515"/>
      <point x="7" y="500" type="curve" smooth="yes"/>
      <point x="7" y="485"/>
      <point x="18" y="473"/>
      <point x="34" y="473" type="curve" smooth="yes"/>
      <point x="69" y="473"/>
      <point x="73" y="442"/>
      <point x="73" y="406" type="curve"/>
      <point x="73" y="27" type="line"/>
      <point x="73" y="12"/>
      <point x="85" y="0"/>
      <point x="100" y="0" type="curve" smooth="yes"/>
      <point x="116" y="0"/>
      <point x="127" y="12"/>
      <point x="127" y="27" type="curve"/>
      <point x="127" y="406" type="line"/>
      <point x="127" y="442"/>
      <point x="158" y="473"/>
      <point x="196" y="473" type="curve" smooth="yes"/>
      <point x="232" y="473"/>
      <point x="263" y="442"/>
      <point x="263" y="406" type="curve"/>
      <point x="263" y="27" type="line"/>
      <point x="263" y="12"/>
      <point x="275" y="0"/>
      <point x="290" y="0" type="curve" smooth="yes"/>
      <point x="306" y="0"/>
      <point x="317" y="12"/>
      <point x="317" y="27" type="curve"/>
      <point x="317" y="406" type="line"/>
      <point x="317" y="473"/>
      <point x="263" y="527"/>
    </contour>
  </outline>
</glyph>
<glyph name="o" format="1">
  <advance width="348"/>
  <unicode hex="006F"/>
  <outline>
    <contour>
      <point x="170" y="-2" type="curve" smooth="yes"/>
      <point x="236" y="-2"/>
      <point x="292" y="54"/>
      <point x="292" y="120" type="curve"/>
      <point x="292" y="404" type="line"/>
      <point x="292" y="472"/>
      <point x="236" y="526"/>
      <point x="170" y="526" type="curve" smooth="yes"/>
      <point x="103" y="526"/>
      <point x="47" y="472"/>
      <point x="47" y="404" type="curve"/>
      <point x="47" y="120" type="line"/>
      <point x="47" y="54"/>
      <point x="103" y="-2"/>
    </contour>
    <contour>
      <point x="101" y="404" type="line"/>
      <point x="101" y="441"/>
      <point x="132" y="472"/>
      <point x="170" y="472" type="curve" smooth="yes"/>
      <point x="207" y="472"/>
      <point x="238" y="441"/>
      <point x="238" y="404" type="curve"/>
      <point x="238" y="120" type="line"/>
      <point x="238" y="83"/>
      <point x="207" y="52"/>
      <point x="170" y="52" type="curve" smooth="yes"/>
      <point x="132" y="52"/>
      <point x="101" y="83"/>
      <point x="101" y="120" type="curve"/>
    </contour>
  </outline>
</glyph>
<glyph name="p" format="1">
  <advance width="349"/>
  <unicode hex="0070"/>
  <outline>
    <contour>
      <point x="220" y="528" type="curve" smooth="yes"/>
      <point x="192" y="528"/>
      <point x="168" y="518"/>
      <point x="147" y="504" type="curve"/>
      <point x="146" y="517"/>
      <point x="136" y="527"/>
      <point x="123" y="527" type="curve" smooth="yes"/>
      <point x="109" y="527"/>
      <point x="99" y="516"/>
      <point x="99" y="502" type="curve"/>
      <point x="99" y="-115" type="line"/>
      <point x="99" y="-154"/>
      <point x="67" y="-187"/>
      <point x="27" y="-187" type="curve" smooth="yes"/>
      <point x="13" y="-187"/>
      <point x="2" y="-198"/>
      <point x="2" y="-211" type="curve" smooth="yes"/>
      <point x="2" y="-225"/>
      <point x="13" y="-236"/>
      <point x="27" y="-236" type="curve" smooth="yes"/>
      <point x="94" y="-236"/>
      <point x="147" y="-181"/>
      <point x="147" y="-115" type="curve"/>
      <point x="147" y="23" type="line"/>
      <point x="168" y="8"/>
      <point x="192" y="-1"/>
      <point x="220" y="-1" type="curve" smooth="yes"/>
      <point x="287" y="-1"/>
      <point x="341" y="53"/>
      <point x="341" y="120" type="curve"/>
      <point x="341" y="407" type="line"/>
      <point x="341" y="473"/>
      <point x="287" y="528"/>
    </contour>
    <contour>
      <point x="293" y="120" type="line"/>
      <point x="293" y="80"/>
      <point x="259" y="48"/>
      <point x="220" y="48" type="curve" smooth="yes"/>
      <point x="181" y="48"/>
      <point x="148" y="80"/>
      <point x="148" y="120" type="curve"/>
      <point x="148" y="407" type="line"/>
      <point x="148" y="446"/>
      <point x="181" y="479"/>
      <point x="220" y="479" type="curve" smooth="yes"/>
      <point x="259" y="479"/>
      <point x="293" y="446"/>
      <point x="293" y="407" type="curve"/>
    </contour>
  </outline>
</glyph>
<glyph name="q" format="1">
  <advance width="349"/>
  <unicode hex="0071"/>
  <outline>
    <contour>
      <point x="318" y="-188" type="curve" smooth="yes"/>
      <point x="279" y="-188"/>
      <point x="246" y="-155"/>
      <point x="246" y="-116" type="curve"/>
      <point x="246" y="501" type="line"/>
      <point x="246" y="514"/>
      <point x="235" y="526"/>
      <point x="221" y="526" type="curve" smooth="yes"/>
      <point x="208" y="526"/>
      <point x="198" y="515"/>
      <point x="197" y="503" type="curve"/>
      <point x="177" y="517"/>
      <point x="151" y="527"/>
      <point x="125" y="527" type="curve" smooth="yes"/>
      <point x="58" y="527"/>
      <point x="3" y="472"/>
      <point x="3" y="406" type="curve"/>
      <point x="3" y="119" type="line"/>
      <point x="3" y="52"/>
      <point x="58" y="-2"/>
      <point x="125" y="-2" type="curve" smooth="yes"/>
      <point x="150" y="-2"/>
      <point x="178" y="8"/>
      <point x="197" y="21" type="curve"/>
      <point x="197" y="-116" type="line"/>
      <point x="197" y="-182"/>
      <point x="251" y="-237"/>
      <point x="318" y="-237" type="curve" smooth="yes"/>
      <point x="332" y="-237"/>
      <point x="342" y="-226"/>
      <point x="342" y="-212" type="curve" smooth="yes"/>
      <point x="342" y="-199"/>
      <point x="332" y="-188"/>
    </contour>
    <contour>
      <point x="196" y="406" type="curve"/>
      <point x="196" y="119" type="line"/>
      <point x="196" y="79"/>
      <point x="164" y="47"/>
      <point x="125" y="47" type="curve" smooth="yes"/>
      <point x="85" y="47"/>
      <point x="53" y="79"/>
      <point x="53" y="119" type="curve"/>
      <point x="53" y="406" type="line"/>
      <point x="53" y="445"/>
      <point x="85" y="478"/>
      <point x="125" y="478" type="curve" smooth="yes"/>
      <point x="164" y="478"/>
      <point x="196" y="445"/>
    </contour>
  </outline>
</glyph>
<glyph name="r" format="1">
  <advance width="152"/>
  <unicode hex="0072"/>
  <outline>
    <contour>
      <point x="132" y="525" type="curve" smooth="yes"/>
      <point x="65" y="525"/>
      <point x="12" y="471"/>
      <point x="12" y="406" type="curve"/>
      <point x="12" y="23" type="line"/>
      <point x="12" y="10"/>
      <point x="23" y="-1"/>
      <point x="36" y="-1" type="curve" smooth="yes"/>
      <point x="50" y="-1"/>
      <point x="61" y="10"/>
      <point x="61" y="23" type="curve"/>
      <point x="61" y="406" type="line"/>
      <point x="61" y="445"/>
      <point x="93" y="476"/>
      <point x="132" y="476" type="curve" smooth="yes"/>
      <point x="145" y="476"/>
      <point x="156" y="487"/>
      <point x="156" y="501" type="curve" smooth="yes"/>
      <point x="156" y="514"/>
      <point x="145" y="525"/>
    </contour>
  </outline>
</glyph>
<glyph name="s" format="1">
  <advance width="264"/>
  <unicode hex="0073"/>
  <outline>
    <contour>
      <point x="251" y="380" type="line"/>
      <point x="251" y="406" type="line"/>
      <point x="251" y="472"/>
      <point x="197" y="527"/>
      <point x="130" y="527" type="curve" smooth="yes"/>
      <point x="63" y="527"/>
      <point x="10" y="472"/>
      <point x="10" y="406" type="curve"/>
      <point x="10" y="344" type="line"/>
      <point x="10" y="317"/>
      <point x="18" y="290"/>
      <point x="33" y="271" type="curve"/>
      <point x="37" y="266" type="line"/>
      <point x="36" y="267" type="line"/>
      <point x="39" y="263"/>
      <point x="44" y="258"/>
      <point x="47" y="254" type="curve" smooth="yes"/>
      <point x="62" y="243"/>
      <point x="81" y="234"/>
      <point x="100" y="233" type="curve"/>
      <point x="162" y="233" type="line"/>
      <point x="179" y="231"/>
      <point x="194" y="220"/>
      <point x="201" y="205" type="curve"/>
      <point x="201" y="173" type="line"/>
      <point x="202" y="120" type="line"/>
      <point x="202" y="80"/>
      <point x="169" y="48"/>
      <point x="130" y="48" type="curve" smooth="yes"/>
      <point x="90" y="48"/>
      <point x="58" y="80"/>
      <point x="58" y="120" type="curve"/>
      <point x="58" y="150" type="line"/>
      <point x="10" y="150" type="line"/>
      <point x="10" y="120" type="line"/>
      <point x="10" y="53"/>
      <point x="64" y="-1"/>
      <point x="130" y="-1" type="curve" smooth="yes"/>
      <point x="197" y="-1"/>
      <point x="251" y="53"/>
      <point x="251" y="120" type="curve"/>
      <point x="251" y="198" type="line"/>
      <point x="247" y="215"/>
      <point x="241" y="228"/>
      <point x="235" y="237" type="curve" smooth="yes"/>
      <point x="228" y="246"/>
      <point x="218" y="257"/>
      <point x="212" y="262" type="curve" smooth="yes"/>
      <point x="198" y="273"/>
      <point x="181" y="281"/>
      <point x="163" y="282" type="curve"/>
      <point x="101" y="282" type="line"/>
      <point x="84" y="283"/>
      <point x="66" y="299"/>
      <point x="58" y="318" type="curve"/>
      <point x="58" y="406" type="line"/>
      <point x="58" y="445"/>
      <point x="90" y="477"/>
      <point x="130" y="477" type="curve" smooth="yes"/>
      <point x="169" y="477"/>
      <point x="201" y="445"/>
      <point x="201" y="406" type="curve"/>
      <point x="201" y="380" type="line"/>
    </contour>
  </outline>
</glyph>
<glyph name="t" format="1">
  <advance width="227"/>
  <unicode hex="0074"/>
  <outline>
    <contour>
      <point x="201" y="49" type="curve" smooth="yes"/>
      <point x="161" y="49"/>
      <point x="129" y="82"/>
      <point x="129" y="121" type="curve"/>
      <point x="129" y="521" type="line"/>
      <point x="183" y="526"/>
      <point x="224" y="552"/>
      <point x="224" y="608" type="curve" smooth="yes"/>
      <point x="224" y="621"/>
      <point x="213" y="632"/>
      <point x="199" y="632" type="curve" smooth="yes"/>
      <point x="186" y="632"/>
      <point x="175" y="621"/>
      <point x="175" y="608" type="curve" smooth="yes"/>
      <point x="175" y="583"/>
      <point x="152" y="574"/>
      <point x="129" y="571" type="curve"/>
      <point x="129" y="742" type="line"/>
      <point x="129" y="756"/>
      <point x="118" y="767"/>
      <point x="105" y="767" type="curve" smooth="yes"/>
      <point x="90" y="767"/>
      <point x="79" y="756"/>
      <point x="79" y="742" type="curve"/>
      <point x="79" y="570" type="line"/>
      <point x="22" y="570" type="line"/>
      <point x="8" y="570"/>
      <point x="-3" y="559"/>
      <point x="-3" y="546" type="curve" smooth="yes"/>
      <point x="-3" y="532"/>
      <point x="8" y="521"/>
      <point x="22" y="521" type="curve"/>
      <point x="79" y="521" type="line"/>
      <point x="79" y="121" type="line"/>
      <point x="79" y="55"/>
      <point x="134" y="0"/>
      <point x="201" y="0" type="curve" smooth="yes"/>
      <point x="215" y="0"/>
      <point x="225" y="11"/>
      <point x="225" y="24" type="curve" smooth="yes"/>
      <point x="225" y="38"/>
      <point x="215" y="49"/>
    </contour>
  </outline>
</glyph>
<glyph name="u" format="1">
  <advance width="398"/>
  <unicode hex="0075"/>
  <outline>
    <contour>
      <point x="337" y="54" type="curve" smooth="yes"/>
      <point x="304" y="54"/>
      <point x="299" y="84"/>
      <point x="299" y="121" type="curve"/>
      <point x="299" y="500" type="line"/>
      <point x="299" y="515"/>
      <point x="287" y="527"/>
      <point x="272" y="527" type="curve" smooth="yes"/>
      <point x="256" y="527"/>
      <point x="245" y="515"/>
      <point x="245" y="500" type="curve"/>
      <point x="245" y="121" type="line"/>
      <point x="245" y="84"/>
      <point x="214" y="54"/>
      <point x="177" y="54" type="curve" smooth="yes"/>
      <point x="140" y="54"/>
      <point x="110" y="84"/>
      <point x="110" y="121" type="curve"/>
      <point x="110" y="500" type="line"/>
      <point x="110" y="515"/>
      <point x="96" y="527"/>
      <point x="83" y="527" type="curve" smooth="yes"/>
      <point x="67" y="527"/>
      <point x="56" y="515"/>
      <point x="56" y="500" type="curve"/>
      <point x="56" y="121" type="line"/>
      <point x="56" y="54"/>
      <point x="110" y="0"/>
      <point x="177" y="0" type="curve" smooth="yes"/>
      <point x="212" y="0"/>
      <point x="242" y="13"/>
      <point x="264" y="37" type="curve"/>
      <point x="279" y="13"/>
      <point x="304" y="0"/>
      <point x="337" y="0" type="curve" smooth="yes"/>
      <point x="353" y="0"/>
      <point x="364" y="12"/>
      <point x="364" y="27" type="curve" smooth="yes"/>
      <point x="364" y="42"/>
      <point x="353" y="54"/>
    </contour>
  </outline>
</glyph>
<glyph name="v" format="1">
  <advance width="284"/>
  <unicode hex="0076"/>
  <outline>
    <contour>
      <point x="208" y="523" type="curve"/>
      <point x="196" y="528"/>
      <point x="182" y="519"/>
      <point x="178" y="507" type="curve" smooth="yes"/>
      <point x="174" y="494"/>
      <point x="181" y="480"/>
      <point x="194" y="476" type="curve" smooth="yes"/>
      <point x="214" y="470"/>
      <point x="221" y="457"/>
      <point x="221" y="440" type="curve" smooth="yes"/>
      <point x="221" y="429"/>
      <point x="217" y="414"/>
      <point x="212" y="397" type="curve"/>
      <point x="137" y="115" type="line"/>
      <point x="67" y="397" type="line"/>
      <point x="62" y="414"/>
      <point x="59" y="428"/>
      <point x="59" y="440" type="curve" smooth="yes"/>
      <point x="59" y="457"/>
      <point x="66" y="471"/>
      <point x="87" y="476" type="curve" smooth="yes"/>
      <point x="100" y="480"/>
      <point x="107" y="494"/>
      <point x="103" y="507" type="curve"/>
      <point x="103" y="506" type="line"/>
      <point x="100" y="519"/>
      <point x="87" y="526"/>
      <point x="73" y="523" type="curve"/>
      <point x="31" y="509"/>
      <point x="12" y="478"/>
      <point x="12" y="438" type="curve" smooth="yes"/>
      <point x="12" y="421"/>
      <point x="15" y="402"/>
      <point x="20" y="384" type="curve"/>
      <point x="112" y="16" type="line"/>
      <point x="116" y="2"/>
      <point x="129" y="-4"/>
      <point x="142" y="-1" type="curve"/>
      <point x="151" y="0"/>
      <point x="158" y="6"/>
      <point x="161" y="16" type="curve"/>
      <point x="259" y="383" type="line"/>
      <point x="265" y="401"/>
      <point x="269" y="421"/>
      <point x="269" y="438" type="curve" smooth="yes"/>
      <point x="269" y="477"/>
      <point x="252" y="509"/>
    </contour>
  </outline>
</glyph>
<glyph name="w" format="1">
  <advance width="561"/>
  <unicode hex="0077"/>
  <outline>
    <contour>
      <point x="451" y="524" type="curve" smooth="yes"/>
      <point x="437" y="528"/>
      <point x="421" y="521"/>
      <point x="417" y="507" type="curve" smooth="yes"/>
      <point x="412" y="491"/>
      <point x="421" y="477"/>
      <point x="435" y="472" type="curve" smooth="yes"/>
      <point x="454" y="466"/>
      <point x="460" y="456"/>
      <point x="460" y="440" type="curve" smooth="yes"/>
      <point x="460" y="430"/>
      <point x="456" y="414"/>
      <point x="451" y="398" type="curve"/>
      <point x="378" y="124" type="line"/>
      <point x="313" y="325" type="line"/>
      <point x="308" y="340"/>
      <point x="305" y="356"/>
      <point x="305" y="366" type="curve" smooth="yes"/>
      <point x="305" y="382"/>
      <point x="311" y="394"/>
      <point x="330" y="399" type="curve"/>
      <point x="344" y="404"/>
      <point x="352" y="418"/>
      <point x="349" y="432" type="curve"/>
      <point x="344" y="446"/>
      <point x="329" y="454"/>
      <point x="314" y="451" type="curve"/>
      <point x="301" y="447"/>
      <point x="287" y="439"/>
      <point x="278" y="431" type="curve"/>
      <point x="268" y="439"/>
      <point x="258" y="445"/>
      <point x="242" y="451" type="curve"/>
      <point x="227" y="455"/>
      <point x="212" y="448"/>
      <point x="207" y="434" type="curve"/>
      <point x="208" y="434" type="line"/>
      <point x="204" y="419"/>
      <point x="212" y="405"/>
      <point x="226" y="400" type="curve" smooth="yes"/>
      <point x="245" y="394"/>
      <point x="251" y="382"/>
      <point x="251" y="367" type="curve" smooth="yes"/>
      <point x="251" y="356"/>
      <point x="247" y="341"/>
      <point x="242" y="325" type="curve"/>
      <point x="243" y="325" type="line"/>
      <point x="220" y="257"/>
      <point x="196" y="191"/>
      <point x="172" y="124" type="curve"/>
      <point x="103" y="399" type="line"/>
      <point x="99" y="414"/>
      <point x="96" y="429"/>
      <point x="96" y="440" type="curve" smooth="yes"/>
      <point x="96" y="456"/>
      <point x="102" y="469"/>
      <point x="122" y="474" type="curve"/>
      <point x="135" y="479"/>
      <point x="143" y="493"/>
      <point x="140" y="507" type="curve"/>
      <point x="135" y="522"/>
      <point x="120" y="530"/>
      <point x="106" y="527" type="curve"/>
      <point x="61" y="514"/>
      <point x="43" y="481"/>
      <point x="43" y="439" type="curve" smooth="yes"/>
      <point x="43" y="421"/>
      <point x="46" y="403"/>
      <point x="51" y="384" type="curve"/>
      <point x="51" y="385" type="line"/>
      <point x="143" y="18" type="line"/>
      <point x="147" y="5"/>
      <point x="161" y="-6"/>
      <point x="177" y="-1" type="curve" smooth="yes"/>
      <point x="184" y="2"/>
      <point x="192" y="8"/>
      <point x="196" y="17" type="curve"/>
      <point x="277" y="258" type="line"/>
      <point x="351" y="16" type="line"/>
      <point x="357" y="4"/>
      <point x="371" y="-6"/>
      <point x="386" y="-2" type="curve" smooth="yes"/>
      <point x="393" y="1"/>
      <point x="402" y="8"/>
      <point x="405" y="16" type="curve"/>
      <point x="503" y="382" type="line"/>
      <point x="509" y="401"/>
      <point x="513" y="420"/>
      <point x="513" y="438" type="curve" smooth="yes"/>
      <point x="513" y="479"/>
      <point x="496" y="511"/>
    </contour>
  </outline>
</glyph>
<glyph name="x" format="1">
  <advance width="354"/>
  <unicode hex="0078"/>
  <outline>
    <contour>
      <point x="203" y="229" type="line"/>
      <point x="290" y="371" type="line"/>
      <point x="310" y="399"/>
      <point x="323" y="430"/>
      <point x="323" y="456" type="curve" smooth="yes"/>
      <point x="323" y="480"/>
      <point x="310" y="503"/>
      <point x="287" y="522" type="curve"/>
      <point x="276" y="527"/>
      <point x="259" y="525"/>
      <point x="253" y="516" type="curve"/>
      <point x="248" y="506"/>
      <point x="250" y="489"/>
      <point x="258" y="482" type="curve" smooth="yes"/>
      <point x="268" y="474"/>
      <point x="275" y="464"/>
      <point x="275" y="454" type="curve" smooth="yes"/>
      <point x="275" y="438"/>
      <point x="263" y="420"/>
      <point x="250" y="400" type="curve"/>
      <point x="225" y="358"/>
      <point x="200" y="318"/>
      <point x="175" y="276" type="curve"/>
      <point x="100" y="400" type="line"/>
      <point x="86" y="420"/>
      <point x="74" y="438"/>
      <point x="74" y="454" type="curve" smooth="yes"/>
      <point x="74" y="464"/>
      <point x="81" y="474"/>
      <point x="91" y="482" type="curve" smooth="yes"/>
      <point x="101" y="490"/>
      <point x="105" y="506"/>
      <point x="97" y="516" type="curve" smooth="yes"/>
      <point x="90" y="526"/>
      <point x="73" y="527"/>
      <point x="63" y="522" type="curve"/>
      <point x="39" y="503"/>
      <point x="27" y="480"/>
      <point x="27" y="456" type="curve" smooth="yes"/>
      <point x="27" y="430"/>
      <point x="39" y="399"/>
      <point x="60" y="371" type="curve"/>
      <point x="146" y="229" type="line"/>
      <point x="31" y="38" type="line"/>
      <point x="26" y="27"/>
      <point x="27" y="11"/>
      <point x="36" y="3" type="curve"/>
      <point x="47" y="-4"/>
      <point x="62" y="-3"/>
      <point x="70" y="9" type="curve"/>
      <point x="105" y="66"/>
      <point x="141" y="124"/>
      <point x="175" y="181" type="curve"/>
      <point x="279" y="9" type="line"/>
      <point x="288" y="-3"/>
      <point x="302" y="-4"/>
      <point x="313" y="3" type="curve"/>
      <point x="323" y="11"/>
      <point x="324" y="27"/>
      <point x="319" y="38" type="curve"/>
    </contour>
  </outline>
</glyph>
<glyph name="y" format="1">
  <advance width="353"/>
  <unicode hex="0079"/>
  <outline>
    <contour>
      <point x="286" y="501" type="line"/>
      <point x="285" y="516"/>
      <point x="275" y="525"/>
      <point x="260" y="525" type="curve" smooth="yes"/>
      <point x="247" y="525"/>
      <point x="235" y="515"/>
      <point x="233" y="502" type="curve"/>
      <point x="233" y="121" type="line"/>
      <point x="233" y="84"/>
      <point x="203" y="54"/>
      <point x="166" y="54" type="curve" smooth="yes"/>
      <point x="128" y="54"/>
      <point x="98" y="84"/>
      <point x="98" y="121" type="curve"/>
      <point x="98" y="498" type="line"/>
      <point x="98" y="514"/>
      <point x="87" y="525"/>
      <point x="71" y="525" type="curve" smooth="yes"/>
      <point x="56" y="525"/>
      <point x="45" y="514"/>
      <point x="45" y="498" type="curve"/>
      <point x="45" y="121" type="line"/>
      <point x="45" y="54"/>
      <point x="98" y="0"/>
      <point x="166" y="0" type="curve" smooth="yes"/>
      <point x="191" y="0"/>
      <point x="214" y="7"/>
      <point x="233" y="20" type="curve"/>
      <point x="233" y="-104" type="line"/>
      <point x="233" y="-142"/>
      <point x="203" y="-171"/>
      <point x="166" y="-171" type="curve" smooth="yes"/>
      <point x="150" y="-171"/>
      <point x="139" y="-183"/>
      <point x="139" y="-198" type="curve" smooth="yes"/>
      <point x="139" y="-214"/>
      <point x="150" y="-225"/>
      <point x="166" y="-225" type="curve" smooth="yes"/>
      <point x="233" y="-225"/>
      <point x="287" y="-171"/>
      <point x="287" y="-104" type="curve"/>
      <point x="287" y="498" type="line"/>
      <point x="285" y="502" type="line"/>
    </contour>
  </outline>
</glyph>
<glyph name="z" format="1">
  <advance width="342"/>
  <unicode hex="007A"/>
  <outline>
    <contour>
      <point x="265" y="119" type="curve" smooth="yes"/>
      <point x="250" y="119"/>
      <point x="238" y="105"/>
      <point x="238" y="91" type="curve" smooth="yes"/>
      <point x="238" y="62"/>
      <point x="231" y="54"/>
      <point x="202" y="54" type="curve"/>
      <point x="110" y="54" type="line"/>
      <point x="170" y="202"/>
      <point x="226" y="338"/>
      <point x="285" y="486" type="curve"/>
      <point x="288" y="490"/>
      <point x="290" y="495"/>
      <point x="290" y="500" type="curve" smooth="yes"/>
      <point x="290" y="515"/>
      <point x="279" y="527"/>
      <point x="263" y="527" type="curve"/>
      <point x="139" y="527" type="line"/>
      <point x="75" y="527"/>
      <point x="47" y="499"/>
      <point x="47" y="436" type="curve" smooth="yes"/>
      <point x="47" y="422"/>
      <point x="59" y="408"/>
      <point x="74" y="408" type="curve" smooth="yes"/>
      <point x="90" y="408"/>
      <point x="101" y="422"/>
      <point x="101" y="436" type="curve" smooth="yes"/>
      <point x="101" y="465"/>
      <point x="109" y="473"/>
      <point x="139" y="473" type="curve"/>
      <point x="224" y="473" type="line"/>
      <point x="50" y="42" type="line"/>
      <point x="48" y="39"/>
      <point x="46" y="30"/>
      <point x="46" y="25" type="curve" smooth="yes"/>
      <point x="47" y="18"/>
      <point x="48" y="13"/>
      <point x="54" y="8" type="curve" smooth="yes"/>
      <point x="58" y="4"/>
      <point x="64" y="2"/>
      <point x="70" y="0" type="curve"/>
      <point x="202" y="0" type="line"/>
      <point x="265" y="0"/>
      <point x="292" y="28"/>
      <point x="292" y="91" type="curve" smooth="yes"/>
      <point x="292" y="105"/>
      <point x="281" y="119"/>
    </contour>
  </outline>
</glyph>
<glyph name="braceleft" format="1">
  <advance width="205"/>
  <unicode hex="007B"/>
  <outline>
    <contour>
      <point x="82" y="767" type="line"/>
      <point x="176" y="767" type="line"/>
      <point x="190" y="767"/>
      <point x="201" y="753"/>
      <point x="201" y="736" type="curve" smooth="yes"/>
      <point x="201" y="720"/>
      <point x="190" y="706"/>
      <point x="176" y="706" type="curve"/>
      <point x="133" y="706" type="line"/>
      <point x="133" y="418" type="line"/>
      <point x="127" y="411" type="line"/>
      <point x="128" y="412" type="line"/>
      <point x="95" y="367" type="line"/>
      <point x="59" y="320" type="line"/>
      <point x="95" y="272" type="line"/>
      <point x="127" y="231" type="line"/>
      <point x="133" y="220" type="line"/>
      <point x="133" y="-68" type="line"/>
      <point x="176" y="-68" type="line"/>
      <point x="190" y="-68"/>
      <point x="201" y="-82"/>
      <point x="201" y="-98" type="curve" smooth="yes"/>
      <point x="201" y="-115"/>
      <point x="190" y="-129"/>
      <point x="176" y="-129" type="curve"/>
      <point x="82" y="-129" type="line"/>
      <point x="82" y="207" type="line"/>
      <point x="76" y="213"/>
      <point x="-4" y="293"/>
      <point x="-4" y="320" type="curve" smooth="yes"/>
      <point x="-4" y="345"/>
      <point x="82" y="431"/>
      <point x="82" y="431" type="curve"/>
    </contour>
  </outline>
</glyph>
<glyph name="bar" format="1">
  <advance width="82"/>
  <unicode hex="007C"/>
  <outline>
    <contour>
      <point x="38" y="727" type="curve" smooth="yes"/>
      <point x="24" y="727"/>
      <point x="13" y="715"/>
      <point x="13" y="701" type="curve"/>
      <point x="13" y="25" type="line"/>
      <point x="13" y="11"/>
      <point x="24" y="0"/>
      <point x="38" y="0" type="curve" smooth="yes"/>
      <point x="52" y="0"/>
      <point x="64" y="11"/>
      <point x="64" y="25" type="curve"/>
      <point x="64" y="701" type="line"/>
      <point x="64" y="715"/>
      <point x="52" y="727"/>
    </contour>
  </outline>
</glyph>
<glyph name="braceright" format="1">
  <advance width="205"/>
  <unicode hex="007D"/>
  <outline>
    <contour>
      <point x="120" y="767" type="line"/>
      <point x="27" y="767" type="line"/>
      <point x="12" y="767"/>
      <point x="1" y="753"/>
      <point x="1" y="736" type="curve" smooth="yes"/>
      <point x="1" y="720"/>
      <point x="12" y="706"/>
      <point x="27" y="706" type="curve"/>
      <point x="70" y="706" type="line"/>
      <point x="70" y="418" type="line"/>
      <point x="70" y="417"/>
      <point x="73" y="413"/>
      <point x="74" y="412" type="curve"/>
      <point x="108" y="367" type="line"/>
      <point x="144" y="320" type="line"/>
      <point x="108" y="272" type="line"/>
      <point x="75" y="231" type="line"/>
      <point x="70" y="220" type="line"/>
      <point x="70" y="-68" type="line"/>
      <point x="27" y="-68" type="line"/>
      <point x="12" y="-68"/>
      <point x="1" y="-82"/>
      <point x="1" y="-98" type="curve" smooth="yes"/>
      <point x="1" y="-115"/>
      <point x="12" y="-129"/>
      <point x="27" y="-129" type="curve"/>
      <point x="120" y="-129" type="line"/>
      <point x="120" y="207" type="line"/>
      <point x="120" y="207"/>
      <point x="206" y="293"/>
      <point x="206" y="320" type="curve" smooth="yes"/>
      <point x="206" y="345"/>
      <point x="126" y="424"/>
      <point x="120" y="431" type="curve"/>
    </contour>
  </outline>
</glyph>
<glyph name="asciitilde" format="1">
  <advance width="331"/>
  <unicode hex="007E"/>
  <outline>
    <contour>
      <point x="-2" y="383" type="curve" smooth="yes"/>
      <point x="-2" y="364"/>
      <point x="19" y="365"/>
      <point x="40" y="371" type="curve" smooth="yes"/>
      <point x="51" y="374"/>
      <point x="62" y="376"/>
      <point x="71" y="376" type="curve" smooth="yes"/>
      <point x="99" y="376"/>
      <point x="131" y="365"/>
      <point x="161" y="356" type="curve" smooth="yes"/>
      <point x="177" y="350"/>
      <point x="195" y="345"/>
      <point x="211" y="341" type="curve" smooth="yes"/>
      <point x="225" y="337"/>
      <point x="240" y="335"/>
      <point x="255" y="335" type="curve" smooth="yes"/>
      <point x="267" y="335"/>
      <point x="280" y="337"/>
      <point x="290" y="340" type="curve" smooth="yes"/>
      <point x="312" y="347"/>
      <point x="328" y="369"/>
      <point x="328" y="383" type="curve" smooth="yes"/>
      <point x="328" y="401"/>
      <point x="309" y="401"/>
      <point x="287" y="395" type="curve" smooth="yes"/>
      <point x="275" y="393"/>
      <point x="263" y="391"/>
      <point x="253" y="391" type="curve" smooth="yes"/>
      <point x="241" y="391"/>
      <point x="227" y="393"/>
      <point x="214" y="395" type="curve"/>
      <point x="214" y="396" type="line"/>
      <point x="199" y="400"/>
      <point x="181" y="406"/>
      <point x="166" y="411" type="curve" smooth="yes"/>
      <point x="136" y="421"/>
      <point x="105" y="431"/>
      <point x="73" y="431" type="curve" smooth="yes"/>
      <point x="60" y="431"/>
      <point x="48" y="429"/>
      <point x="36" y="426" type="curve" smooth="yes"/>
      <point x="16" y="420"/>
      <point x="-2" y="396"/>
    </contour>
  </outline>
</glyph>
<glyph name="exclamdown" format="1">
  <advance width="183"/>
  <unicode hex="00A1"/>
  <outline>
    <contour>
      <point x="78" y="649" type="curve" smooth="yes"/>
      <point x="64" y="649"/>
      <point x="52" y="637"/>
      <point x="52" y="623" type="curve"/>
      <point x="52" y="25" type="line"/>
      <point x="52" y="12"/>
      <point x="64" y="-1"/>
      <point x="78" y="-1" type="curve" smooth="yes"/>
      <point x="93" y="-1"/>
      <point x="104" y="12"/>
      <point x="104" y="25" type="curve"/>
      <point x="104" y="623" type="line"/>
      <point x="104" y="637"/>
      <point x="93" y="649"/>
    </contour>
    <contour>
      <point x="78" y="724" type="curve" smooth="yes"/>
      <point x="64" y="724"/>
      <point x="52" y="711"/>
      <point x="52" y="698" type="curve"/>
      <point x="52" y="685" type="line"/>
      <point x="52" y="672"/>
      <point x="64" y="659"/>
      <point x="78" y="659" type="curve" smooth="yes"/>
      <point x="93" y="659"/>
      <point x="104" y="672"/>
      <point x="104" y="685" type="curve"/>
      <point x="104" y="698" type="line"/>
      <point x="104" y="711"/>
      <point x="93" y="724"/>
    </contour>
  </outline>
</glyph>
<glyph name="cent" format="1">
  <advance width="250"/>
  <unicode hex="00A2"/>
  <outline>
    <contour>
      <point x="247" y="380" type="line"/>
      <point x="247" y="408" type="line"/>
      <point x="247" y="475"/>
      <point x="194" y="530"/>
      <point x="126" y="530" type="curve" smooth="yes"/>
      <point x="59" y="530"/>
      <point x="6" y="475"/>
      <point x="6" y="408" type="curve"/>
      <point x="6" y="121" type="line"/>
      <point x="6" y="55"/>
      <point x="59" y="0"/>
      <point x="126" y="0" type="curve" smooth="yes"/>
      <point x="194" y="0"/>
      <point x="247" y="55"/>
      <point x="247" y="121" type="curve"/>
      <point x="247" y="150" type="line"/>
      <point x="198" y="150" type="line"/>
      <point x="198" y="121" type="line"/>
      <point x="198" y="82"/>
      <point x="166" y="49"/>
      <point x="126" y="49" type="curve" smooth="yes"/>
      <point x="86" y="49"/>
      <point x="54" y="82"/>
      <point x="54" y="121" type="curve"/>
      <point x="54" y="408" type="line"/>
      <point x="54" y="448"/>
      <point x="86" y="480"/>
      <point x="126" y="480" type="curve" smooth="yes"/>
      <point x="166" y="480"/>
      <point x="198" y="448"/>
      <point x="198" y="408" type="curve"/>
      <point x="198" y="380" type="line"/>
    </contour>
    <contour>
      <point x="129" y="638" type="curve" smooth="yes"/>
      <point x="115" y="638"/>
      <point x="104" y="626"/>
      <point x="104" y="613" type="curve"/>
      <point x="104" y="-63" type="line"/>
      <point x="104" y="-78"/>
      <point x="115" y="-89"/>
      <point x="129" y="-89" type="curve" smooth="yes"/>
      <point x="143" y="-89"/>
      <point x="155" y="-78"/>
      <point x="155" y="-63" type="curve"/>
      <point x="155" y="613" type="line"/>
      <point x="155" y="626"/>
      <point x="143" y="638"/>
    </contour>
  </outline>
</glyph>
<glyph name="sterling" format="1">
  <advance width="461"/>
  <unicode hex="00A3"/>
  <outline>
    <contour>
      <point x="423" y="147" type="curve" smooth="yes"/>
      <point x="408" y="147"/>
      <point x="396" y="135"/>
      <point x="396" y="121" type="curve" smooth="yes"/>
      <point x="396" y="83"/>
      <point x="364" y="51"/>
      <point x="326" y="51" type="curve"/>
      <point x="202" y="51" type="line"/>
      <point x="202" y="354" type="line"/>
      <point x="362" y="354" type="line"/>
      <point x="377" y="354"/>
      <point x="389" y="365"/>
      <point x="389" y="380" type="curve" smooth="yes"/>
      <point x="389" y="395"/>
      <point x="377" y="406"/>
      <point x="362" y="406" type="curve"/>
      <point x="202" y="406" type="line"/>
      <point x="202" y="607" type="line"/>
      <point x="267" y="607" type="line"/>
      <point x="334" y="607"/>
      <point x="389" y="661"/>
      <point x="389" y="730" type="curve" smooth="yes"/>
      <point x="389" y="744"/>
      <point x="377" y="756"/>
      <point x="362" y="756" type="curve" smooth="yes"/>
      <point x="348" y="756"/>
      <point x="336" y="744"/>
      <point x="336" y="730" type="curve" smooth="yes"/>
      <point x="336" y="691"/>
      <point x="305" y="659"/>
      <point x="267" y="659" type="curve"/>
      <point x="202" y="659" type="line"/>
      <point x="202" y="702" type="line"/>
      <point x="202" y="717"/>
      <point x="190" y="729"/>
      <point x="175" y="729" type="curve" smooth="yes"/>
      <point x="161" y="729"/>
      <point x="149" y="717"/>
      <point x="149" y="702" type="curve"/>
      <point x="149" y="659" type="line"/>
      <point x="124" y="659" type="line"/>
      <point x="109" y="659"/>
      <point x="97" y="648"/>
      <point x="97" y="633" type="curve" smooth="yes"/>
      <point x="97" y="619"/>
      <point x="109" y="607"/>
      <point x="124" y="607" type="curve"/>
      <point x="149" y="607" type="line"/>
      <point x="149" y="406" type="line"/>
      <point x="124" y="406" type="line"/>
      <point x="56" y="406"/>
      <point x="1" y="352"/>
      <point x="1" y="284" type="curve" smooth="yes"/>
      <point x="1" y="269"/>
      <point x="13" y="258"/>
      <point x="27" y="258" type="curve" smooth="yes"/>
      <point x="42" y="258"/>
      <point x="54" y="269"/>
      <point x="54" y="284" type="curve" smooth="yes"/>
      <point x="54" y="322"/>
      <point x="85" y="354"/>
      <point x="124" y="354" type="curve"/>
      <point x="149" y="354" type="line"/>
      <point x="149" y="51" type="line"/>
      <point x="87" y="51" type="line"/>
      <point x="72" y="51"/>
      <point x="60" y="39"/>
      <point x="60" y="24" type="curve" smooth="yes"/>
      <point x="60" y="10"/>
      <point x="72" y="-2"/>
      <point x="87" y="-2" type="curve"/>
      <point x="149" y="-2" type="line"/>
      <point x="149" y="-16" type="line"/>
      <point x="149" y="-30"/>
      <point x="161" y="-42"/>
      <point x="175" y="-42" type="curve" smooth="yes"/>
      <point x="190" y="-42"/>
      <point x="202" y="-30"/>
      <point x="202" y="-16" type="curve"/>
      <point x="202" y="-2" type="line"/>
      <point x="326" y="-2" type="line"/>
      <point x="395" y="-2"/>
      <point x="449" y="53"/>
      <point x="449" y="121" type="curve" smooth="yes"/>
      <point x="449" y="135"/>
      <point x="437" y="147"/>
    </contour>
  </outline>
</glyph>
<glyph name="currency" format="1">
  <advance width="604"/>
  <unicode hex="00A4"/>
  <outline>
    <contour>
      <point x="539" y="133" type="curve"/>
      <point x="481" y="191" type="line"/>
      <point x="434" y="239" type="line"/>
      <point x="443" y="254"/>
      <point x="446" y="270"/>
      <point x="446" y="288" type="curve"/>
      <point x="446" y="452" type="line"/>
      <point x="446" y="474"/>
      <point x="438" y="497"/>
      <point x="426" y="516" type="curve"/>
      <point x="462" y="554" type="line"/>
      <point x="539" y="631" type="line"/>
      <point x="552" y="644"/>
      <point x="552" y="663"/>
      <point x="539" y="675" type="curve" smooth="yes"/>
      <point x="528" y="686"/>
      <point x="507" y="687"/>
      <point x="496" y="675" type="curve"/>
      <point x="379" y="559" type="line"/>
      <point x="355" y="572"/>
      <point x="325" y="580"/>
      <point x="296" y="580" type="curve" smooth="yes"/>
      <point x="267" y="580"/>
      <point x="239" y="572"/>
      <point x="214" y="559" type="curve"/>
      <point x="155" y="617" type="line"/>
      <point x="97" y="675" type="line"/>
      <point x="85" y="687"/>
      <point x="65" y="688"/>
      <point x="53" y="675" type="curve"/>
      <point x="42" y="663"/>
      <point x="42" y="644"/>
      <point x="53" y="631" type="curve"/>
      <point x="111" y="573" type="line"/>
      <point x="166" y="516" type="line"/>
      <point x="154" y="497"/>
      <point x="147" y="475"/>
      <point x="147" y="452" type="curve"/>
      <point x="147" y="288" type="line"/>
      <point x="147" y="270"/>
      <point x="150" y="254"/>
      <point x="159" y="239" type="curve"/>
      <point x="111" y="191" type="line"/>
      <point x="53" y="133" type="line"/>
      <point x="42" y="120"/>
      <point x="42" y="101"/>
      <point x="53" y="89" type="curve"/>
      <point x="65" y="76"/>
      <point x="85" y="76"/>
      <point x="97" y="89" type="curve"/>
      <point x="198" y="190" type="line"/>
      <point x="223" y="171"/>
      <point x="259" y="159"/>
      <point x="296" y="159" type="curve" smooth="yes"/>
      <point x="335" y="159"/>
      <point x="370" y="171"/>
      <point x="395" y="190" type="curve"/>
      <point x="437" y="146" type="line"/>
      <point x="496" y="89" type="line"/>
      <point x="507" y="76"/>
      <point x="528" y="76"/>
      <point x="539" y="89" type="curve" smooth="yes"/>
      <point x="552" y="101"/>
      <point x="552" y="120"/>
    </contour>
    <contour>
      <point x="296" y="216" type="curve" smooth="yes"/>
      <point x="248" y="216"/>
      <point x="210" y="249"/>
      <point x="210" y="288" type="curve"/>
      <point x="210" y="452" type="line"/>
      <point x="210" y="491"/>
      <point x="248" y="524"/>
      <point x="296" y="524" type="curve" smooth="yes"/>
      <point x="345" y="524"/>
      <point x="383" y="491"/>
      <point x="383" y="452" type="curve"/>
      <point x="383" y="288" type="line"/>
      <point x="383" y="249"/>
      <point x="345" y="216"/>
    </contour>
  </outline>
</glyph>
<glyph name="yen" format="1">
  <advance width="510"/>
  <unicode hex="00A5"/>
  <outline>
    <contour>
      <point x="358" y="729" type="curve" smooth="yes"/>
      <point x="343" y="729"/>
      <point x="333" y="717"/>
      <point x="333" y="703" type="curve"/>
      <point x="333" y="465" type="line"/>
      <point x="333" y="423"/>
      <point x="298" y="390"/>
      <point x="258" y="390" type="curve" smooth="yes"/>
      <point x="217" y="390"/>
      <point x="183" y="423"/>
      <point x="183" y="465" type="curve"/>
      <point x="183" y="703" type="line"/>
      <point x="183" y="718"/>
      <point x="172" y="729"/>
      <point x="157" y="729" type="curve" smooth="yes"/>
      <point x="144" y="729"/>
      <point x="132" y="718"/>
      <point x="132" y="703" type="curve"/>
      <point x="132" y="465" type="line"/>
      <point x="132" y="404"/>
      <point x="177" y="355"/>
      <point x="232" y="341" type="curve"/>
      <point x="232" y="25" type="line"/>
      <point x="232" y="12"/>
      <point x="244" y="0"/>
      <point x="258" y="0" type="curve" smooth="yes"/>
      <point x="271" y="0"/>
      <point x="283" y="12"/>
      <point x="283" y="25" type="curve"/>
      <point x="283" y="341" type="line"/>
      <point x="338" y="355"/>
      <point x="383" y="404"/>
      <point x="383" y="465" type="curve"/>
      <point x="383" y="703" type="line"/>
      <point x="383" y="717"/>
      <point x="372" y="729"/>
    </contour>
    <contour>
      <point x="-1" y="271" type="curve" smooth="yes"/>
      <point x="-1" y="260"/>
      <point x="8" y="251"/>
      <point x="19" y="251" type="curve"/>
      <point x="484" y="251" type="line"/>
      <point x="495" y="251"/>
      <point x="503" y="260"/>
      <point x="503" y="271" type="curve" smooth="yes"/>
      <point x="503" y="282"/>
      <point x="495" y="290"/>
      <point x="484" y="290" type="curve"/>
      <point x="19" y="290" type="line"/>
      <point x="8" y="290"/>
      <point x="-1" y="282"/>
    </contour>
    <contour>
      <point x="-1" y="158" type="curve" smooth="yes"/>
      <point x="-1" y="147"/>
      <point x="8" y="138"/>
      <point x="19" y="138" type="curve"/>
      <point x="484" y="138" type="line"/>
      <point x="495" y="138"/>
      <point x="503" y="147"/>
      <point x="503" y="158" type="curve" smooth="yes"/>
      <point x="503" y="169"/>
      <point x="495" y="177"/>
      <point x="484" y="177" type="curve"/>
      <point x="19" y="177" type="line"/>
      <point x="8" y="177"/>
      <point x="-1" y="169"/>
    </contour>
  </outline>
</glyph>
<glyph name="brokenbar" format="1">
  <advance width="81"/>
  <unicode hex="00A6"/>
  <outline>
    <contour>
      <point x="38" y="767" type="curve" smooth="yes"/>
      <point x="24" y="767"/>
      <point x="13" y="754"/>
      <point x="13" y="737" type="curve"/>
      <point x="13" y="364" type="line"/>
      <point x="64" y="364" type="line"/>
      <point x="64" y="737" type="line"/>
      <point x="64" y="754"/>
      <point x="52" y="767"/>
    </contour>
    <contour>
      <point x="13" y="-86" type="line"/>
      <point x="13" y="-102"/>
      <point x="24" y="-115"/>
      <point x="38" y="-115" type="curve" smooth="yes"/>
      <point x="52" y="-115"/>
      <point x="64" y="-102"/>
      <point x="64" y="-86" type="curve"/>
      <point x="64" y="286" type="line"/>
      <point x="13" y="286" type="line"/>
    </contour>
  </outline>
</glyph>
<glyph name="section" format="1">
  <advance width="394"/>
  <unicode hex="00A7"/>
  <outline>
    <contour>
      <point x="358" y="731" type="curve"/>
      <point x="195" y="731" type="line"/>
      <point x="121" y="731"/>
      <point x="62" y="679"/>
      <point x="62" y="616" type="curve" smooth="yes"/>
      <point x="62" y="582"/>
      <point x="79" y="548"/>
      <point x="111" y="527" type="curve"/>
      <point x="79" y="506"/>
      <point x="62" y="473"/>
      <point x="62" y="437" type="curve"/>
      <point x="62" y="292" type="line"/>
      <point x="62" y="265"/>
      <point x="74" y="239"/>
      <point x="94" y="218" type="curve" smooth="yes"/>
      <point x="115" y="198"/>
      <point x="143" y="184"/>
      <point x="173" y="179" type="curve"/>
      <point x="177" y="179"/>
      <point x="179" y="178"/>
      <point x="181" y="178" type="curve"/>
      <point x="201" y="178" type="line"/>
      <point x="241" y="175"/>
      <point x="270" y="148"/>
      <point x="270" y="115" type="curve" smooth="yes"/>
      <point x="270" y="79"/>
      <point x="236" y="51"/>
      <point x="193" y="51" type="curve"/>
      <point x="30" y="51" type="line"/>
      <point x="14" y="51"/>
      <point x="3" y="39"/>
      <point x="3" y="25" type="curve" smooth="yes"/>
      <point x="3" y="11"/>
      <point x="14" y="0"/>
      <point x="30" y="0" type="curve"/>
      <point x="193" y="0" type="line"/>
      <point x="268" y="0"/>
      <point x="327" y="52"/>
      <point x="327" y="115" type="curve" smooth="yes"/>
      <point x="327" y="150"/>
      <point x="308" y="182"/>
      <point x="278" y="204" type="curve"/>
      <point x="309" y="224"/>
      <point x="328" y="257"/>
      <point x="328" y="292" type="curve"/>
      <point x="328" y="437" type="line"/>
      <point x="328" y="466"/>
      <point x="316" y="493"/>
      <point x="296" y="513" type="curve" smooth="yes"/>
      <point x="275" y="533"/>
      <point x="247" y="546"/>
      <point x="216" y="551" type="curve"/>
      <point x="209" y="551" type="line"/>
      <point x="204" y="552"/>
      <point x="197" y="552"/>
      <point x="195" y="552" type="curve"/>
      <point x="189" y="552" type="line"/>
      <point x="150" y="555"/>
      <point x="118" y="583"/>
      <point x="118" y="616" type="curve" smooth="yes"/>
      <point x="118" y="652"/>
      <point x="153" y="680"/>
      <point x="195" y="680" type="curve"/>
      <point x="358" y="680" type="line"/>
      <point x="374" y="680"/>
      <point x="386" y="692"/>
      <point x="386" y="705" type="curve" smooth="yes"/>
      <point x="386" y="720"/>
      <point x="374" y="731"/>
    </contour>
    <contour>
      <point x="189" y="502" type="curve"/>
      <point x="202" y="502" type="line"/>
      <point x="242" y="498"/>
      <point x="272" y="471"/>
      <point x="272" y="437" type="curve"/>
      <point x="272" y="292" type="line"/>
      <point x="272" y="260"/>
      <point x="241" y="232"/>
      <point x="202" y="229" type="curve"/>
      <point x="186" y="229" type="line"/>
      <point x="147" y="234"/>
      <point x="118" y="260"/>
      <point x="118" y="292" type="curve"/>
      <point x="118" y="437" type="line"/>
      <point x="118" y="471"/>
      <point x="150" y="499"/>
    </contour>
  </outline>
</glyph>
<glyph name="dieresis" format="1">
  <advance width="308"/>
  <unicode hex="00A8"/>
  <outline>
    <contour>
      <point x="90" y="631" type="curve" smooth="yes"/>
      <point x="68" y="631"/>
      <point x="52" y="615"/>
      <point x="52" y="592" type="curve"/>
      <point x="52" y="569" type="line"/>
      <point x="52" y="545"/>
      <point x="68" y="529"/>
      <point x="90" y="529" type="curve" smooth="yes"/>
      <point x="114" y="529"/>
      <point x="131" y="545"/>
      <point x="131" y="569" type="curve"/>
      <point x="131" y="592" type="line"/>
      <point x="131" y="615"/>
      <point x="114" y="631"/>
    </contour>
    <contour>
      <point x="209" y="631" type="curve" smooth="yes"/>
      <point x="189" y="631"/>
      <point x="170" y="615"/>
      <point x="170" y="592" type="curve"/>
      <point x="170" y="569" type="line"/>
      <point x="170" y="545"/>
      <point x="189" y="529"/>
      <point x="209" y="529" type="curve" smooth="yes"/>
      <point x="233" y="529"/>
      <point x="249" y="545"/>
      <point x="249" y="569" type="curve"/>
      <point x="249" y="592" type="line"/>
      <point x="249" y="615"/>
      <point x="233" y="631"/>
    </contour>
  </outline>
</glyph>
<glyph name="copyright" format="1">
  <advance width="539"/>
  <unicode hex="00A9"/>
  <outline>
    <contour>
      <point x="353" y="470" type="line"/>
      <point x="353" y="522" type="line"/>
      <point x="353" y="572"/>
      <point x="312" y="612"/>
      <point x="264" y="612" type="curve" smooth="yes"/>
      <point x="216" y="612"/>
      <point x="175" y="572"/>
      <point x="175" y="522" type="curve"/>
      <point x="175" y="241" type="line"/>
      <point x="175" y="193"/>
      <point x="216" y="152"/>
      <point x="264" y="152" type="curve" smooth="yes"/>
      <point x="312" y="152"/>
      <point x="353" y="193"/>
      <point x="353" y="241" type="curve"/>
      <point x="353" y="280" type="line"/>
      <point x="294" y="280" type="line"/>
      <point x="294" y="241" type="line"/>
      <point x="294" y="224"/>
      <point x="280" y="212"/>
      <point x="264" y="212" type="curve" smooth="yes"/>
      <point x="248" y="212"/>
      <point x="234" y="224"/>
      <point x="234" y="241" type="curve"/>
      <point x="234" y="522" type="line"/>
      <point x="234" y="539"/>
      <point x="248" y="552"/>
      <point x="264" y="552" type="curve" smooth="yes"/>
      <point x="280" y="552"/>
      <point x="294" y="539"/>
      <point x="294" y="522" type="curve"/>
      <point x="294" y="470" type="line"/>
    </contour>
    <contour>
      <point x="264" y="704" type="curve" smooth="yes"/>
      <point x="143" y="704"/>
      <point x="45" y="628"/>
      <point x="45" y="537" type="curve"/>
      <point x="45" y="227" type="line"/>
      <point x="45" y="134"/>
      <point x="145" y="60"/>
      <point x="264" y="60" type="curve" smooth="yes"/>
      <point x="384" y="60"/>
      <point x="483" y="134"/>
      <point x="483" y="227" type="curve"/>
      <point x="483" y="537" type="line"/>
      <point x="483" y="628"/>
      <point x="384" y="704"/>
    </contour>
    <contour>
      <point x="435" y="227" type="curve" smooth="yes"/>
      <point x="435" y="172"/>
      <point x="343" y="112"/>
      <point x="268" y="112" type="curve" smooth="yes"/>
      <point x="193" y="112"/>
      <point x="101" y="168"/>
      <point x="101" y="223" type="curve"/>
      <point x="95" y="530" type="line"/>
      <point x="97" y="585"/>
      <point x="190" y="650"/>
      <point x="264" y="650" type="curve" smooth="yes"/>
      <point x="339" y="650"/>
      <point x="431" y="591"/>
      <point x="431" y="536" type="curve" smooth="yes"/>
      <point x="431" y="411"/>
      <point x="433" y="361"/>
      <point x="434" y="320" type="curve" smooth="yes"/>
      <point x="435" y="292"/>
      <point x="435" y="268"/>
    </contour>
  </outline>
</glyph>
<glyph name="ordfeminine" format="1">
  <advance width="336"/>
  <unicode hex="00AA"/>
  <outline>
    <contour>
      <point x="49" y="666" type="curve"/>
      <point x="49" y="448" type="line"/>
      <point x="49" y="392"/>
      <point x="93" y="348"/>
      <point x="149" y="348" type="curve" smooth="yes"/>
      <point x="177" y="348"/>
      <point x="201" y="357"/>
      <point x="220" y="377" type="curve"/>
      <point x="239" y="356"/>
      <point x="267" y="343"/>
      <point x="296" y="343" type="curve" smooth="yes"/>
      <point x="312" y="343"/>
      <point x="323" y="355"/>
      <point x="323" y="371" type="curve" smooth="yes"/>
      <point x="323" y="386"/>
      <point x="312" y="398"/>
      <point x="296" y="398" type="curve" smooth="yes"/>
      <point x="271" y="398"/>
      <point x="251" y="418"/>
      <point x="251" y="443" type="curve"/>
      <point x="251" y="661" type="line"/>
      <point x="251" y="662"/>
      <point x="250" y="663"/>
      <point x="250" y="664" type="curve" smooth="yes"/>
      <point x="249" y="722"/>
      <point x="205" y="766"/>
      <point x="149" y="766" type="curve" smooth="yes"/>
      <point x="93" y="766"/>
      <point x="49" y="722"/>
    </contour>
    <contour>
      <point x="104" y="448" type="curve"/>
      <point x="104" y="666" type="line"/>
      <point x="104" y="691"/>
      <point x="124" y="711"/>
      <point x="149" y="711" type="curve" smooth="yes"/>
      <point x="174" y="711"/>
      <point x="195" y="691"/>
      <point x="195" y="666" type="curve"/>
      <point x="195" y="448" type="line"/>
      <point x="195" y="423"/>
      <point x="174" y="402"/>
      <point x="149" y="402" type="curve" smooth="yes"/>
      <point x="124" y="402"/>
      <point x="104" y="423"/>
    </contour>
  </outline>
</glyph>
<glyph name="guillemotleft" format="1">
  <advance width="544"/>
  <unicode hex="00AB"/>
  <outline>
    <contour>
      <point x="466" y="1" type="curve" smooth="yes"/>
      <point x="473" y="1"/>
      <point x="479" y="2"/>
      <point x="485" y="7" type="curve" smooth="yes"/>
      <point x="496" y="17"/>
      <point x="497" y="37"/>
      <point x="489" y="48" type="curve"/>
      <point x="214" y="362" type="line"/>
      <point x="489" y="676" type="line"/>
      <point x="497" y="688"/>
      <point x="496" y="707"/>
      <point x="486" y="718" type="curve" smooth="yes"/>
      <point x="474" y="728"/>
      <point x="456" y="726"/>
      <point x="445" y="715" type="curve"/>
      <point x="137" y="362" type="line"/>
      <point x="445" y="10" type="line"/>
      <point x="445" y="11" type="line"/>
      <point x="450" y="4"/>
      <point x="459" y="1"/>
    </contour>
    <contour>
      <point x="362" y="-2" type="curve" smooth="yes"/>
      <point x="369" y="-2"/>
      <point x="375" y="-1"/>
      <point x="381" y="4" type="curve" smooth="yes"/>
      <point x="392" y="14"/>
      <point x="393" y="34"/>
      <point x="385" y="45" type="curve"/>
      <point x="110" y="359" type="line"/>
      <point x="385" y="673" type="line"/>
      <point x="393" y="685"/>
      <point x="392" y="704"/>
      <point x="382" y="715" type="curve" smooth="yes"/>
      <point x="370" y="725"/>
      <point x="352" y="724"/>
      <point x="341" y="712" type="curve"/>
      <point x="33" y="359" type="line"/>
      <point x="341" y="7" type="line"/>
      <point x="341" y="8" type="line"/>
      <point x="346" y="1"/>
      <point x="355" y="-2"/>
    </contour>
  </outline>
</glyph>
<glyph name="logicalnot" format="1">
  <advance width="309"/>
  <unicode hex="00AC"/>
  <outline>
    <contour>
      <point x="185" y="450" type="curve"/>
      <point x="20" y="450" type="line"/>
      <point x="7" y="450"/>
      <point x="-4" y="439"/>
      <point x="-4" y="426" type="curve" smooth="yes"/>
      <point x="-4" y="412"/>
      <point x="7" y="401"/>
      <point x="20" y="401" type="curve"/>
      <point x="183" y="401" type="line"/>
      <point x="219" y="401"/>
      <point x="246" y="374"/>
      <point x="246" y="341" type="curve" smooth="yes"/>
      <point x="246" y="327"/>
      <point x="257" y="317"/>
      <point x="271" y="317" type="curve" smooth="yes"/>
      <point x="283" y="317"/>
      <point x="294" y="327"/>
      <point x="294" y="341" type="curve" smooth="yes"/>
      <point x="294" y="401"/>
      <point x="245" y="450"/>
    </contour>
  </outline>
</glyph>
<glyph name="registered" format="1">
  <advance width="468"/>
  <unicode hex="00AE"/>
  <outline>
    <contour>
      <point x="231" y="706" type="curve" smooth="yes"/>
      <point x="110" y="706"/>
      <point x="13" y="631"/>
      <point x="13" y="540" type="curve"/>
      <point x="13" y="227" type="line"/>
      <point x="13" y="134"/>
      <point x="111" y="60"/>
      <point x="231" y="60" type="curve" smooth="yes"/>
      <point x="351" y="60"/>
      <point x="449" y="134"/>
      <point x="449" y="227" type="curve"/>
      <point x="449" y="540" type="line"/>
      <point x="449" y="631"/>
      <point x="351" y="706"/>
    </contour>
    <contour>
      <point x="399" y="221" type="line"/>
      <point x="399" y="165"/>
      <point x="314" y="109"/>
      <point x="237" y="109" type="curve" smooth="yes"/>
      <point x="160" y="109"/>
      <point x="65" y="160"/>
      <point x="65" y="216" type="curve"/>
      <point x="65" y="540" type="line"/>
      <point x="65" y="597"/>
      <point x="160" y="659"/>
      <point x="237" y="659" type="curve" smooth="yes"/>
      <point x="314" y="659"/>
      <point x="399" y="598"/>
      <point x="399" y="541" type="curve"/>
    </contour>
    <contour>
      <point x="319" y="420" type="line"/>
      <point x="319" y="528" type="line"/>
      <point x="319" y="577"/>
      <point x="280" y="616"/>
      <point x="231" y="616" type="curve" smooth="yes"/>
      <point x="187" y="616"/>
      <point x="149" y="582"/>
      <point x="143" y="539" type="curve"/>
      <point x="143" y="178" type="line"/>
      <point x="143" y="163"/>
      <point x="155" y="151"/>
      <point x="171" y="151" type="curve" smooth="yes"/>
      <point x="185" y="151"/>
      <point x="198" y="163"/>
      <point x="198" y="178" type="curve"/>
      <point x="198" y="357" type="line"/>
      <point x="200" y="357" type="line"/>
      <point x="215" y="231" type="line"/>
      <point x="222" y="179"/>
      <point x="247" y="152"/>
      <point x="286" y="152" type="curve"/>
      <point x="295" y="152" type="line"/>
      <point x="310" y="153"/>
      <point x="321" y="168"/>
      <point x="319" y="182" type="curve" smooth="yes"/>
      <point x="318" y="196"/>
      <point x="306" y="207"/>
      <point x="291" y="207" type="curve" smooth="yes"/>
      <point x="288" y="207"/>
      <point x="287" y="206"/>
      <point x="286" y="206" type="curve" smooth="yes"/>
      <point x="278" y="206"/>
      <point x="272" y="211"/>
      <point x="270" y="238" type="curve"/>
      <point x="255" y="358" type="line"/>
      <point x="285" y="365"/>
      <point x="310" y="390"/>
      <point x="317" y="420" type="curve"/>
    </contour>
    <contour>
      <point x="237" y="411" type="curve"/>
      <point x="198" y="411" type="line"/>
      <point x="198" y="528" type="line"/>
      <point x="198" y="546"/>
      <point x="212" y="561"/>
      <point x="231" y="561" type="curve" smooth="yes"/>
      <point x="249" y="561"/>
      <point x="264" y="546"/>
      <point x="264" y="528" type="curve"/>
      <point x="264" y="439" type="line"/>
      <point x="264" y="424"/>
      <point x="251" y="411"/>
    </contour>
  </outline>
</glyph>
<glyph name="macron" format="1">
  <advance width="455"/>
  <unicode hex="00AF"/>
  <outline>
    <contour>
      <point x="387" y="734" type="curve" smooth="yes"/>
      <point x="387" y="750"/>
      <point x="376" y="761"/>
      <point x="368" y="761" type="curve"/>
      <point x="77" y="761" type="line"/>
      <point x="67" y="761"/>
      <point x="59" y="750"/>
      <point x="59" y="734" type="curve" smooth="yes"/>
      <point x="59" y="720"/>
      <point x="67" y="706"/>
      <point x="77" y="706" type="curve"/>
      <point x="368" y="706" type="line"/>
      <point x="376" y="706"/>
      <point x="387" y="720"/>
    </contour>
  </outline>
</glyph>
<glyph name="degree" format="1">
  <advance width="336"/>
  <unicode hex="00B0"/>
  <outline>
    <contour>
      <point x="164" y="765" type="curve" smooth="yes"/>
      <point x="96" y="765"/>
      <point x="41" y="710"/>
      <point x="41" y="641" type="curve"/>
      <point x="41" y="485" type="line"/>
      <point x="41" y="415"/>
      <point x="96" y="360"/>
      <point x="164" y="360" type="curve" smooth="yes"/>
      <point x="233" y="360"/>
      <point x="288" y="415"/>
      <point x="288" y="485" type="curve"/>
      <point x="288" y="641" type="line"/>
      <point x="288" y="710"/>
      <point x="233" y="765"/>
    </contour>
    <contour>
      <point x="233" y="485" type="line"/>
      <point x="233" y="446"/>
      <point x="202" y="415"/>
      <point x="164" y="415" type="curve" smooth="yes"/>
      <point x="126" y="415"/>
      <point x="96" y="446"/>
      <point x="96" y="485" type="curve"/>
      <point x="96" y="641" type="line"/>
      <point x="96" y="679"/>
      <point x="126" y="710"/>
      <point x="164" y="710" type="curve" smooth="yes"/>
      <point x="202" y="710"/>
      <point x="233" y="679"/>
      <point x="233" y="641" type="curve"/>
    </contour>
  </outline>
</glyph>
